<?xml version="1.0" encoding="UTF-8" standalone="no"?>
<svg
   viewBox="0 0 2140 414.0058"
   height="414.0058"
   width="2140"
   xml:space="preserve"
   id="svg2"
   version="1.1"
   sodipodi:docname="afirme.svg"
   inkscape:version="1.1 (c68e22c387, 2021-05-23)"
   xmlns:inkscape="http://www.inkscape.org/namespaces/inkscape"
   xmlns:sodipodi="http://sodipodi.sourceforge.net/DTD/sodipodi-0.dtd"
   xmlns="http://www.w3.org/2000/svg"
   xmlns:svg="http://www.w3.org/2000/svg"
   xmlns:rdf="http://www.w3.org/1999/02/22-rdf-syntax-ns#"
   xmlns:cc="http://creativecommons.org/ns#"
   xmlns:dc="http://purl.org/dc/elements/1.1/"><sodipodi:namedview
     id="namedview28"
     pagecolor="#ffffff"
     bordercolor="#666666"
     borderopacity="1.0"
     inkscape:pageshadow="2"
     inkscape:pageopacity="0.0"
     inkscape:pagecheckerboard="0"
     showgrid="false"
     fit-margin-top="0"
     fit-margin-left="0"
     fit-margin-right="0"
     fit-margin-bottom="0"
     inkscape:zoom="0.25490196"
     inkscape:cx="1484.8846"
     inkscape:cy="88.269231"
     inkscape:window-width="1920"
     inkscape:window-height="1017"
     inkscape:window-x="1912"
     inkscape:window-y="-8"
     inkscape:window-maximized="1"
     inkscape:current-layer="svg2" /><metadata
     id="metadata8"><rdf:RDF><cc:Work
         rdf:about=""><dc:format>image/svg+xml</dc:format><dc:type
           rdf:resource="http://purl.org/dc/dcmitype/StillImage" /></cc:Work></rdf:RDF></metadata><defs
     id="defs6"><clipPath
       id="clipPath18"
       clipPathUnits="userSpaceOnUse"><path
         id="path16"
         d="M 0,612 H 792 V 0 H 0 Z" /></clipPath></defs><g
     transform="matrix(3.5895936,0,0,-3.5895936,-295.11354,1546.5219)"
     id="g10"
     style="fill:#00874d;fill-opacity:1"><g
       id="g12"
       style="fill:#00874d;fill-opacity:1"><g
         clip-path="url(#clipPath18)"
         id="g14"
         style="fill:#00874d;fill-opacity:1"><g
           transform="translate(84.1191,323.2588)"
           id="g20"
           style="fill:#00874d;fill-opacity:1"><path
             id="path22"
             style="fill:#00874d;fill-opacity:1;fill-rule:nonzero;stroke:none"
             d="m 0,0 c 3.118,4.593 70.398,101.606 72.148,104.356 1.75,2.75 4.663,5.33 7.913,0.58 3.25,-4.75 4.838,-7.548 6.789,-10.518 2.283,-3.478 -2.288,-7.284 -5.43,-3.314 -3.57,4.513 -4.226,9.313 -8.246,2.545 C 69.453,87.383 54.902,67.014 51.651,62.141 49.211,58.483 49.039,51.269 50.729,45.806 51.988,41.738 54.298,38.891 55.631,37.241 56.76,35.843 56.186,34.03 54.381,31.61 52.671,29.317 27.631,-7.759 27.631,-7.759 H 2.48 C -2.895,-7.759 -2.832,-4.171 0,0" /></g><g
           transform="translate(118.25,315.5)"
           id="g24"
           style="fill:#00874d;fill-opacity:1"><path
             id="path26"
             style="fill:#00874d;fill-opacity:1;fill-rule:nonzero;stroke:none"
             d="m 0,0 c 0.75,0.25 54.537,78.96 58.037,84.21 3.5,5.25 8.893,1.952 5.74,-3.444 -4.177,-7.15 -18.291,-28.42 -21.05,-32.479 -2.496,-3.671 -2.799,-9.32 -1.88,-13.6 1.063,-4.956 3.475,-9.163 7.097,-11.98 L 32.38,0 Z" /></g><g
           transform="translate(158.25,315.5)"
           id="g28"
           style="fill:#00874d;fill-opacity:1"><path
             id="path30"
             style="fill:#00874d;fill-opacity:1;fill-rule:nonzero;stroke:none"
             d="m 0,0 c 34.702,51.179 35.017,52.156 38.608,56.773 3.02,3.883 7.957,0.581 5.437,-3.552 C 41.49,49.032 25.265,25.395 22.951,21.878 20.198,17.692 20.909,7.155 28.38,7.217 36.396,7.284 70.75,7.5 70.75,7.5 c 0,0 -11.855,16.52 -14.844,21.751 -3.178,5.562 2.823,7.516 5.448,3.987 C 63.056,30.951 76.521,11.264 79.538,7.276 81.959,4.077 80.827,0 77.077,0 Z" /></g><g
           transform="translate(520.1934,315.834)"
           id="g32"
           style="fill:#00874d;fill-opacity:1"><path
             id="path34"
             style="fill:#00874d;fill-opacity:1;fill-rule:nonzero;stroke:none"
             d="M 0,0 13.132,86.373 H 23.827 L 52.392,26.399 81.77,86.373 h 9.747 L 103.295,0 H 83.259 L 77.302,56.86 49.685,0 H 44.811 L 17.464,55.506 11.507,0 Z" /></g><g
           transform="translate(630.3984,315.834)"
           id="g36"
           style="fill:#00874d;fill-opacity:1"><path
             id="path38"
             style="fill:#00874d;fill-opacity:1;fill-rule:nonzero;stroke:none"
             d="m 0,0 v 83.859 c 0,1.333 1.343,2.514 2.609,2.514 1.083,-0.001 45.315,0 45.315,0 v -7.112 c 0,-1.622 -1.614,-2.77 -2.859,-2.77 H 20.036 V 49.956 h 27.888 c 0,0 0.013,-5.793 0,-7.153 -0.015,-1.541 -1.392,-2.422 -2.843,-2.459 -1.083,-0.028 -25.316,0 -25.316,0 V 9.748 H 47.983 V 2.146 C 47.983,0.324 46.532,0 44.688,0 Z" /></g><g
           transform="translate(358.6675,315.834)"
           id="g40"
           style="fill:#00874d;fill-opacity:1"><path
             id="path42"
             style="fill:#00874d;fill-opacity:1;fill-rule:nonzero;stroke:none"
             d="m 0,0 v 83.859 c 0,1.333 1.343,2.514 2.609,2.514 1.083,-0.001 45.315,0 45.315,0 v -7.112 c 0,-1.622 -1.615,-2.77 -2.859,-2.77 H 20.036 V 49.956 h 27.888 c 0,0 0.012,-5.793 0,-7.153 -0.015,-1.541 -1.392,-2.422 -2.843,-2.459 -1.082,-0.028 -25.316,0 -25.316,0 L 19.765,0 Z" /></g><g
           transform="translate(417.1309,315.834)"
           id="g44"
           style="fill:#00874d;fill-opacity:1"><path
             id="path46"
             style="fill:#00874d;fill-opacity:1;fill-rule:nonzero;stroke:none"
             d="m 0,0 v 83.859 c 0,1.333 1.343,2.514 2.609,2.514 1.083,-0.001 18.152,0 18.152,0 L 20.766,0 Z" /></g><g
           transform="translate(477.4092,361.6914)"
           id="g48"
           style="fill:#00874d;fill-opacity:1"><path
             id="path50"
             style="fill:#00874d;fill-opacity:1;fill-rule:nonzero;stroke:none"
             d="m 0,0 c 6.707,2.957 10.856,8.822 10.856,16.415 0,9.62 -5.782,14.474 -10.547,16.195 -2.683,0.969 -9.355,0.971 -9.355,0.971 V -1.324 c 0,0 6.361,0.14 9.046,1.324 m -8.589,-45.857 h -21.334 v 83.859 c 0,1.333 1.343,2.514 2.61,2.513 1.083,0 30.982,0 30.982,0 6.172,0 25.852,1.068 25.672,-22.456 C 29.257,7.142 21.424,-1.324 9.747,-3.188 12.341,-7.108 36.175,-45.857 36.175,-45.857 H 19.88 c -5.571,0 -7.599,3.951 -9.98,7.561 -2.38,3.61 -18.668,32.65 -18.668,32.65 z" /></g><g
           transform="translate(295.6343,348.3628)"
           id="g52"
           style="fill:#00874d;fill-opacity:1"><path
             id="path54"
             style="fill:#00874d;fill-opacity:1;fill-rule:nonzero;stroke:none"
             d="M 0,0 H 22.847 L 11.423,29.318 -0.229,0 M 25.484,-7.859 H -3.418 l -9.917,-24.67 H -24.528 L 11.6,53.844 h 9.492 L 55.898,-32.529 H 41.194 c -5.571,0 -8.162,6.423 -9.099,8.881 -0.937,2.459 -6.611,15.789 -6.611,15.789" /></g></g></g></g></svg>
