<?xml version="1.0" encoding="UTF-8" standalone="no"?>
<!-- Generator: Adobe Illustrator 14.0.0, SVG Export Plug-In . SVG Version: 6.00 Build 43363)  -->

<svg
   version="1.1"
   id="Layer_1"
   x="0px"
   y="0px"
   width="2334.7703"
   height="498.1955"
   viewBox="0 0 2334.7702 498.19549"
   enable-background="new 0 0 612 792"
   xml:space="preserve"
   sodipodi:docname="Logo_de_BanBajío.svg"
   inkscape:version="1.1 (c68e22c387, 2021-05-23)"
   xmlns:inkscape="http://www.inkscape.org/namespaces/inkscape"
   xmlns:sodipodi="http://sodipodi.sourceforge.net/DTD/sodipodi-0.dtd"
   xmlns="http://www.w3.org/2000/svg"
   xmlns:svg="http://www.w3.org/2000/svg"><defs
   id="defs37" /><sodipodi:namedview
   id="namedview35"
   pagecolor="#ffffff"
   bordercolor="#666666"
   borderopacity="1.0"
   inkscape:pageshadow="2"
   inkscape:pageopacity="0.0"
   inkscape:pagecheckerboard="0"
   showgrid="false"
   fit-margin-top="0"
   fit-margin-left="0"
   fit-margin-right="0"
   fit-margin-bottom="0"
   inkscape:zoom="0.092852406"
   inkscape:cx="231.55027"
   inkscape:cy="974.6651"
   inkscape:window-width="1920"
   inkscape:window-height="1017"
   inkscape:window-x="1912"
   inkscape:window-y="-8"
   inkscape:window-maximized="1"
   inkscape:current-layer="Layer_1" />
<g
   id="g32"
   transform="matrix(15.481651,0,0,15.481651,-8182.6896,-5852.1215)"
   style="fill:#49318d;fill-opacity:1">
	
	<path
   fill="#ed1c24"
   d="M 310.161,381.204 V 365.64 c 0,-0.882 0.172,-1.464 0.502,-1.755 0.331,-0.28 1.019,-0.421 2.051,-0.421 2.605,0 4.418,0.622 5.437,1.855 1.019,1.234 1.533,3.561 1.533,6.99 0,3.168 -0.674,5.445 -2.01,6.829 -1.35,1.374 -3.532,2.066 -6.548,2.066 z m 0,1.885 c 3.796,0.02 6.534,0.862 8.214,2.547 1.68,1.675 2.513,4.432 2.513,8.273 0,2.999 -0.622,5.205 -1.878,6.638 -1.257,1.435 -3.174,2.146 -5.754,2.146 -1.138,0 -1.931,-0.231 -2.394,-0.692 -0.464,-0.461 -0.701,-1.283 -0.701,-2.487 z m -11.07,-1.885 h -0.965 c -3.016,0 -5.198,-0.692 -6.547,-2.066 -1.336,-1.384 -2.01,-3.661 -2.01,-6.829 0,-3.43 0.516,-5.756 1.534,-6.99 1.018,-1.233 2.831,-1.855 5.437,-1.855 1.032,0 1.719,0.141 2.05,0.421 0.33,0.291 0.502,0.873 0.502,1.755 v 15.564 z m 0,1.885 v 16.426 c 0,1.204 -0.238,2.026 -0.701,2.487 -0.463,0.461 -1.256,0.692 -2.394,0.692 -2.58,0 -4.498,-0.712 -5.754,-2.146 -1.256,-1.434 -1.878,-3.64 -1.878,-6.638 0,-3.841 0.833,-6.599 2.513,-8.273 1.68,-1.686 4.418,-2.528 8.214,-2.548 z m 13.253,-21.591 h -15.436 -0.449 c -5.529,0 -9.839,0.578 -12.936,2.33 -3.104,1.757 -4.731,4.332 -4.656,7.419 0.146,5.96 2.187,8.129 8.542,10.279 -7.313,1.574 -10.278,4.719 -10.278,11.55 0,3.761 1.731,6.645 4.911,8.634 3.181,1.991 7.777,2.979 13.795,2.979 h 1.07 15.436 1.07 c 6.019,0 10.614,-0.987 13.796,-2.979 3.18,-1.989 4.911,-4.873 4.911,-8.634 0,-6.832 -2.965,-9.976 -10.279,-11.55 6.356,-2.15 8.396,-4.319 8.543,-10.279 0.075,-3.087 -1.552,-5.662 -4.656,-7.419 -3.097,-1.752 -7.406,-2.33 -12.936,-2.33 z"
   id="path4"
   style="fill:#bf0411;fill-opacity:1" />
	<path
   fill="#a54686"
   d="m 393.252,422.409 c 0,1.503 -0.285,2.872 -0.86,4.103 -0.569,1.234 -1.402,2.273 -2.493,3.117 -0.536,0.422 -1.134,0.744 -1.796,0.974 -0.669,0.227 -1.348,0.341 -2.044,0.341 -0.69,0 -1.375,-0.114 -2.043,-0.341 -0.669,-0.229 -1.271,-0.552 -1.809,-0.974 -1.101,-0.866 -1.934,-1.913 -2.503,-3.133 -0.564,-1.22 -0.85,-2.584 -0.85,-4.087 0,-1.508 0.285,-2.872 0.85,-4.096 0.569,-1.228 1.402,-2.27 2.503,-3.129 0.537,-0.418 1.135,-0.74 1.792,-0.963 0.657,-0.218 1.348,-0.329 2.06,-0.329 0.707,0 1.392,0.111 2.055,0.329 0.668,0.223 1.26,0.545 1.785,0.963 1.102,0.848 1.935,1.883 2.504,3.106 0.564,1.224 0.849,2.596 0.849,4.119 z m -7.188,-7.776 c -0.976,0 -1.66,0.544 -2.049,1.633 -0.39,1.089 -0.587,3.152 -0.587,6.185 0,2.945 0.197,4.962 0.592,6.052 0.4,1.088 1.079,1.633 2.044,1.633 0.958,0 1.638,-0.545 2.038,-1.633 0.395,-1.09 0.591,-3.106 0.591,-6.052 0,-3.032 -0.196,-5.096 -0.591,-6.185 -0.4,-1.089 -1.08,-1.633 -2.038,-1.633 z"
   id="path6"
   style="fill:#49318d;fill-opacity:1" />
	<path
   fill="#a54686"
   d="m 377.084,428.497 c 0,0.399 0.083,0.676 0.249,0.836 0.166,0.162 0.461,0.265 0.884,0.311 v 0.764 h -5.746 v -0.764 c 0.433,-0.046 0.732,-0.148 0.902,-0.313 0.171,-0.165 0.258,-0.441 0.258,-0.833 v -12.673 c 0,-0.398 -0.087,-0.682 -0.258,-0.854 -0.17,-0.173 -0.47,-0.28 -0.902,-0.326 v -0.751 h 5.746 v 0.751 c -0.423,0.046 -0.718,0.153 -0.884,0.322 -0.166,0.165 -0.249,0.453 -0.249,0.858 z"
   id="path8"
   style="fill:#49318d;fill-opacity:1" />
	<path
   fill="#a54686"
   d="m 367.969,415.807 c 0,-0.424 -0.106,-0.721 -0.322,-0.888 -0.217,-0.166 -0.607,-0.25 -1.175,-0.25 v -0.776 h 6.014 v 0.776 c -0.396,0 -0.672,0.084 -0.828,0.246 -0.157,0.163 -0.235,0.452 -0.235,0.868 v 10.805 c 0,0.82 -0.06,1.459 -0.175,1.919 -0.115,0.456 -0.309,0.844 -0.58,1.173 -0.396,0.488 -0.949,0.873 -1.658,1.154 -0.714,0.281 -1.491,0.424 -2.348,0.424 -1.151,0 -2.1,-0.27 -2.851,-0.809 -0.75,-0.535 -1.128,-1.205 -1.128,-2.002 0,-0.575 0.175,-1.023 0.525,-1.349 0.354,-0.325 0.833,-0.487 1.445,-0.487 0.521,0 0.948,0.139 1.275,0.412 0.327,0.273 0.493,0.631 0.493,1.063 0,0.421 -0.171,0.766 -0.507,1.043 -0.336,0.273 -0.76,0.412 -1.267,0.412 -0.078,0 -0.202,-0.023 -0.363,-0.071 -0.047,-0.016 -0.069,-0.023 -0.078,-0.023 l -0.083,0.071 c 0.207,0.246 0.474,0.439 0.797,0.579 0.322,0.139 0.672,0.21 1.049,0.21 0.705,0 1.212,-0.242 1.524,-0.726 0.318,-0.484 0.475,-1.292 0.475,-2.423 v -11.351 z"
   id="path10"
   style="fill:#49318d;fill-opacity:1" />
	<path
   fill="#a54686"
   d="m 354.901,425.005 h 3.546 l -1.74,-6.462 z m -3.614,5.524 V 429.8 c 0.387,-0.015 0.723,-0.191 1.013,-0.528 0.286,-0.338 0.529,-0.844 0.728,-1.526 l 3.923,-13.854 h 1.796 l 3.9,14.156 c 0.18,0.629 0.391,1.074 0.64,1.338 0.244,0.261 0.575,0.399 0.99,0.414 v 0.729 h -5.949 V 429.8 c 0.396,-0.015 0.682,-0.08 0.861,-0.195 0.184,-0.118 0.271,-0.299 0.271,-0.544 0,-0.115 -0.01,-0.241 -0.032,-0.384 -0.023,-0.142 -0.056,-0.291 -0.102,-0.448 l -0.635,-2.259 h -4.062 l -0.553,1.99 c -0.027,0.111 -0.046,0.223 -0.06,0.333 -0.014,0.115 -0.023,0.23 -0.023,0.35 0,0.383 0.115,0.663 0.346,0.844 0.23,0.18 0.604,0.283 1.114,0.313 v 0.729 z"
   id="path12"
   style="fill:#49318d;fill-opacity:1" />
	<path
   fill="#a54686"
   d="m 337.618,430.33 v -0.987 c 0.548,-0.06 0.927,-0.193 1.142,-0.406 0.217,-0.214 0.327,-0.571 0.327,-1.077 v -16.396 c 0,-0.516 -0.11,-0.883 -0.327,-1.105 -0.215,-0.224 -0.594,-0.362 -1.142,-0.422 v -0.973 h 7 c 2.437,0 4.337,0.432 5.7,1.3 1.37,0.868 2.052,2.069 2.052,3.597 0,1.364 -0.536,2.505 -1.603,3.423 -1.073,0.913 -2.6,1.543 -4.581,1.881 2.232,0.313 3.94,0.933 5.117,1.86 1.178,0.933 1.767,2.118 1.767,3.562 0,1.86 -0.7,3.284 -2.099,4.271 -1.405,0.982 -3.428,1.474 -6.08,1.474 h -7.273 z m 5.841,-10.685 v 8.125 c 0,0.596 0.104,1.003 0.309,1.23 0.204,0.229 0.554,0.343 1.055,0.343 1.137,0 1.981,-0.353 2.535,-1.062 0.554,-0.71 0.828,-1.801 0.828,-3.284 0,-1.9 -0.367,-3.265 -1.107,-4.093 -0.741,-0.834 -1.948,-1.25 -3.62,-1.259 z m 0,-0.934 h 0.425 c 1.329,0 2.291,-0.342 2.885,-1.021 0.589,-0.685 0.887,-1.811 0.887,-3.379 0,-1.696 -0.228,-2.848 -0.677,-3.457 -0.448,-0.61 -1.247,-0.918 -2.396,-0.918 -0.454,0 -0.758,0.069 -0.903,0.208 -0.146,0.145 -0.221,0.432 -0.221,0.868 z"
   id="path14"
   style="fill:#49318d;fill-opacity:1" />
	<path
   fill="#a54686"
   d="m 319.039,430.367 v -0.74 c 0.452,-0.045 0.764,-0.146 0.941,-0.306 0.179,-0.16 0.27,-0.428 0.27,-0.808 v -12.301 c 0,-0.387 -0.091,-0.662 -0.27,-0.83 -0.178,-0.167 -0.489,-0.271 -0.941,-0.315 v -0.73 h 6.349 l -0.015,0.73 c -0.563,0.037 -0.956,0.138 -1.183,0.301 -0.226,0.164 -0.336,0.443 -0.336,0.845 v 12.409 c 0,0.379 0.082,0.64 0.245,0.785 0.163,0.145 0.451,0.22 0.851,0.22 0.995,0 1.874,-0.368 2.634,-1.105 0.759,-0.741 1.441,-1.88 2.042,-3.42 h 0.86 l -0.336,5.266 h -11.111 z"
   id="path16"
   style="fill:#49318d;fill-opacity:1" />
	<path
   fill="#a54686"
   d="m 306.72,430.367 v -0.74 c 0.469,-0.045 0.792,-0.146 0.977,-0.306 0.185,-0.16 0.279,-0.428 0.279,-0.808 v -12.301 c 0,-0.249 -0.029,-0.436 -0.09,-0.562 -0.055,-0.127 -0.154,-0.238 -0.289,-0.335 -0.1,-0.071 -0.219,-0.127 -0.363,-0.168 -0.149,-0.041 -0.319,-0.066 -0.514,-0.081 v -0.73 h 11.462 l 0.09,4.646 h -0.962 c -0.389,-1.366 -0.938,-2.359 -1.635,-2.981 -0.703,-0.622 -1.625,-0.934 -2.766,-0.934 -0.474,0 -0.793,0.066 -0.957,0.2 -0.159,0.134 -0.239,0.45 -0.239,0.945 v 5.42 c 0.768,-0.061 1.396,-0.324 1.869,-0.801 0.479,-0.477 0.807,-1.169 0.981,-2.077 h 0.977 v 6.9 h -0.977 c -0.114,-0.952 -0.424,-1.708 -0.922,-2.273 -0.498,-0.563 -1.142,-0.887 -1.929,-0.964 v 6.204 c 0,0.379 0.085,0.64 0.254,0.785 0.17,0.146 0.469,0.22 0.888,0.22 1.057,0 1.968,-0.365 2.735,-1.095 0.763,-0.732 1.4,-1.846 1.919,-3.342 h 0.937 l -0.114,5.177 H 306.72 Z"
   id="path18"
   style="fill:#49318d;fill-opacity:1" />
	<path
   fill="#a54686"
   d="m 298.179,428.428 c 0,0.507 0.08,0.834 0.241,0.979 0.165,0.146 0.466,0.22 0.901,0.22 1.208,0 2.044,-0.469 2.51,-1.407 0.471,-0.938 0.706,-3.037 0.706,-6.294 0,-2.661 -0.235,-4.47 -0.706,-5.426 -0.466,-0.957 -1.272,-1.433 -2.419,-1.433 -0.461,0 -0.782,0.089 -0.961,0.268 -0.181,0.179 -0.271,0.499 -0.271,0.964 v 12.129 z m -5.019,1.939 v -0.74 c 0.471,-0.045 0.796,-0.146 0.982,-0.306 0.185,-0.16 0.281,-0.428 0.281,-0.808 v -12.301 c 0,-0.387 -0.096,-0.662 -0.286,-0.83 -0.19,-0.167 -0.516,-0.271 -0.977,-0.315 v -0.73 h 4.684 c 1.337,0 2.409,0.086 3.206,0.257 0.797,0.171 1.523,0.454 2.179,0.856 1.122,0.696 1.989,1.638 2.59,2.817 0.602,1.184 0.901,2.535 0.901,4.064 0,2.557 -0.736,4.537 -2.214,5.937 -1.478,1.4 -3.557,2.099 -6.236,2.099 z"
   id="path20"
   style="fill:#49318d;fill-opacity:1" />
	<path
   fill="#a54686"
   d="m 284.753,422.577 c 0,1.45 -0.279,2.771 -0.842,3.959 -0.558,1.191 -1.374,2.193 -2.441,3.008 -0.526,0.407 -1.111,0.718 -1.76,0.939 -0.655,0.219 -1.32,0.329 -2.001,0.329 -0.676,0 -1.347,-0.11 -2.001,-0.329 -0.655,-0.222 -1.245,-0.532 -1.771,-0.939 -1.079,-0.836 -1.894,-1.847 -2.452,-3.023 -0.552,-1.176 -0.831,-2.493 -0.831,-3.943 0,-1.454 0.279,-2.771 0.831,-3.952 0.558,-1.184 1.374,-2.19 2.452,-3.019 0.526,-0.403 1.111,-0.714 1.754,-0.929 0.645,-0.211 1.32,-0.318 2.018,-0.318 0.692,0 1.363,0.107 2.012,0.318 0.654,0.215 1.234,0.525 1.749,0.929 1.079,0.817 1.894,1.816 2.452,2.997 0.552,1.179 0.831,2.503 0.831,3.973 z m -7.04,-7.504 c -0.955,0 -1.625,0.525 -2.006,1.576 -0.381,1.051 -0.574,3.041 -0.574,5.968 0,2.842 0.193,4.788 0.58,5.839 0.391,1.051 1.057,1.576 2.001,1.576 0.939,0 1.604,-0.525 1.996,-1.576 0.387,-1.051 0.579,-2.997 0.579,-5.839 0,-2.927 -0.192,-4.917 -0.579,-5.968 -0.392,-1.05 -1.058,-1.576 -1.997,-1.576 z"
   id="path22"
   style="fill:#49318d;fill-opacity:1" />
	<path
   fill="#a54686"
   d="m 269.009,425.566 h 1.199 v 0.337 c 0,1.631 -0.465,2.859 -1.395,3.678 -0.93,0.821 -2.324,1.231 -4.184,1.231 -2.251,0 -4.016,-0.702 -5.282,-2.108 -1.271,-1.406 -1.904,-3.367 -1.904,-5.891 0,-2.557 0.661,-4.61 1.983,-6.156 1.327,-1.547 3.047,-2.32 5.169,-2.32 0.459,0 0.902,0.052 1.328,0.156 0.431,0.106 0.851,0.266 1.266,0.484 h 0.571 l 1.036,-0.618 h 1.081 l 0.067,5.235 h -1.249 c -0.532,-1.495 -1.126,-2.623 -1.77,-3.382 -0.644,-0.759 -1.338,-1.14 -2.083,-1.14 -0.986,0 -1.686,0.573 -2.101,1.717 -0.414,1.147 -0.622,3.16 -0.622,6.042 0,2.598 0.252,4.41 0.762,5.442 0.51,1.032 1.367,1.551 2.571,1.551 1.115,0 1.983,-0.355 2.616,-1.063 0.627,-0.706 0.941,-1.705 0.941,-2.989 z"
   id="path24"
   style="fill:#49318d;fill-opacity:1" />
	<path
   fill="#a54686"
   d="m 246.697,417.793 v 10.104 c 0,0.703 0.127,1.184 0.382,1.442 0.254,0.263 0.697,0.426 1.333,0.5 v 0.703 h -4.696 v -0.714 c 0.626,-0.067 1.058,-0.227 1.303,-0.481 0.244,-0.259 0.366,-0.74 0.366,-1.45 v -11.481 c 0,-0.381 -0.112,-0.647 -0.341,-0.791 -0.229,-0.145 -0.697,-0.24 -1.404,-0.293 v -0.725 h 5.236 l 6.064,10.093 v -7.459 c 0,-0.703 -0.117,-1.176 -0.356,-1.428 -0.239,-0.248 -0.676,-0.407 -1.313,-0.481 v -0.725 h 4.696 v 0.725 c -0.646,0.074 -1.094,0.237 -1.344,0.492 -0.249,0.26 -0.371,0.729 -0.371,1.417 v 13.571 h -1.699 z"
   id="path26"
   style="fill:#49318d;fill-opacity:1" />
	<path
   fill="#a54686"
   d="m 234.128,425.211 h 3.92 l -1.924,-6.234 z m -3.995,5.332 v -0.703 c 0.427,-0.015 0.799,-0.186 1.12,-0.511 0.315,-0.325 0.585,-0.814 0.804,-1.473 l 4.337,-13.367 h 1.985 l 4.313,13.659 c 0.198,0.607 0.433,1.036 0.708,1.292 0.27,0.251 0.636,0.385 1.094,0.399 v 0.703 h -6.577 v -0.703 c 0.438,-0.015 0.754,-0.078 0.952,-0.188 0.204,-0.115 0.3,-0.289 0.3,-0.525 0,-0.111 -0.01,-0.233 -0.036,-0.37 -0.025,-0.138 -0.061,-0.281 -0.112,-0.434 l -0.703,-2.179 h -4.49 l -0.611,1.92 c -0.03,0.107 -0.05,0.215 -0.066,0.322 -0.016,0.11 -0.026,0.222 -0.026,0.337 0,0.369 0.127,0.64 0.382,0.813 0.255,0.174 0.667,0.273 1.232,0.304 v 0.703 h -4.606 z"
   id="path28"
   style="fill:#49318d;fill-opacity:1" />
	<path
   fill="#a54686"
   d="m 217.504,430.448 v -1.009 c 0.529,-0.061 0.895,-0.197 1.104,-0.415 0.208,-0.219 0.315,-0.584 0.315,-1.101 v -16.759 c 0,-0.527 -0.107,-0.902 -0.315,-1.131 -0.208,-0.228 -0.575,-0.37 -1.104,-0.431 v -0.994 h 6.76 c 2.353,0 4.188,0.441 5.505,1.329 1.322,0.887 1.981,2.114 1.981,3.676 0,1.395 -0.518,2.561 -1.548,3.499 -1.036,0.933 -2.511,1.576 -4.424,1.922 2.156,0.319 3.805,0.953 4.942,1.901 1.137,0.953 1.706,2.165 1.706,3.641 0,1.901 -0.675,3.356 -2.026,4.365 -1.356,1.005 -3.31,1.506 -5.871,1.506 h -7.025 z m 5.64,-10.922 v 8.306 c 0,0.608 0.102,1.024 0.299,1.258 0.197,0.233 0.534,0.35 1.019,0.35 1.098,0 1.914,-0.359 2.449,-1.085 0.534,-0.725 0.799,-1.841 0.799,-3.356 0,-1.941 -0.354,-3.337 -1.069,-4.184 -0.717,-0.852 -1.882,-1.278 -3.497,-1.289 z m 0,-0.953 h 0.411 c 1.283,0 2.212,-0.35 2.786,-1.044 0.569,-0.7 0.855,-1.852 0.855,-3.453 0,-1.734 -0.219,-2.911 -0.653,-3.535 -0.433,-0.623 -1.205,-0.938 -2.313,-0.938 -0.439,0 -0.731,0.071 -0.873,0.213 -0.14,0.147 -0.214,0.441 -0.214,0.888 v 7.869 z"
   id="path30"
   style="fill:#49318d;fill-opacity:1" />
</g>
<path
   fill="#ed1c24"
   d="M 380.9914,227.3029 V 47.7768 c 0,-10.1737 1.9839,-16.8869 5.7904,-20.2435 3.818,-3.2297 11.7539,-4.8561 23.6577,-4.8561 30.0479,0 50.9603,7.1746 62.7142,21.3969 11.7539,14.2338 17.6827,41.0751 17.6827,80.6276 0,36.542 -7.7744,62.8065 -23.1848,78.7705 -15.5718,15.8487 -40.7405,23.8307 -75.5292,23.8307 z m 0,21.743 c 43.7858,0.2307 75.3677,9.9429 94.7461,29.3789 19.3783,19.3206 28.9867,51.1218 28.9867,95.4266 0,34.5926 -7.1746,60.0382 -21.6622,76.5674 -14.4991,16.5523 -36.6111,24.7535 -66.3707,24.7535 -13.1265,0 -22.2736,-2.6645 -27.6141,-7.982 -5.3521,-5.3175 -8.0858,-14.7991 -8.0858,-28.6869 z m -127.6893,-21.743 h -11.131 c -34.7886,0 -59.9574,-7.982 -75.5176,-23.8307 -15.4104,-15.964 -23.1849,-42.2285 -23.1849,-78.7705 0,-39.564 5.952,-66.3938 17.6943,-80.6276 11.7423,-14.2223 32.6548,-21.3969 62.7142,-21.3969 11.9038,0 19.8282,1.6264 23.6462,4.8561 3.8065,3.3566 5.7904,10.0698 5.7904,20.2435 v 179.5261 z m 0,21.743 V 438.515 c 0,13.8878 -2.7452,23.3693 -8.0858,28.6868 -5.3405,5.3175 -14.4876,7.982 -27.6141,7.982 -29.7595,0 -51.883,-8.2127 -66.3707,-24.7535 -14.4876,-16.5407 -21.6621,-41.9863 -21.6621,-76.5674 0,-44.3048 9.6084,-76.1175 28.9866,-95.4266 19.3784,-19.4475 50.9604,-29.1597 94.7461,-29.3904 z M 406.1716,0 H 228.1219 222.9428 C 159.1674,0 109.4529,6.6671 73.7298,26.8759 37.9261,47.1423 19.1591,76.8442 20.0242,112.4519 21.7083,181.1987 45.2506,206.2175 118.5537,231.0171 34.2004,249.1727 0,285.4494 0,364.243 c 0,43.382 19.9666,76.6481 56.647,99.5907 36.6918,22.9656 89.7054,34.3618 159.1212,34.3618 h 12.3422 178.0497 12.3421 c 69.4275,0 122.4295,-11.3847 159.1329,-34.3618 36.6803,-22.9426 56.6469,-56.2087 56.6469,-99.5907 0,-78.8051 -34.2004,-115.0703 -118.5652,-133.2259 73.3146,-24.7996 96.8453,-49.8184 98.5409,-118.5652 C 615.1229,76.8442 596.3559,47.1423 560.5522,26.8759 524.8292,6.6671 475.1262,0 411.3392,0 Z"
   id="path4-3"
   style="fill:#bf0411;fill-opacity:1;stroke-width:11.5347" /><path
   fill="#a54686"
   d="m 1238.696,214.91538 v 161.32726 c 0,11.2246 2.0277,18.90459 6.0992,23.02399 4.0556,4.19919 11.1289,6.80179 21.2837,7.98329 v 11.22459 h -74.9795 v -11.40019 c 9.995,-1.0698 16.8926,-3.6244 20.8044,-7.67999 3.896,-4.1354 5.8438,-11.81529 5.8438,-23.15169 V 192.9293 c 0,-6.0833 -1.7882,-10.33049 -5.4446,-12.62969 -3.6563,-2.3151 -11.1287,-3.832 -22.4172,-4.6782 v -11.57589 h 83.6016 l 96.8219,161.15167 v -119.0954 c 0,-11.2246 -1.8681,-18.77679 -5.6842,-22.80039 -3.816,-3.95979 -10.7935,-6.49849 -20.9643,-7.67999 v -11.57589 h 74.9797 v 11.57589 c -10.3145,1.1815 -17.4676,3.7841 -21.4593,7.85559 -3.9757,4.1513 -5.9237,11.63969 -5.9237,22.62479 v 216.68372 h -27.1273 z"
   id="path26-5"
   style="fill:#4e0ca5;fill-opacity:1;stroke-width:15.9667" /><path
   fill="#a54686"
   d="m 1038.0109,333.35618 h 62.5893 l -30.7198,-99.53622 z m -63.78697,85.13433 v -11.22459 c 6.8179,-0.2395 12.75739,-2.9698 17.88269,-8.15899 5.02959,-5.1891 9.34048,-12.99689 12.83728,-23.51888 l 69.2474,-213.42653 h 31.6939 l 68.8642,218.08882 c 3.1615,9.69169 6.9137,16.54149 11.3045,20.62888 4.311,4.0077 10.1547,6.1472 17.4675,6.3707 v 11.22459 h -105.0128 v -11.22459 c 6.9933,-0.2395 12.0388,-1.2454 15.2002,-3.0017 3.2572,-1.8362 4.79,-4.61439 4.79,-8.38249 0,-1.7723 -0.1596,-3.7203 -0.5748,-5.9077 -0.3991,-2.2034 -0.9739,-4.48659 -1.7882,-6.92949 l -11.2246,-34.79137 h -71.6903 l -9.7557,30.65597 c -0.4789,1.7084 -0.7984,3.4328 -1.0538,5.1413 -0.2555,1.7563 -0.4151,3.5446 -0.4151,5.38069 0,5.8918 2.0278,10.2187 6.0993,12.98099 4.0714,2.7782 10.6497,4.3589 19.6709,4.8538 v 11.22459 h -73.54257 z"
   id="path28-6"
   style="fill:#4e0ca5;fill-opacity:1;stroke-width:15.9667" /><path
   fill="#a54686"
   d="m 772.5808,416.97371 v -16.11039 c 8.44639,-0.974 14.29019,-3.14549 17.62729,-6.62619 3.32099,-3.4967 5.02949,-9.32459 5.02949,-17.57929 V 109.07227 c 0,-8.4144 -1.7085,-14.401892 -5.02949,-18.058289 -3.3211,-3.640397 -9.1809,-5.907695 -17.62729,-6.881594 V 68.2615 h 107.93481 c 37.56957,0 66.86835,7.041294 87.89653,21.219682 21.10788,14.162388 31.62986,33.753568 31.62986,58.693548 0,22.27349 -8.27068,40.89057 -24.71637,55.86736 -16.54148,14.89689 -40.09226,25.16348 -70.63654,30.68797 34.42407,5.0933 60.75325,15.21619 78.90733,30.35258 18.15418,15.21628 27.23908,34.56787 27.23908,58.13465 0,30.35267 -10.7775,53.58425 -32.34847,69.69464 -21.65078,16.04649 -52.84966,24.04578 -93.74032,24.04578 H 772.5808 Z m 90.05203,-174.38805 v 132.61919 c 0,9.70769 1.62869,16.34988 4.77399,20.08608 3.1455,3.7202 8.52619,5.58829 16.27009,5.58829 17.53148,0 30.56027,-5.73199 39.10247,-17.32378 8.52619,-11.57589 12.75728,-29.39468 12.75728,-53.58416 0,-30.99137 -5.65219,-53.28085 -17.06828,-66.80464 -11.44819,-13.60359 -30.04928,-20.40538 -55.83555,-20.58098 z m 0,-15.21629 h 6.56239 c 20.48518,0 35.31827,-5.5883 44.48316,-16.66919 9.085,-11.17669 13.65149,-29.57027 13.65149,-55.13295 0,-27.68618 -3.4967,-46.47896 -10.42619,-56.442156 -6.91369,-9.947291 -19.23988,-14.976787 -36.93097,-14.976787 -7.00939,0 -11.67169,1.133699 -13.93899,3.400897 -2.2353,2.347098 -3.41689,7.041294 -3.41689,14.178386 v 125.6418 z"
   id="path30-7"
   style="fill:#4e0ca5;fill-opacity:1;stroke-width:15.9667" /><path
   fill="#a54686"
   d="m 2334.7689,286.37832 c 0,24.38298 -4.6236,46.59206 -13.9516,66.56244 -9.2309,20.01899 -22.7446,36.87457 -40.4437,50.56666 -8.6954,6.846 -18.3967,12.06979 -29.1362,15.80109 -10.8531,3.6826 -21.8685,5.53199 -33.1595,5.53199 -11.1939,0 -22.3065,-1.84939 -33.1433,-5.53199 -10.8532,-3.7151 -20.6193,-8.95509 -29.3471,-15.80109 -17.8615,-14.04899 -31.3752,-31.03437 -40.6059,-50.82626 -9.1497,-19.79188 -13.7895,-41.91986 -13.7895,-66.30284 0,-24.46408 4.6234,-46.59206 13.7895,-66.44885 9.2307,-19.92168 22.7444,-36.82587 40.6059,-50.76135 8.7115,-6.7811 18.4127,-12.00489 29.0712,-15.62259 10.6584,-3.5366 21.8684,-5.3373 33.4192,-5.3373 11.4695,0 22.5821,1.8007 33.3379,5.3373 10.8369,3.6177 20.4408,8.84149 28.9578,15.62259 17.8776,13.75698 31.3913,30.54767 40.6221,50.38825 9.1496,19.85679 13.7732,42.11457 13.7732,66.82195 z m -116.61,-126.149 c -15.8335,0 -26.93,8.8253 -33.2406,26.49198 -6.327,17.66669 -9.523,51.13446 -9.523,100.33842 0,47.77636 3.196,80.49783 9.6041,98.18072 6.489,17.65048 17.5045,26.49198 33.1595,26.49198 15.5416,0 26.573,-8.8415 33.0623,-26.49198 6.4079,-17.68289 9.5876,-50.38816 9.5876,-98.18072 0,-49.18776 -3.1797,-82.67173 -9.5876,-100.33842 -6.4893,-17.66668 -17.5207,-26.49198 -33.0623,-26.49198 z"
   id="path6-5"
   style="fill:#4e0ca5;fill-opacity:1;stroke-width:16.2229" /><path
   fill="#a54686"
   d="m 2072.4777,385.14314 c 0,6.47289 1.3464,10.96669 4.0394,13.56229 2.693,2.62809 7.4787,4.29909 14.3411,5.04529 v 12.39429 h -93.2166 v -12.39429 c 7.0245,-0.7462 11.8751,-2.4009 14.633,-5.07769 2.7742,-2.6768 4.1855,-7.1543 4.1855,-13.51369 V 179.56701 c 0,-6.4567 -1.4113,-11.06399 -4.1855,-13.85429 -2.7579,-2.8066 -7.6247,-4.5424 -14.633,-5.2887 v -12.18339 h 93.2166 v 12.18339 c -6.8624,0.7463 -11.6481,2.4821 -14.3411,5.2238 -2.693,2.6768 -4.0394,7.34889 -4.0394,13.91919 z"
   id="path8-7"
   style="fill:#4e0ca5;fill-opacity:1;stroke-width:16.2229" /><path
   fill="#a54686"
   d="m 1924.6062,179.27501 c 0,-6.8785 -1.7196,-11.69669 -5.2238,-14.40589 -3.5203,-2.693 -9.8472,-4.0557 -19.0617,-4.0557 v -12.58899 h 97.5642 v 12.58899 c -6.4242,0 -10.9017,1.3627 -13.4326,3.9908 -2.547,2.6443 -3.8123,7.33269 -3.8123,14.08149 v 175.28795 c 0,13.30279 -0.9734,23.66918 -2.839,31.13168 -1.8656,7.39769 -5.0129,13.69209 -9.4093,19.02948 -6.4243,7.91669 -15.3955,14.16249 -26.8975,18.72119 -11.5831,4.55859 -24.1882,6.87849 -38.0912,6.87849 -18.6726,0 -34.0681,-4.3802 -46.2515,-13.12429 -12.167,-8.67929 -18.2994,-19.54858 -18.2994,-32.47817 0,-9.32819 2.8391,-16.59599 8.5171,-21.88468 5.7428,-5.2724 13.5136,-7.9005 23.4421,-7.9005 8.452,0 15.3793,2.2549 20.6841,6.6838 5.3049,4.42879 7.9978,10.23659 7.9978,17.24488 0,6.8298 -2.7741,12.42669 -8.225,16.92049 -5.4508,4.42879 -12.3293,6.68379 -20.5543,6.68379 -1.2654,0 -3.277,-0.3731 -5.889,-1.1518 -0.7624,-0.2596 -1.1193,-0.3732 -1.2653,-0.3732 l -1.3465,1.1519 c 3.3582,3.9908 7.6896,7.1218 12.9297,9.393 5.2236,2.25499 10.9017,3.40679 17.0177,3.40679 11.4372,0 19.6622,-3.92589 24.7237,-11.77779 5.1587,-7.85189 7.7057,-20.95988 7.7057,-39.30796 V 179.27501 Z"
   id="path10-4"
   style="fill:#4e0ca5;fill-opacity:1;stroke-width:16.2229" /><path
   fill="#a54686"
   d="m 1712.6058,328.49288 h 57.5263 l -28.2277,-104.83211 z m -58.6294,89.61513 v -11.82649 c 6.2783,-0.2433 11.7291,-3.0986 16.4338,-8.56569 4.6398,-5.4833 8.5818,-13.69209 11.8102,-24.75608 l 63.6423,-224.75152 h 29.1363 l 63.2692,229.65081 c 2.92,10.20419 6.3431,17.42339 10.3826,21.70619 3.9583,4.23419 9.3281,6.47299 16.0607,6.71629 v 11.82649 h -96.5098 v -11.82649 c 6.4241,-0.2433 11.0639,-1.2978 13.9678,-3.1634 2.985,-1.9143 4.3964,-4.85069 4.3964,-8.82529 0,-1.8656 -0.1622,-3.9097 -0.5191,-6.2296 -0.3732,-2.30359 -0.9084,-4.72079 -1.6548,-7.26779 l -10.3015,-36.64747 h -65.8973 l -8.9713,32.28347 c -0.438,1.8008 -0.7462,3.6177 -0.9734,5.4022 -0.227,1.8657 -0.373,3.7313 -0.373,5.678 0,6.21339 1.8656,10.75579 5.613,13.69218 3.7313,2.9201 9.7987,4.591 18.0724,5.0777 v 11.82649 z"
   id="path12-4"
   style="fill:#4e0ca5;fill-opacity:1;stroke-width:16.2229" /><path
   fill="#a54686"
   d="m 1432.2261,414.87961 v -16.01188 c 8.8901,-0.9734 15.0386,-3.1311 18.5265,-6.5865 3.5203,-3.4717 5.3049,-9.26329 5.3049,-17.47208 V 108.81907 c 0,-8.371 -1.7846,-14.324792 -5.3049,-17.926189 -3.4879,-3.633997 -9.6364,-5.872695 -18.5265,-6.846094 V 68.262 h 113.5601 c 39.5351,0 70.3585,7.008194 92.4703,21.089683 22.2252,14.081387 33.2893,33.565067 33.2893,58.353647 0,22.12799 -8.6954,40.63827 -26.0053,55.53086 -17.4071,14.81149 -42.1794,25.03188 -74.3169,30.51517 36.2093,5.0778 63.918,15.13599 83.0124,30.17458 19.1106,15.13589 28.6657,34.35997 28.6657,57.78585 0,30.17447 -11.3559,53.27586 -34.0517,69.28784 -22.7931,15.93079 -55.612,23.91248 -98.6349,23.91248 h -117.989 z m 94.7577,-173.34125 v 131.81079 c 0,9.66879 1.6872,16.27148 5.013,19.95408 3.3094,3.7151 8.9874,5.5645 17.115,5.5645 18.4453,0 32.1375,-5.7267 41.125,-17.22869 8.9874,-11.51829 13.4325,-29.21738 13.4325,-53.27596 0,-30.82337 -5.9539,-52.96765 -17.9587,-66.40014 -12.0212,-13.52989 -31.6021,-20.27858 -58.7268,-20.42458 z m 0,-15.15219 h 6.8947 c 21.5603,0 37.1665,-5.5482 46.803,-16.56349 9.5553,-11.11269 14.3897,-29.37967 14.3897,-54.81705 0,-27.51398 -3.6989,-46.20276 -10.9828,-56.082455 -7.2679,-9.895992 -20.23,-14.892588 -38.87,-14.892588 -7.3653,0 -12.297,1.119399 -14.6493,3.374397 -2.3685,2.352298 -3.5853,7.008194 -3.5853,14.081386 z"
   id="path14-0"
   style="fill:#4e0ca5;fill-opacity:1;stroke-width:16.2229" /></svg>
