<?xml version="1.0" encoding="UTF-8" standalone="no"?>
<svg
   viewBox="0 0 600.22496 68.227569"
   height="68.22757"
   width="600.22504"
   xml:space="preserve"
   id="svg2"
   version="1.1"
   sodipodi:docname="banco-azteca.svg"
   inkscape:version="1.1 (c68e22c387, 2021-05-23)"
   xmlns:inkscape="http://www.inkscape.org/namespaces/inkscape"
   xmlns:sodipodi="http://sodipodi.sourceforge.net/DTD/sodipodi-0.dtd"
   xmlns="http://www.w3.org/2000/svg"
   xmlns:svg="http://www.w3.org/2000/svg"
   xmlns:rdf="http://www.w3.org/1999/02/22-rdf-syntax-ns#"
   xmlns:cc="http://creativecommons.org/ns#"
   xmlns:dc="http://purl.org/dc/elements/1.1/"><sodipodi:namedview
     id="namedview42"
     pagecolor="#ffffff"
     bordercolor="#666666"
     borderopacity="1.0"
     inkscape:pageshadow="2"
     inkscape:pageopacity="0.0"
     inkscape:pagecheckerboard="0"
     showgrid="false"
     inkscape:lockguides="false"
     fit-margin-top="0"
     fit-margin-left="0"
     fit-margin-right="0"
     fit-margin-bottom="0"
     inkscape:zoom="1.2501469"
     inkscape:cx="408.352"
     inkscape:cy="34.79591"
     inkscape:window-width="1920"
     inkscape:window-height="1017"
     inkscape:window-x="1912"
     inkscape:window-y="-8"
     inkscape:window-maximized="1"
     inkscape:current-layer="svg2" /><metadata
     id="metadata8"><rdf:RDF><cc:Work
         rdf:about=""><dc:format>image/svg+xml</dc:format><dc:type
           rdf:resource="http://purl.org/dc/dcmitype/StillImage" /></cc:Work></rdf:RDF></metadata><defs
     id="defs6" /><path
     id="path58-8"
     style="fill:#b8222d;fill-opacity:1;fill-rule:nonzero;stroke:none;stroke-width:0.317011"
     d="m 58.942922,23.671946 c -10.618647,0 -19.243608,8.61736 -19.243608,19.248705 0,10.637041 8.624961,19.249638 19.243608,19.249638 10.64085,0 19.255993,-8.612597 19.255993,-19.249638 0,-10.631345 -8.615143,-19.248705 -19.255993,-19.248705" /><path
     id="path60-0"
     style="fill:#24633c;fill-opacity:1;fill-rule:nonzero;stroke:none;stroke-width:0.317011"
     d="m 68.958632,4.2127599 c 0,0 -0.468242,-0.1462133 -1.288037,-0.3702533 C 72.118598,2.5174 77.707228,1.0759333 83.901315,0 75.214559,0 67.827848,0.43334666 61.562079,1.4030933 60.661779,1.5455067 59.787442,1.69412 58.946725,1.8488267 58.106959,1.6940267 57.231386,1.54544 56.330111,1.4030933 50.064033,0.43334666 42.68367,0 33.996584,0 40.191952,1.0759333 45.7793,2.5174 50.227611,3.8386933 49.401491,4.0667066 48.931038,4.2127599 48.931038,4.2127599 20.180524,13.219106 -1.4765075,32.908759 0.07877248,49.050076 1.3702818,62.448945 15.027803,69.241254 37.290645,66.922934 24.910985,64.681646 19.834038,58.418113 18.917547,48.93246 17.513196,34.406959 33.981985,17.23248 57.362629,7.3543865 c 0,0 0.575997,-0.23396 1.590134,-0.6128133 1.009362,0.3788533 1.586332,0.6128133 1.586332,0.6128133 C 83.917481,17.23248 100.37488,34.406959 98.98192,48.93246 c -0.910453,9.485653 -5.997244,15.749186 -18.37436,17.990474 22.25873,2.31832 35.9299,-4.473989 37.21157,-17.872858 C 119.37726,32.908759 97.714828,13.219106 68.958632,4.2127599" /><path
     id="path62-4"
     style="fill:#78787b;fill-opacity:1;fill-rule:nonzero;stroke:none;stroke-width:0.549001"
     d="m 167.07743,41.614144 v -0.150413 c 7.8919,-0.932757 13.12456,-5.961619 13.12456,-12.695686 0,-9.468096 -8.96847,-11.473057 -14.13252,-11.473057 h -22.2389 l -10.47607,50.064318 22.81581,-0.278799 c 11.4797,-0.139382 20.58758,-5.16809 20.58758,-15.783605 0,-5.522418 -3.93957,-8.825213 -9.68046,-9.682758 m -14.92599,16.276827 h -3.58571 l 2.43831,-11.762377 h 3.22755 c 6.02614,0 9.18508,0.653861 9.18508,5.028862 0,4.868008 -4.52498,6.733515 -11.26523,6.733515 m 5.81167,-20.801704 h -5.02035 l 2.15311,-10.326189 h 3.44626 c 5.0182,0 8.31872,0.643429 8.31872,4.664325 0,3.442246 -3.30052,5.661864 -8.89774,5.661864" /><path
     id="path64-9"
     style="fill:#78787b;fill-opacity:1;fill-rule:nonzero;stroke:none;stroke-width:0.548998"
     d="m 203.15489,29.12208 c -5.81168,0 -9.89737,0.857541 -13.70358,2.155376 l -1.28905,9.403823 c 4.30635,-2.230592 7.4697,-2.948685 12.12301,-2.948685 4.23556,0 6.8883,2.165807 6.8883,4.814181 0,0.503983 0,0.996989 -0.13956,1.500971 -1.79911,-0.149865 -4.37939,-0.35357 -6.95915,-0.35357 -11.40655,0 -20.60236,4.514425 -20.60236,13.703584 0,7.237469 4.45631,10.829794 12.48981,10.829794 5.02005,0 9.83037,-1.790671 12.55838,-6.101257 v -0.139445 l 0.14631,0.139445 -0.57483,5.243445 h 10.54029 c 1.43669,-11.269267 4.74388,-19.665122 4.74388,-25.541619 0,-9.178182 -7.32363,-12.706053 -16.2213,-12.706053 m -7.09857,30.495297 c -2.73014,0 -4.37715,-2.015926 -4.37715,-3.73155 0,-3.291807 4.51444,-5.511409 10.68627,-5.307734 0.78945,0 2.37004,0 3.44224,0.214641 -0.92674,5.02884 -4.22898,8.824625 -9.75136,8.824625" /><path
     id="path66-4"
     style="fill:#78787b;fill-opacity:1;fill-rule:nonzero;stroke:none;stroke-width:0.548998"
     d="m 253.80835,29.12208 c -6.82568,0 -10.69231,2.798805 -14.42165,6.959127 h -0.14632 l 1.00797,-6.090605 H 228.267 c -0.36027,3.367014 -0.93278,6.530354 -1.58275,9.757375 l -5.80733,27.621779 h 12.90589 l 3.66457,-17.22043 c 0.9311,-5.522389 4.15867,-10.261903 9.61408,-10.261903 3.59209,-0.139444 5.01841,2.080159 5.01841,4.299765 0,1.941266 -0.50178,3.806767 -0.86193,5.672266 l -3.58387,17.510302 h 13.33908 l 3.44387,-17.435087 c 0.79384,-3.945665 1.00795,-5.382942 1.00795,-7.891875 0,-7.323655 -4.08514,-12.920714 -11.61687,-12.920714" /><path
     id="path68-6"
     style="fill:#78787b;fill-opacity:1;fill-rule:nonzero;stroke:none;stroke-width:0.548998"
     d="m 293.47582,38.590135 c 2.86302,0 5.65961,0.793307 8.32064,2.015928 l 2.79662,-8.964071 c -3.80458,-1.587159 -8.61001,-2.509479 -11.7629,-2.509479 -14.34862,0 -24.11262,9.746946 -24.11262,22.024779 0,9.392839 6.7445,17.070274 17.65363,17.070274 5.02006,0 8.46669,-0.579031 11.04864,-1.436844 l 1.8655,-9.68227 c -2.80046,1.14686 -5.09526,1.650844 -8.31842,1.650844 -5.4598,0 -8.90205,-3.656343 -8.90205,-8.105987 0,-7.752428 4.73072,-12.063174 11.41096,-12.063174" /><path
     id="path70-9"
     style="fill:#78787b;fill-opacity:1;fill-rule:nonzero;stroke:none;stroke-width:0.548998"
     d="m 326.90496,29.12208 c -14.63852,0 -24.11096,8.89984 -24.11096,22.035212 0,9.392839 5.59705,17.070274 19.45109,17.070274 13.98188,0 24.09995,-6.819349 24.09995,-22.388986 0,-9.392838 -6.74446,-16.7165 -19.44008,-16.7165 m -3.72716,30.066532 c -4.37936,0.07465 -7.03431,-3.302785 -7.03431,-8.321193 0,-5.961588 3.87098,-12.695622 10.11587,-12.695622 5.01839,0 6.74005,3.656339 6.74005,7.516905 0,8.470521 -3.80017,13.49991 -9.82161,13.49991" /><path
     id="path72-8"
     style="fill:#78787b;fill-opacity:1;fill-rule:nonzero;stroke:none;stroke-width:0.549001"
     d="m 388.16474,17.283999 -29.77298,50.086 h 14.49749 l 5.94682,-10.701106 h 19.44458 l 1.36153,10.701106 h 13.48897 l -8.17466,-50.086 z m -4.08572,29.916797 10.61555,-19.579629 h 0.14358 l 2.15536,19.579629 h -12.91475" /><path
     id="path74-4"
     style="fill:#78787b;fill-opacity:1;fill-rule:nonzero;stroke:none;stroke-width:0.548998"
     d="m 420.58851,39.458649 h 15.9984 l -20.37284,18.142805 -1.86606,9.768302 h 32.50024 l 1.9413,-9.47898 h -17.07722 l 20.51887,-18.142799 1.99893,-9.757375 h -31.70091 l -1.94071,9.468047" /><path
     id="path76-9"
     style="fill:#78787b;fill-opacity:1;fill-rule:nonzero;stroke:none;stroke-width:0.548998"
     d="m 474.24942,39.029884 h 9.39939 l 1.57617,-9.039282 h -8.89543 l 2.58417,-11.698641 -13.63278,3.667318 -1.79745,8.031323 h -7.38785 l -1.58059,9.039282 h 6.89487 l -2.22616,10.476013 c -0.86194,3.945664 -1.15185,5.811715 -1.15185,7.677219 0,7.816935 5.24354,11.04445 11.84252,11.04445 2.57973,0 5.30335,-0.289502 8.03131,-0.718421 l 1.44332,-8.535192 c -1.36868,0.503981 -2.80538,1.072196 -4.17128,1.072196 -2.57978,0 -4.22456,-1.651389 -4.22456,-4.160322 0,-1.801265 0.49298,-3.667322 1.0656,-6.465572 l 2.2306,-10.390371" /><path
     id="path78-7"
     style="fill:#78787b;fill-opacity:1;fill-rule:nonzero;stroke:none;stroke-width:0.548998"
     d="m 506.32031,29.132513 c -16.65222,0 -22.38873,13.339054 -22.38873,22.024779 0,9.392839 6.74446,17.070274 19.22156,17.070274 3.73156,0 8.53532,-0.718421 13.06455,-2.080159 l 1.64704,-9.114168 c -3.59213,1.726057 -8.25205,2.584142 -11.69429,2.584142 -7.89184,0 -9.89683,-3.152359 -10.04725,-7.173783 h 26.4744 c 0.504,-2.219609 0.9328,-5.52184 0.9328,-7.033783 0,-11.334108 -7.38791,-16.277302 -17.21008,-16.277302 m -9.40326,15.998405 c 0.93274,-3.592105 3.94568,-7.398324 9.54272,-7.398324 4.73512,0 6.3113,3.37745 6.3113,7.398324 h -15.85402" /><path
     id="path80-9"
     style="fill:#78787b;fill-opacity:1;fill-rule:nonzero;stroke:none;stroke-width:0.548998"
     d="m 551.44153,38.590135 c 2.86304,0 5.66131,0.793307 8.32063,2.015928 l 2.79442,-8.964071 c -3.80239,-1.587159 -8.61051,-2.509479 -11.76287,-2.509479 -14.35306,0 -24.11096,9.746946 -24.11096,22.024779 0,9.392839 6.74446,17.070274 17.64979,17.070274 5.02444,0 8.4705,-0.579031 11.04424,-1.436844 l 1.87205,-9.68227 c -2.79878,1.14686 -5.09965,1.650844 -8.32062,1.650844 -5.45817,0 -8.9064,-3.656343 -8.9064,-8.105987 0,-7.752428 4.73947,-12.063174 11.41972,-12.063174" /><path
     id="path82-6"
     style="fill:#78787b;fill-opacity:1;fill-rule:nonzero;stroke:none;stroke-width:0.548998"
     d="m 584.00218,29.12208 c -5.81174,0 -9.89738,0.857541 -13.70357,2.155376 l -1.29348,9.403823 c 4.30637,-2.230592 7.46971,-2.948685 12.12742,-2.948685 4.2355,0 6.88391,2.165807 6.88391,4.814181 0,0.503983 0,0.996989 -0.13305,1.500971 -1.80128,-0.149865 -4.38158,-0.35357 -6.95915,-0.35357 -11.40875,0 -20.60448,4.514425 -20.60448,13.703584 0,7.237469 4.46058,10.829794 12.49193,10.829794 5.02441,0 9.82819,-1.790671 12.55615,-6.101257 v -0.139445 l 0.13957,0.139445 -0.57262,5.243445 h 10.54466 c 1.43673,-11.269267 4.74555,-19.665122 4.74555,-25.541619 0,-9.178182 -7.3231,-12.706053 -16.22295,-12.706053 m -7.09856,30.495297 c -2.73022,0 -4.38154,-2.015926 -4.38154,-3.73155 0,-3.291807 4.52535,-5.511409 10.69066,-5.307734 0.78944,0 2.36562,0 3.4422,0.214641 -0.92669,5.02884 -4.22948,8.824625 -9.75132,8.824625" /></svg>
