<?xml version="1.0" encoding="UTF-8" standalone="no"?>
<!-- Generator: Adobe Illustrator 16.0.3, SVG Export Plug-In . SVG Version: 6.00 Build 0)  -->

<svg
   version="1.1"
   id="Capa_1"
   x="0px"
   y="0px"
   width="1879.2012"
   height="720"
   viewBox="0 0 1879.2011 719.99999"
   enable-background="new 0 0 595.28 841.89"
   xml:space="preserve"
   sodipodi:docname="Logo de Banjercito.svg"
   inkscape:version="1.1 (c68e22c387, 2021-05-23)"
   xmlns:inkscape="http://www.inkscape.org/namespaces/inkscape"
   xmlns:sodipodi="http://sodipodi.sourceforge.net/DTD/sodipodi-0.dtd"
   xmlns="http://www.w3.org/2000/svg"
   xmlns:svg="http://www.w3.org/2000/svg"><defs
   id="defs49" /><sodipodi:namedview
   id="namedview47"
   pagecolor="#ffffff"
   bordercolor="#666666"
   borderopacity="1.0"
   inkscape:pageshadow="2"
   inkscape:pageopacity="0.0"
   inkscape:pagecheckerboard="0"
   showgrid="false"
   fit-margin-top="0"
   fit-margin-left="0"
   fit-margin-right="0"
   fit-margin-bottom="0"
   inkscape:zoom="0.34940006"
   inkscape:cx="860.04565"
   inkscape:cy="290.49795"
   inkscape:window-width="1920"
   inkscape:window-height="1017"
   inkscape:window-x="1912"
   inkscape:window-y="-8"
   inkscape:window-maximized="1"
   inkscape:current-layer="Capa_1" />
<g
   id="g44"
   transform="matrix(2.4411012,0,0,2.4411012,230.95485,-668.89835)">
	<g
   id="g42">
		
		<path
   fill-rule="evenodd"
   clip-rule="evenodd"
   fill="#528074"
   d="m -93.127,499.724 c 7.115,-53.005 32.832,-93.523 80.208,-119.506 10.341,-5.671 21.246,-10.084 32.94,-14.25 -8.838,-6.82 -14.902,-14.67 -16.228,-26.189 18.55,14.229 39.678,15.272 60.94,15.212 10.435,-0.03 20.466,0.804 30.342,4.684 8.53,3.351 17.535,5.387 26.89,3.27 7.749,-1.754 13.427,-7.516 14.724,-15.186 0.24,-1.42 1.346,-3.795 -1.467,-3.723 -2.07,0.054 -5.273,-2.002 -6.019,2.15 -0.175,0.976 -0.389,1.964 -0.747,2.884 -2.093,5.367 -7.409,8.943 -12.808,8.676 -5.924,-0.295 -11.592,-4.536 -12.263,-10.563 -0.485,-4.355 -2.555,-4.299 -5.792,-4.53 -18.608,-1.331 -37.354,-0.041 -55.874,-2.662 -20.328,-2.877 -38.167,-10.666 -50.518,-27.963 -7.908,-11.076 -11.766,-23.58 -12.244,-38.013 18.027,24.926 44.231,29.947 71.369,31.74 20.425,1.349 40.931,1.268 61.279,4.085 20.55,2.846 39.553,8.906 55.001,23.634 5.323,5.075 11.48,9.273 18.466,11.705 14.436,5.024 21.504,15.675 23.474,30.131 1.986,14.577 -0.373,28.539 -7.305,41.617 -0.601,1.134 -1.406,2.158 -2.13,3.252 -0.432,-0.344 -0.83,-0.502 -0.849,-0.697 -1.616,-17.205 -9.392,-25.852 -28.033,-28.175 -53.398,-6.654 -106.416,-5.128 -158.29,10.693 -28.626,8.73 -54.303,22.768 -74.744,45.24 -14.784,16.254 -24.551,35.107 -29.362,56.537 -2.455,-0.846 -1.099,-2.594 -0.96,-4.053 z"
   id="path4" />
		<path
   id="path6"
   d="m 28.076172,425.88867 c -9.362061,-0.0372 -18.7402345,0.3711 -28.0996095,0.1211 -3.083,-0.082 -2.7987188,2.05814 -3.1367187,3.99414 -5.3420001,30.653 -10.7144528,61.30017 -16.0644528,91.95117 -1.364,7.821 0.756187,10.38215 8.742187,10.41015 10.66000024,0.038 21.319516,-0.003 31.978516,-0.0547 9.065,-0.044 17.937531,-1.19491 26.269531,-5.04493 13.402,-6.18998 20.443734,-18.71212 18.052734,-32.32812 -1.705,-9.707 -8.031,-15.28956 -17.75,-18.22656 1.533,-0.657 2.377516,-1.03086 3.228516,-1.38086 13.418,-5.535 20.002156,-16.15969 18.160156,-29.30469 -1.519,-10.837 -10.027734,-17.83861 -24.552734,-19.34961 -5.5995,-0.58275 -11.210889,-0.76478 -16.828125,-0.78711 z M 26.25,446.38086 c 1.230174,-0.002 2.631422,0.0249 4.232422,0.0547 1.654,0.031 3.333125,0.079 4.953125,0.375 4.394,0.802 8.494562,2.12498 9.476562,7.33398 0.999,5.303 -1.57675,10.19903 -6.59375,12.70703 -4.649,2.322 -9.651296,2.06667 -13.279297,2.01367 -11.410999,-0.025 -11.410421,-0.0243 -9.607421,-10.11132 1.962625,-10.97775 2.207142,-12.35886 10.818359,-12.37305 z m -10.355469,39.93555 c 3.161104,-0.0828 6.920782,0.78476 10.113281,0.66601 1.804,-0.067 3.647547,0.20335 5.435547,0.52735 4.954,0.899 8.777485,3.22567 9.646485,8.63867 0.862,5.364 -1.63261,10.25503 -6.47461,12.95703 -5.618,3.137 -11.80289,3.03901 -17.96289,3.04101 -10.4140002,0.017 -10.4449846,0.0108 -8.7089846,-10.07421 0.84,-4.881 0.2471562,-11.39611 3.1601566,-14.16211 1.213875,-1.15275 2.894353,-1.54407 4.791015,-1.59375 z"
   style="fill:#00574f;fill-opacity:1" />
		<path
   id="path8"
   d="m 636.45508,455.37109 c -26.23338,0.0455 -44.80764,20.35043 -44.54102,46.36914 0.141,13.747 6.53752,23.81786 19.10352,29.00586 29.236,12.068 63.8185,-5.06142 64.1875,-41.35742 0.102,-16.089 -7.95699,-27.56523 -23.45899,-31.86523 -5.31234,-1.47344 -10.43298,-2.16076 -15.29101,-2.15235 z m -0.15625,19.76758 c 8.119,0.075 13.53456,4.53174 15.10156,12.42774 2.533,12.775 -6.4545,25.55001 -18.9375,26.91601 -8.838,0.967 -15.2335,-3.81064 -16.8125,-12.55664 -2.457,-13.609 7.79344,-26.90711 20.64844,-26.78711 z"
   style="fill:#00574f;fill-opacity:1" />
		<path
   id="path10"
   d="m 329.02344,455.20703 c -21.28398,0.0899 -39.48258,15.13681 -43.23633,37.27344 -3.043,17.948 3.29222,32.45192 17.69922,38.41992 16.019,6.636 31.65809,5.01917 46.12109,-4.67383 7.83,-5.248 7.52088,-5.33117 0.42188,-11.32617 -5.126,-4.33 -9.90366,-5.08183 -15.84766,-1.42383 -5.328,3.278 -11.43586,3.45941 -17.38086,1.31641 -4.064,-1.465 -7.23392,-4.06625 -8.79492,-8.28125 -1.223,-3.304 -1.01388,-5.289 3.45312,-5.125 7.486,0.274 14.98933,0.0762 22.48633,0.0762 4.665,10e-4 9.3301,0 13.9961,0 14.083,-0.003 14.08187,-0.002 14.67187,-14.07227 0.671,-16.012 -8.8105,-28.2132 -24.3125,-31.2832 -3.13337,-0.62062 -6.23677,-0.91323 -9.27734,-0.90039 z m -0.88672,17.05469 c 2.06295,-0.0166 4.09591,0.32198 5.98437,1.06836 2.736,1.081 4.7978,2.93084 6.0918,5.58984 2.679,5.507 1.28963,7.78216 -4.73437,7.78516 -1.828,10e-4 -3.65443,0 -5.48243,0 -1.663,-0.001 -3.32432,5e-5 -4.98632,-0.002 -4.153,-0.003 -8.30994,-0.0857 -12.46094,0.0293 -2.506,0.069 -3.3011,-0.54395 -2.2461,-3.12695 2.73594,-6.69766 10.4663,-11.28437 17.83399,-11.34375 z"
   style="fill:#00574f;fill-opacity:1" />
		<path
   fill-rule="evenodd"
   clip-rule="evenodd"
   fill="#00574f"
   d="m 188.985,467.448 c 7.227,-9.14 15.904,-12.528 26.487,-11.646 10.96,0.914 18.521,8.071 19.764,18.99 0.67,5.889 -0.425,11.615 -1.415,17.351 -1.98,11.477 -4.199,22.916 -5.948,34.427 -0.654,4.308 -1.95,6.587 -6.783,5.861 -2.933,-0.439 -5.986,-0.019 -8.982,-0.106 -6.13,-0.179 -8.795,-3.357 -7.775,-9.37 1.67,-9.841 3.441,-19.665 5.15,-29.499 0.342,-1.967 0.734,-3.94 0.861,-5.927 0.263,-4.118 -0.015,-8.299 -4.132,-10.494 -4.089,-2.181 -8.433,-1.746 -12.391,0.641 -5.612,3.385 -7.673,8.966 -8.756,15.024 -2.079,11.63 -4.205,23.253 -6.074,34.917 -0.568,3.548 -1.764,5.208 -5.677,4.815 -3.958,-0.397 -7.992,0.037 -11.983,-0.121 -4.839,-0.192 -6.861,-2.804 -6.028,-7.581 3.344,-19.177 6.715,-38.349 10.082,-57.521 1.668,-9.498 1.675,-9.497 11.208,-9.497 1.166,0 2.332,0 3.498,0 8.928,-0.003 8.928,-0.003 8.894,9.736 z"
   id="path12" />
		<path
   id="path14"
   d="m 116.11719,455.39258 c -9.66971,0.0445 -18.971065,2.78047 -27.914065,7.98828 -4.083,2.379 -4.462266,4.40023 -1.322266,7.74023 1.692,1.801 3.036313,3.96952 4.320313,6.10352 1.553,2.58 2.885734,3.23892 5.802734,1.29492 5.812004,-3.876 12.390654,-5.66272 19.472654,-4.76172 3.861,0.492 7.13294,1.93875 8.08594,6.21875 0.708,3.185 0.41608,5.21997 -3.91992,5.29297 -6.132,0.104 -12.30033,0.7882 -18.36133,1.7832 -8.125,1.333 -15.869016,3.87688 -21.916016,9.92188 -7.133,7.129 -8.502,15.86616 -5.375,24.91016 3.052,8.826 10.765797,11.57957 19.466797,12.14257 9.206999,0.595 17.366439,-1.80164 24.148439,-8.68164 0.601,7.026 0.60059,7.02558 7.68359,7.01758 2.998,-0.003 6.00928,-0.19598 8.98828,0.041 3.367,0.269 5.1615,-0.33644 5.0625,-4.39844 -0.087,-3.605 0.93307,-7.23438 1.41407,-10.85938 1.619,-12.199 5.14126,-24.12646 5.57226,-36.48046 0.432,-12.367 -5.76397,-20.70354 -17.79297,-23.64454 -4.54937,-1.1125 -9.02069,-1.64912 -13.41601,-1.6289 z m 4.68554,44.34765 c 1.893,-0.031 2.10663,0.74232 1.89063,2.44532 -1.112,8.787 -8.5737,15.63297 -18.3457,15.66797 -3.155,-0.209 -7.431457,-0.39613 -8.689457,-5.70313 -0.998,-4.206 1.167703,-7.6337 6.470707,-9.8457 5.976,-2.492 12.33982,-2.46246 18.67382,-2.56446 z"
   style="fill:#00574f;fill-opacity:1" />
		<path
   fill-rule="evenodd"
   clip-rule="evenodd"
   fill="#00574f"
   d="m 469.328,455.498 c 9.205,0.04 17.824,1.761 24.933,8.26 2.264,2.069 3.001,3.73 0.135,5.872 -1.721,1.285 -3.171,2.934 -4.734,4.428 -2.165,2.069 -4.004,4.78 -6.562,6.063 -3.181,1.595 -4.595,-2.582 -7.199,-3.604 -7.249,-2.847 -13.804,-1.677 -19.713,2.915 -6.823,5.302 -9.684,12.635 -8.915,21.13 0.965,10.672 11.314,16.37 22.475,12.669 9.862,-3.271 14.399,-1.287 19.194,8.065 1.007,1.963 -0.037,2.634 -1.191,3.642 -12.614,11.01 -35.539,12.922 -49.628,3.817 -11.819,-7.638 -15.318,-19.142 -13.959,-32.504 2.399,-23.585 21.445,-40.7 45.164,-40.753 z"
   id="path16" />
		<path
   fill-rule="evenodd"
   clip-rule="evenodd"
   fill="#00574f"
   d="m 587.304,457.711 c 7.597,0.003 7.598,0.003 6.065,7.722 -2.046,10.305 -2.05,10.502 -12.786,10.275 -3.671,-0.077 -4.863,1.158 -5.377,4.554 -1.319,8.708 -3.196,17.335 -4.404,26.056 -0.987,7.138 1.409,9.541 8.684,8.925 3.835,-0.324 5.383,0.69 4.615,4.59 -0.288,1.465 -0.374,2.968 -0.61,4.443 -1.451,9.054 -1.674,9.266 -11.181,9.699 -4.493,0.205 -8.975,0.24 -13.359,-1.1 -9.441,-2.886 -13.81,-8.942 -12.532,-19.29 1.342,-10.876 3.364,-21.684 5.517,-32.436 0.876,-4.378 0.118,-6.162 -4.551,-5.358 -1.293,0.223 -2.666,-0.066 -3.986,0.054 -2.435,0.222 -2.832,-0.944 -2.337,-3.001 0.389,-1.614 0.618,-3.268 0.902,-4.907 1.624,-9.369 1.616,-9.446 10.979,-10.17 2.091,-0.161 2.709,-0.93 3.157,-2.884 3.731,-16.269 6.231,-17.995 23.154,-17.081 2.538,0.137 3.137,0.878 2.673,3.229 -0.806,4.077 -1.167,8.259 -2.206,12.27 -0.913,3.527 -0.172,4.96 3.593,4.438 1.306,-0.182 2.659,-0.03 3.99,-0.028 z"
   id="path18" />
		<path
   fill-rule="evenodd"
   clip-rule="evenodd"
   fill="#00574f"
   d="m 234.529,568.963 c -10.989,0.013 -10.987,0.013 -8.655,-10.797 0.351,-1.629 0.865,-3.25 0.974,-4.897 0.275,-4.18 1.73,-5.965 6.478,-5.239 5.306,0.811 8.193,-2.851 9.608,-7.602 2.527,-8.484 3.414,-17.295 4.976,-25.968 3.188,-17.698 6.267,-35.416 9.25,-53.148 0.487,-2.895 1.645,-3.917 4.571,-3.661 3.143,0.274 6.329,0.017 9.494,0.075 6.499,0.122 9.756,3.669 8.85,10.363 -1.094,8.08 -2.554,16.117 -4.091,24.128 -3.386,17.649 -5.251,35.602 -9.97,52.977 -4.349,16.011 -14.953,23.751 -31.485,23.769 z"
   id="path20" />
		<path
   fill-rule="evenodd"
   clip-rule="evenodd"
   fill="#00574f"
   d="m 401.292,467.942 c 3.376,-3.898 5.925,-7.182 9.537,-9.348 2.023,-1.213 4.16,-2.118 6.454,-2.563 8.81,-1.708 10.063,-0.466 8.353,8.159 -0.129,0.651 -0.327,1.29 -0.452,1.942 -0.654,3.427 -0.356,7.532 -2.202,10.097 -1.855,2.578 -6.057,0.337 -9.217,0.823 -7.736,1.192 -13.924,6.683 -15.735,15.332 -2.316,11.055 -4.273,22.198 -5.913,33.372 -0.71,4.835 -2.044,7.563 -7.571,6.669 -2.918,-0.472 -5.977,-0.031 -8.97,-0.103 -6.179,-0.146 -8.253,-2.756 -7.148,-8.958 3.292,-18.486 6.596,-36.971 9.905,-55.454 1.826,-10.2 1.836,-10.198 12.127,-10.196 0.998,0 1.996,0 2.994,10e-4 9.275,0.002 9.275,0.002 7.838,10.227 z"
   id="path22" />
		<path
   fill-rule="evenodd"
   clip-rule="evenodd"
   fill="#00574f"
   d="m 506.827,532.34 c -3.088,-0.431 -8.226,1.756 -10.263,-0.89 -1.941,-2.522 0.614,-7.226 1.252,-10.959 3.365,-19.687 6.82,-39.358 10.098,-59.061 0.477,-2.866 1.511,-3.936 4.494,-3.791 5.152,0.25 10.35,0.375 15.484,-0.016 4.238,-0.323 4.885,1.111 4.168,4.956 -3.629,19.469 -6.999,38.985 -10.537,58.472 -2.049,11.284 -2.116,11.273 -14.696,11.289 z"
   id="path24" />
		<path
   fill-rule="evenodd"
   clip-rule="evenodd"
   fill="#01574f"
   d="m 273.137,447.016 c -7.776,0.019 -12.963,-4.735 -13.022,-11.939 -0.066,-8.105 5.908,-14.267 13.934,-14.366 7.638,-0.094 12.924,4.77 12.98,11.945 0.065,8.158 -5.917,14.341 -13.892,14.36 z"
   id="path26" />
		<path
   fill-rule="evenodd"
   clip-rule="evenodd"
   fill="#01574f"
   d="m 523.696,447.009 c -7.702,-0.027 -12.819,-4.906 -12.759,-12.164 0.069,-8.227 5.956,-14.113 14.123,-14.121 7.573,-0.008 12.884,5.029 12.818,12.157 -0.074,8.072 -6.182,14.157 -14.182,14.128 z"
   id="path28" />
		<path
   fill-rule="evenodd"
   clip-rule="evenodd"
   fill="#859e96"
   d="m -93.127,499.724 c 0.442,1.321 -0.395,2.947 0.96,4.053 -0.657,3.763 -0.466,7.697 -2.356,11.248 -0.25,-5.178 -0.021,-10.29 1.396,-15.301 z"
   id="path30" />
		
		
		
		
		
	</g>
</g>
</svg>
