<?xml version="1.0" encoding="UTF-8" standalone="no"?>
<!-- Generator: Adobe Illustrator 19.2.1, SVG Export Plug-In . SVG Version: 6.00 Build 0)  -->

<svg
   version="1.1"
   id="layer"
   x="0px"
   y="0px"
   viewBox="0 0 1920 235.2"
   xml:space="preserve"
   sodipodi:docname="banorte-logo-vector.svg"
   width="1920"
   height="235.2"
   inkscape:version="1.1 (c68e22c387, 2021-05-23)"
   xmlns:inkscape="http://www.inkscape.org/namespaces/inkscape"
   xmlns:sodipodi="http://sodipodi.sourceforge.net/DTD/sodipodi-0.dtd"
   xmlns="http://www.w3.org/2000/svg"
   xmlns:svg="http://www.w3.org/2000/svg"><defs
   id="defs29" /><sodipodi:namedview
   id="namedview27"
   pagecolor="#ffffff"
   bordercolor="#666666"
   borderopacity="1.0"
   inkscape:pageshadow="2"
   inkscape:pageopacity="0.0"
   inkscape:pagecheckerboard="0"
   showgrid="false"
   fit-margin-top="0"
   fit-margin-left="0"
   fit-margin-right="0"
   fit-margin-bottom="0"
   inkscape:zoom="0.31901841"
   inkscape:cx="769.54808"
   inkscape:cy="26.644231"
   inkscape:window-width="1920"
   inkscape:window-height="1017"
   inkscape:window-x="1912"
   inkscape:window-y="-8"
   inkscape:window-maximized="1"
   inkscape:current-layer="layer" />
<style
   type="text/css"
   id="style2">
	.st0{fill:#EC1C2D;}
</style>
<g
   id="g24"
   transform="matrix(3.2,0,0,3.2,-65.6,-911.04)">
	<path
   class="st0"
   d="m 206.2,325.5 h 0.7 c 3.9,0 7,-3.1 7,-7 v -6.1 c 0,-3.6 -0.4,-5.3 -1.8,-7.2 -2,-2.5 -5.5,-3.6 -8.9,-3.6 H 173 160.8 v 9 10.4 4.5 4.5 11 9.9 h 12.2 26.5 c 4.4,0 9.6,-0.6 12.3,-3.5 2.5,-2.7 2.6,-4.8 2.6,-11.4 v -2.2 c 0.1,-4.5 -3.6,-8.3 -8.2,-8.3 m -33.1,-14.9 h 25.6 c 1.3,0 4,0.5 4,2.6 v 5.4 c 0,1.7 -2.5,2.4 -3.5,2.4 h -26.1 z m 29.8,27.8 c 0,1.5 -1.2,2.7 -2.7,2.7 h -27.1 v -11 H 200 c 1.6,0 2.9,1.3 2.9,2.9 z"
   id="path4" />
	<path
   class="st0"
   d="m 274.3,351 h 14 L 260,301.7 H 248.5 L 220.7,351 h 12.5 l 5.8,-10.7 h 29.6 z m -30.1,-20.3 9.7,-17.8 9.5,17.8 z"
   id="path6" />
	<polygon
   class="st0"
   points="304.1,301.7 302.3,301.7 299.5,301.7 295.7,301.7 295.7,351 306.9,351 306.9,326.2 306.6,318.6 344.9,351 346.9,351 351.8,351 353.5,351 353.5,301.7 342.3,301.7 342.3,326.5 342.6,334.1 "
   id="polygon8" />
	<path
   class="st0"
   d="m 416.6,351 h -38.1 c -3.4,0 -7.1,-0.8 -9.1,-3.2 -1.7,-1.9 -2,-5.2 -2,-7.9 v -27.1 c 0,-3.1 0.4,-6.4 2.4,-8.4 2,-2 5.6,-2.7 8.7,-2.7 h 38.1 c 3.4,0 7.1,0.7 9.1,3.1 1.6,1.9 2,5.3 2,8 v 27.1 c 0,2.8 -0.3,6 -2,7.9 -2,2.4 -5.7,3.2 -9.1,3.2 m -37,-39.4 v 29.5 h 35.9 v -29.5 z"
   id="path10" />
	<path
   class="st0"
   d="m 483.9,351 h 17.3 l -22.1,-18.2 h 6.8 c 5.2,0 9.5,-4.2 9.5,-9.5 v -12.2 c 0,-5.2 -4.2,-9.5 -9.5,-9.5 H 454.2 442 v 9.4 12.2 9.4 18.4 h 12.2 v -18.2 h 9.7 z M 454.2,311.1 H 481 c 1.3,0 2.3,1 2.3,2.3 v 7.7 c 0,1.3 -1,2.3 -2.3,2.3 h -26.8 z"
   id="path12" />
	<polygon
   class="st0"
   points="504.4,301.7 504.4,311.5 526.5,311.5 526.5,351 538.7,351 538.7,311.5 560.7,311.5 560.7,301.7 538.7,301.7 526.5,301.7 "
   id="polygon14" />
	<polygon
   class="st0"
   points="605.9,320.5 582.8,320.5 582.8,311.2 620,311.2 620,301.7 582.8,301.7 570.6,301.7 570.6,311.2 570.6,320.5 570.6,330 570.6,341 570.6,351 582.8,351 620.5,351 620.5,341 582.8,341 582.8,330 605.9,330 "
   id="polygon16" />
	<path
   class="st0"
   d="m 84.5,284.7 c -28.5,0 -51.6,7.5 -51.6,16.8 0,7.8 16.1,14.3 38,16.2 l 9,-27.7 1.6,28.2 c 1,0 2,0 3.1,0 28.5,0 51.6,-7.5 51.6,-16.8 -0.1,-9.1 -23.2,-16.7 -51.7,-16.7"
   id="path18" />
	<path
   class="st0"
   d="m 70.6,318.7 c -27.8,0.3 -50.1,9.1 -50.1,20 0,9.2 15.8,16.9 37.4,19.3 z"
   id="path20" />
	<path
   class="st0"
   d="m 81.4,319 2.2,39.2 c 22.9,-2 39.9,-10 39.9,-19.5 0.1,-9.8 -18.1,-18 -42.1,-19.7"
   id="path22" />
</g>
</svg>
