<?xml version="1.0" encoding="UTF-8" standalone="no"?>
<!-- Generator: Adobe Illustrator 22.1.0, SVG Export Plug-In . SVG Version: 6.00 Build 0)  -->

<svg
   version="1.1"
   id="Capa_1"
   x="0px"
   y="0px"
   viewBox="0 0 1920 468.33759"
   xml:space="preserve"
   sodipodi:docname="banregio-logo.svg"
   width="1920"
   height="468.33759"
   inkscape:version="1.1 (c68e22c387, 2021-05-23)"
   xmlns:inkscape="http://www.inkscape.org/namespaces/inkscape"
   xmlns:sodipodi="http://sodipodi.sourceforge.net/DTD/sodipodi-0.dtd"
   xmlns:xlink="http://www.w3.org/1999/xlink"
   xmlns="http://www.w3.org/2000/svg"
   xmlns:svg="http://www.w3.org/2000/svg"><defs
   id="defs27"><linearGradient
     inkscape:collect="always"
     id="linearGradient848"><stop
       style="stop-color:#000000;stop-opacity:1;"
       offset="0"
       id="stop844" /><stop
       style="stop-color:#000000;stop-opacity:0;"
       offset="1"
       id="stop846" /></linearGradient><linearGradient
     inkscape:collect="always"
     xlink:href="#linearGradient848"
     id="linearGradient850"
     x1="42.099998"
     y1="83.349998"
     x2="354.89999"
     y2="83.349998"
     gradientUnits="userSpaceOnUse" /></defs><sodipodi:namedview
   id="namedview25"
   pagecolor="#ffffff"
   bordercolor="#666666"
   borderopacity="1.0"
   inkscape:pageshadow="2"
   inkscape:pageopacity="0.0"
   inkscape:pagecheckerboard="0"
   showgrid="false"
   fit-margin-top="0"
   fit-margin-left="0"
   fit-margin-right="0"
   fit-margin-bottom="0"
   inkscape:zoom="2.0192875"
   inkscape:cx="87.902291"
   inkscape:cy="45.313012"
   inkscape:window-width="1920"
   inkscape:window-height="1017"
   inkscape:window-x="-8"
   inkscape:window-y="-8"
   inkscape:window-maximized="1"
   inkscape:current-layer="Capa_1" />
<style
   type="text/css"
   id="style2">
	.st0{fill:#FF6B00;}
	.st1{fill:#FFFFFF;}
</style>

<g
   id="g22"
   style="fill:#ff6b00;fill-opacity:1"
   transform="matrix(6.1381074,0,0,6.1381074,-258.41432,-277.44245)">
	<path
   class="st1"
   d="M 42.1,104.6 V 45.2 h 11.3 v 21.2 c 1.9,-3.1 6.5,-5.8 12.8,-5.8 12.4,0 19.6,9.7 19.6,22.4 0,13 -7.9,22.7 -20,22.7 -5.9,0 -10.3,-2.6 -12.6,-6.3 v 5.2 H 42.1 Z M 63.8,70.9 c -5.8,0 -10.6,4.3 -10.6,12.1 0,7.8 4.8,12.2 10.6,12.2 5.9,0 10.5,-4.4 10.5,-12.2 0,-7.8 -4.6,-12.1 -10.5,-12.1 z"
   id="path6"
   style="fill:#ff6b00;fill-opacity:1" />
	<path
   class="st1"
   d="m 101.5,79.8 10.4,-1.6 c 2.4,-0.3 3.2,-1.6 3.2,-3.1 0,-3.1 -2.3,-5.6 -7.2,-5.6 -5,0 -7.8,3.2 -8.1,7 L 89.6,74.3 c 0.7,-6.7 6.8,-14.1 18.2,-14.1 13.4,0 18.4,7.7 18.4,16.3 v 21.1 c 0,2.3 0.3,5.3 0.5,6.8 h -10.5 c -0.3,-1.1 -0.4,-3.5 -0.4,-5.2 -2.2,3.4 -6.2,6.4 -12.5,6.4 -9,0 -14.6,-6.2 -14.6,-12.9 0.1,-7.6 5.7,-11.9 12.8,-12.9 z m 13.6,7.3 v -1.9 l -9.6,1.5 c -2.9,0.4 -5.3,2.1 -5.3,5.4 0,2.5 1.8,5 5.5,5 4.9,0 9.4,-2.4 9.4,-10 z"
   id="path8"
   style="fill:#ff6b00;fill-opacity:1" />
	<path
   class="st1"
   d="M 142.7,104.7 H 131.2 V 60.8 h 11.1 v 6.1 c 2.6,-4.5 7.7,-6.5 12.2,-6.5 10.5,0 15.3,7.6 15.3,17.1 v 27.3 H 158.3 V 79.5 c 0,-4.8 -2.3,-8.6 -7.8,-8.6 -5,0 -7.9,4 -7.9,9 v 24.8 z"
   id="path10"
   style="fill:#ff6b00;fill-opacity:1" />
	<path
   class="st1"
   d="m 200.5,73.2 c -1.3,-0.3 -2.4,-0.4 -3.4,-0.4 -5.9,0 -10.9,2.9 -10.9,12.2 v 19.8 H 174.7 V 60.9 h 11.1 v 6.8 c 2.6,-5.7 8.4,-6.8 12.1,-6.8 0.9,0 1.8,0.1 2.7,0.2 v 12.1 z"
   id="path12"
   style="fill:#ff6b00;fill-opacity:1" />
	<path
   class="st1"
   d="m 242.7,91.8 c -2.2,7.3 -8.9,13.4 -19.3,13.4 -11.6,0 -21.9,-8.4 -21.9,-22.7 0,-13.5 10,-22.3 20.9,-22.3 13.1,0 20.9,8.4 20.9,22 0,1.6 -0.2,3.4 -0.2,3.5 h -30.3 c 0.3,5.6 5,9.7 10.7,9.7 5.3,0 8.3,-2.7 9.7,-6.5 z M 232,77.9 c -0.2,-4.2 -2.9,-8.4 -9.5,-8.4 -5.9,0 -9.2,4.5 -9.5,8.4 z"
   id="path14"
   style="fill:#ff6b00;fill-opacity:1" />
	<path
   class="st1"
   d="m 256.9,103.5 c 0.8,4.7 4.5,8 9.9,8 7.2,0 11.3,-3.6 11.3,-11.8 v -3.1 c -1.7,2.8 -5.7,5.4 -11.8,5.4 -11.3,0 -19.7,-8.7 -19.7,-20.6 0,-11.2 8.1,-20.7 19.7,-20.7 6.7,0 10.6,2.9 12.1,5.8 v -5.8 h 11 v 38.6 c 0,11.6 -6.3,22.2 -22.2,22.2 -11.6,0 -19.4,-7.2 -20.6,-15.3 z m 21.4,-22.1 c 0,-6.5 -4.5,-10.7 -10,-10.7 -5.7,0 -10.2,4.1 -10.2,10.7 0,6.6 4.2,10.8 10.2,10.8 5.9,0 10,-4.2 10,-10.8 z"
   id="path16"
   style="fill:#ff6b00;fill-opacity:1" />
	<path
   class="st1"
   d="m 294.8,104.8 v -44 h 11.5 v 44.1 h -11.5 z"
   id="path18"
   style="fill:#ff6b00;fill-opacity:1" />
	<path
   class="st1"
   d="m 354.9,82.7 c 0,13 -9.6,22.5 -22.2,22.5 -12.7,0 -22.2,-9.5 -22.2,-22.5 0,-13.1 9.6,-22.5 22.2,-22.5 12.6,0 22.2,9.4 22.2,22.5 z m -11.5,0 c 0,-8 -5.2,-12.1 -10.8,-12.1 -5.6,0 -10.8,4.1 -10.8,12.1 0,7.9 5.2,12.1 10.8,12.1 5.7,0 10.8,-4.1 10.8,-12.1 z"
   id="path20"
   style="fill:#ff6b00;fill-opacity:1" />
</g>
</svg>
