<?xml version="1.0" encoding="utf-8"?>
<!-- Generator: Adobe Illustrator 18.0.0, SVG Export Plug-In . SVG Version: 6.00 Build 0)  -->
<!DOCTYPE svg PUBLIC "-//W3C//DTD SVG 1.1//EN" "http://www.w3.org/Graphics/SVG/1.1/DTD/svg11.dtd">
<svg version="1.1" id="Layer_1" xmlns="http://www.w3.org/2000/svg" xmlns:xlink="http://www.w3.org/1999/xlink" x="0px" y="0px"
	 width="251px" height="84px" viewBox="15.1 6.1 251 84" enable-background="new 15.1 6.1 251 84" xml:space="preserve">
<title>Artboard</title>
<desc>Created with Sketch.</desc>
<g id="Page-1_1_">
	<g id="Artboard">
		<g id="Page-1">
			<path id="Fill-1" fill="#37A14B" d="M119.1,39.5h-4.8c-0.6,0-1.2,0-1.8,0.1c-0.7,0.1-1.3,0.3-1.9,0.6c-0.6,0.3-1.1,0.7-1.5,1.3
				c-0.4,0.6-0.6,1.4-0.6,2.4c0,1.4,0.5,2.4,1.4,3c1,0.6,2.3,0.9,3.9,0.9c0.2,0,0.6,0,1,0c0.4,0,0.9-0.1,1.3-0.1
				c0.5-0.1,1-0.1,1.5-0.3c0.5-0.1,1-0.2,1.4-0.4V39.5z M125,49c0,0.8-0.3,1.3-1,1.6c-0.7,0.3-1.5,0.6-2.4,0.8
				c-0.9,0.2-1.7,0.4-2.7,0.6c-0.9,0.1-1.8,0.2-2.7,0.3c-0.9,0.1-1.7,0.1-2.5,0.1c-2.2,0-4-0.2-5.5-0.7c-1.5-0.5-2.6-1.1-3.5-1.8
				c-0.8-0.8-1.4-1.6-1.8-2.7c-0.3-1-0.5-2.1-0.5-3.2c0-1.2,0.2-2.3,0.6-3.4c0.4-1.1,1-2.1,1.9-2.9c0.9-0.8,2-1.5,3.4-2
				c1.4-0.5,3.1-0.8,5.1-0.8h5.6v-0.8c0-0.6-0.1-1.2-0.2-1.8c-0.1-0.5-0.4-1-0.8-1.4c-0.4-0.4-0.9-0.7-1.6-0.9
				c-0.7-0.2-1.5-0.3-2.6-0.3c-1.1,0-2.4,0.1-3.7,0.3c-1.3,0.2-2.4,0.4-3.3,0.7c-0.3,0.1-0.6,0.1-0.8,0.1c-0.2-0.1-0.3-0.3-0.3-0.6
				l-0.7-2.9c-0.1-0.5,0-0.9,0.4-1c1.4-0.5,2.9-0.9,4.6-1.1c1.7-0.2,3.2-0.3,4.7-0.3c3.5,0,6,0.8,7.7,2.3c1.6,1.5,2.4,3.8,2.4,6.7
				V49z"/>
			<path id="Fill-3" fill="#37A14B" d="M156.5,39.5h-4.8c-0.6,0-1.2,0-1.8,0.1c-0.6,0.1-1.3,0.3-1.9,0.6c-0.6,0.3-1.1,0.7-1.5,1.3
				c-0.4,0.6-0.6,1.4-0.6,2.4c0,1.4,0.5,2.4,1.5,3c1,0.6,2.2,0.9,3.9,0.9c0.2,0,0.5,0,1,0c0.4,0,0.9-0.1,1.3-0.1
				c0.5-0.1,0.9-0.1,1.5-0.3c0.5-0.1,1-0.2,1.4-0.4V39.5z M162.5,49c0,0.8-0.3,1.3-1,1.6c-0.7,0.3-1.5,0.6-2.4,0.8
				c-0.9,0.2-1.7,0.4-2.6,0.6c-0.9,0.1-1.8,0.2-2.7,0.3c-0.9,0.1-1.7,0.1-2.5,0.1c-2.2,0-4-0.2-5.5-0.7c-1.5-0.5-2.6-1.1-3.5-1.8
				c-0.9-0.8-1.4-1.6-1.8-2.7c-0.3-1-0.5-2.1-0.5-3.2c0-1.2,0.2-2.3,0.6-3.4c0.4-1.1,1-2.1,1.9-2.9c0.9-0.8,2-1.5,3.4-2
				c1.4-0.5,3.1-0.8,5.1-0.8h5.6v-0.8c0-0.6-0.1-1.2-0.2-1.8c-0.1-0.5-0.4-1-0.7-1.4c-0.4-0.4-0.9-0.7-1.6-0.9
				c-0.7-0.2-1.5-0.3-2.6-0.3c-1.1,0-2.4,0.1-3.7,0.3c-1.3,0.2-2.4,0.4-3.3,0.7c-0.4,0.1-0.6,0.1-0.8,0.1c-0.2-0.1-0.3-0.3-0.4-0.6
				l-0.7-2.9c-0.2-0.5,0-0.9,0.4-1c1.4-0.5,3-0.9,4.6-1.1c1.7-0.2,3.2-0.3,4.7-0.3c3.5,0,6,0.8,7.6,2.3c1.6,1.5,2.4,3.8,2.4,6.7V49z
				"/>
			<path id="Fill-5" fill="#37A14B" d="M203.5,29.7c-0.9,0-1.7,0.2-2.4,0.5c-0.7,0.4-1.3,0.8-1.8,1.4c-0.5,0.6-0.9,1.3-1.2,2.1
				c-0.3,0.8-0.5,1.6-0.5,2.4h11.5c0-0.9-0.1-1.7-0.3-2.5c-0.2-0.8-0.4-1.4-0.9-2c-0.4-0.6-1-1.1-1.7-1.4
				C205.5,29.9,204.6,29.7,203.5,29.7 M203.4,24.9c3.8,0,6.7,1,8.6,3c1.8,2,2.8,4.7,2.8,8.1c0,0.9-0.1,1.6-0.3,2.2
				c-0.2,0.5-0.5,1-0.9,1.3c-0.4,0.3-0.8,0.6-1.3,0.7c-0.5,0.1-1,0.2-1.6,0.2h-13.3c0,1.3,0.2,2.4,0.6,3.3c0.4,0.9,0.9,1.6,1.5,2.2
				c0.6,0.5,1.4,0.9,2.2,1.2c0.8,0.2,1.8,0.4,2.7,0.4c1.1,0,2.1-0.1,3.2-0.4c1-0.3,1.9-0.6,2.7-1c0.5-0.2,0.9-0.1,1.1,0.3l1.4,2.8
				c0.2,0.6,0.1,0.9-0.3,1.2c-1.3,0.8-2.7,1.3-4.2,1.6c-1.5,0.3-2.9,0.5-4.3,0.5c-4.1,0-7.2-1.1-9.3-3.3c-2.1-2.2-3.2-5.6-3.2-10.3
				c0-2.2,0.3-4.2,0.9-5.9c0.6-1.7,1.4-3.2,2.5-4.4c1.1-1.2,2.3-2.1,3.8-2.7C200,25.2,201.6,24.9,203.4,24.9"/>
			<path id="Fill-7" fill="#37A14B" d="M257.8,39.5H253c-0.6,0-1.2,0-1.8,0.1c-0.7,0.1-1.3,0.3-1.9,0.6c-0.6,0.3-1.1,0.7-1.5,1.3
				c-0.4,0.6-0.6,1.4-0.6,2.4c0,1.4,0.5,2.4,1.5,3c1,0.6,2.3,0.9,3.9,0.9c0.3,0,0.6,0,1,0c0.4,0,0.9-0.1,1.3-0.1
				c0.5-0.1,1-0.1,1.5-0.3c0.5-0.1,1-0.2,1.4-0.4V39.5z M263.8,49c0,0.8-0.3,1.3-1,1.6c-0.7,0.3-1.5,0.6-2.4,0.8
				c-0.9,0.2-1.7,0.4-2.6,0.6c-0.9,0.1-1.8,0.2-2.7,0.3c-0.9,0.1-1.7,0.1-2.5,0.1c-2.2,0-4-0.2-5.5-0.7c-1.5-0.5-2.6-1.1-3.5-1.8
				c-0.8-0.8-1.4-1.6-1.8-2.7c-0.3-1-0.5-2.1-0.5-3.2c0-1.2,0.2-2.3,0.6-3.4c0.4-1.1,1-2.1,1.9-2.9c0.9-0.8,2-1.5,3.4-2
				c1.4-0.5,3.1-0.8,5.1-0.8h5.6v-0.8c0-0.6-0.1-1.2-0.2-1.8c-0.1-0.5-0.4-1-0.8-1.4c-0.4-0.4-0.9-0.7-1.6-0.9
				c-0.7-0.2-1.5-0.3-2.6-0.3c-1.1,0-2.4,0.1-3.7,0.3c-1.3,0.2-2.4,0.4-3.3,0.7c-0.4,0.1-0.6,0.1-0.8,0.1c-0.2-0.1-0.3-0.3-0.3-0.6
				l-0.7-2.9c-0.1-0.5,0-0.9,0.5-1c1.4-0.5,2.9-0.9,4.6-1.1c1.7-0.2,3.3-0.3,4.7-0.3c3.5,0,6,0.8,7.7,2.3c1.6,1.5,2.4,3.8,2.4,6.7
				V49z"/>
			<path id="Fill-9" fill="#37A14B" d="M103.6,16.9c-0.1-0.2-0.4-0.3-0.9-0.3H88.6c-1.7,0-3.1,0.2-4.3,0.8c-1.1,0.5-2.1,1.2-2.7,2
				c-0.7,0.9-1.2,1.8-1.5,2.9c-0.3,1.1-0.4,2.2-0.4,3.4v25.1c0,0.4,0.1,0.7,0.3,0.8c0.2,0.1,0.5,0.2,0.9,0.2h1.6
				c1.1-0.1,3.4-0.6,3.4-3.9V36.4h15.1c0.5,0,0.7-0.1,0.8-0.3c0.1-0.2,0.2-0.5,0.2-0.9v-2.9c0-0.5-0.1-0.8-0.2-0.9
				c-0.1-0.1-0.4-0.2-0.8-0.2H85.8v-5.9c0-1.1,0.3-1.9,0.8-2.4c0.5-0.6,1.4-0.8,2.7-0.8h13.4c0.4,0,0.7-0.1,0.9-0.3
				c0.2-0.1,0.2-0.5,0.2-0.9v-3.1C103.8,17.4,103.7,17.1,103.6,16.9"/>
			<path id="Fill-11" fill="#37A14B" d="M182.8,42.7c-0.3,1.1-0.8,2-1.4,2.7c-0.6,0.7-1.3,1.2-2.2,1.5c-0.9,0.3-1.8,0.5-2.9,0.5
				c-0.7,0-1.4,0-2.3-0.1c-0.9-0.1-1.7-0.3-2.5-0.5V30.7c1.1-0.3,2.1-0.5,3.1-0.6c1-0.1,1.7-0.2,2.3-0.2c2,0,3.6,0.7,4.7,2.2
				c1.1,1.4,1.7,3.6,1.7,6.6C183.3,40.2,183.1,41.6,182.8,42.7 M188.7,33c-0.4-1.7-1.1-3.1-2.1-4.3c-0.9-1.2-2.1-2.1-3.6-2.8
				c-1.5-0.7-3.2-1-5.2-1c-0.9,0-1.9,0.1-3.1,0.2c-1.2,0.2-2.2,0.4-3.2,0.7l0-9.7c0-0.4,0-0.7-0.2-0.8c-0.1-0.1-0.4-0.1-0.8-0.1H169
				c-1.1,0.1-3.2,0.7-3.3,3.8v30.5c0,0.3,0.1,0.5,0.2,0.7c0.1,0.2,0.3,0.3,0.6,0.4c1.5,0.7,3.2,1.2,4.9,1.4c1.8,0.3,3.6,0.4,5.3,0.4
				c2.2,0,4.1-0.4,5.7-1c1.6-0.7,2.9-1.7,4-2.9c1-1.3,1.8-2.7,2.3-4.4c0.5-1.7,0.7-3.6,0.7-5.6C189.3,36.4,189.1,34.6,188.7,33"/>
			<path id="Fill-13" fill="#37A14B" d="M227.6,50.6l-0.3-2.8c0-0.3-0.1-0.4-0.2-0.5c-0.1-0.1-0.3-0.1-0.6-0.1
				c-0.2,0-0.5,0.1-0.9,0.1c-0.3,0-0.7,0-0.9,0c-0.7,0-1.1-0.2-1.3-0.5c-0.2-0.3-0.3-0.9-0.3-1.8V16c0-0.4-0.1-0.6-0.2-0.7
				c-0.1-0.1-0.4-0.1-0.8-0.1h-1.6c-1.1,0.1-3.2,0.7-3.3,3.6v27.7c0,2.2,0.4,3.7,1.3,4.6c0.9,0.9,2.2,1.3,4.1,1.3
				c0.7,0,1.4,0,2.3-0.1c0.9-0.1,1.6-0.3,2.3-0.5c0.3-0.2,0.5-0.3,0.6-0.4C227.7,51.2,227.7,50.9,227.6,50.6"/>
			<path id="Fill-15" fill="#37A14B" d="M240.5,50.6l-0.4-2.8c0-0.3-0.1-0.4-0.2-0.5c-0.1-0.1-0.3-0.1-0.6-0.1
				c-0.2,0-0.5,0.1-0.9,0.1c-0.3,0-0.7,0-0.9,0c-0.7,0-1.1-0.2-1.4-0.5c-0.2-0.3-0.3-0.9-0.3-1.8V16c0-0.4-0.1-0.6-0.2-0.7
				c-0.1-0.1-0.4-0.1-0.8-0.1h-1.6c-1.1,0.1-3.3,0.7-3.3,3.8v27.5c0,2.2,0.4,3.7,1.3,4.6c0.9,0.9,2.2,1.3,4.1,1.3
				c0.7,0,1.4,0,2.3-0.1c0.8-0.1,1.6-0.3,2.3-0.5c0.3-0.2,0.5-0.3,0.6-0.4C240.6,51.2,240.6,50.9,240.5,50.6"/>
			<path id="Fill-17" fill="#37A14B" d="M139.3,50.6l-0.4-2.8c0-0.3-0.1-0.4-0.2-0.5c-0.1-0.1-0.3-0.1-0.6-0.1
				c-0.2,0-0.5,0.1-0.9,0.1c-0.4,0-0.7,0-0.9,0c-0.7,0-1.1-0.2-1.3-0.5c-0.3-0.3-0.4-0.9-0.4-1.8V16c0-0.4-0.1-0.6-0.2-0.7
				c-0.2-0.1-0.4-0.1-0.8-0.1H132c-1.1,0.1-3.3,0.7-3.3,3.9v27.5c0,2.2,0.4,3.7,1.3,4.6c0.9,0.9,2.2,1.3,4.1,1.3
				c0.7,0,1.4,0,2.3-0.1c0.8-0.1,1.6-0.3,2.3-0.5c0.3-0.2,0.5-0.3,0.6-0.4C139.3,51.2,139.3,50.9,139.3,50.6"/>
			<path id="Fill-19" fill="#37A14B" d="M61,30.6c-3.9,5.7-11.5,7.4-17.5,3.8c-1.4-0.8-3.2-2.3-5.2-4.1c-10.9,3-23.1,8.4-23.1,14.7
				c0,9.4,27.3,17,36.7,17c9.4,0,17-7.6,17-17C69,38.9,65.8,33.6,61,30.6"/>
			<g id="Group-23" transform="translate(11.000000, 0.222500)">
				<g id="Clip-22">
				</g>
				<defs>
					<filter id="Adobe_OpacityMaskFilter" filterUnits="userSpaceOnUse" x="14.8" y="5.9" width="37.5" height="24.5">
						<feColorMatrix  type="matrix" values="1 0 0 0 0  0 1 0 0 0  0 0 1 0 0  0 0 0 1 0"/>
					</filter>
				</defs>
				<mask maskUnits="userSpaceOnUse" x="14.8" y="5.9" width="37.5" height="24.5" id="mask-2">
					<g filter="url(#Adobe_OpacityMaskFilter)">
						<polygon id="path-1" fill="#FFFFFF" points="14.8,5.9 52.3,5.9 52.3,30.3 14.8,30.3 						"/>
					</g>
				</mask>
				<path id="Fill-21" mask="url(#mask-2)" fill="#37A14B" d="M50,30.3c0.1-0.2,0.2-0.4,0.4-0.6c3.7-6.1,1.8-14.1-4.4-17.8
					c-6.1-3.7-26.9-9.5-30.6-3.4c-2.9,4.7,5.3,15.2,12,21.5c5.4-1.5,10.5-2.3,13.6-2.3C44.3,27.7,47.4,28.7,50,30.3"/>
			</g>
			<path id="Fill-24" fill="#37A14B" d="M177.4,79.8c1.1,0.8,3.2,1.7,4.7,1.7c1.2,0,2.2-0.4,2.2-1.7c0-1.2-1.6-1.7-3.2-2.3
				c-1.8-0.7-3.7-1.8-3.7-4.7c0-3.9,2.9-6,7.1-6c2.7,0,5.2,1.4,6.5,2.8l-2.8,2.9c-1.2-1.1-2.6-1.8-3.9-1.8c-1.1,0-1.9,0.4-1.9,1.4
				c0,1.3,1.2,1.7,3.1,2.5c1.9,0.8,3.8,1.9,3.8,4.7c0,3.8-3.1,6.2-7.4,6.2c-3.1,0-5.7-1.3-6.7-2.1L177.4,79.8z"/>
			<path id="Fill-26" fill="#37A14B" d="M198.8,70.9c1.9,0,5.3,0.7,5.3,5.2c0,0.6,0,1.3-0.1,2c-0.8,5.3-4.2,7.5-8,7.5
				c-3.3,0-5.2-2-5.2-5.4c0-0.6,0-1.4,0.2-2.2C191.8,72.3,195.7,70.9,198.8,70.9 M199.1,78.5c0.2-0.9,0.2-1.7,0.2-2.2
				c0-1.3-0.4-2.1-1.4-2.1c-1.3,0-2.1,1.2-2.5,3.5c-0.2,0.9-0.2,1.8-0.2,2.5c0,1.2,0.3,2.2,1.3,2.2
				C197.9,82.3,198.7,81.2,199.1,78.5"/>
			<path id="Fill-28" fill="#37A14B" d="M209.3,85.2h-4.5l2-11.2l0.1-2.6h3.6l0.1,1.9c1-1.7,2.4-2.3,3.5-2.3c0.8,0,1.6,0.2,2.2,0.5
				l-1.3,3.8c-0.5-0.3-1.2-0.5-1.8-0.5c-1.2,0-2.1,0.7-2.3,2L209.3,85.2z"/>
			<polygon id="Fill-30" fill="#37A14B" points="215.3,85.2 217.7,71.3 222.2,71.3 219.8,85.2 			"/>
			<path id="Fill-32" fill="#37A14B" d="M221,65.4c1.3,0,2.1,0.9,2.1,1.9c0,1.4-1.2,2.6-2.8,2.6c-1.3,0-2-0.8-2-1.9
				C218.2,66.6,219.4,65.4,221,65.4"/>
			<path id="Fill-34" fill="#37A14B" d="M234.9,82.3l-0.2,2.9h-3.8v-1.3l-0.1,0c-0.9,1.1-2.2,1.7-3.8,1.7c-2.9,0-4.2-2.1-4.2-5.1
				c0-5.6,3.1-9.6,8.7-9.6c1.1,0,3.1,0.3,5.2,1.1L234.9,82.3z M231.9,74.3c-0.3-0.1-0.7-0.2-1.2-0.2c-2.5,0-3.3,3.7-3.3,5.9
				c0,1.3,0.3,2.4,1.6,2.4c0.9,0,1.6-0.6,1.8-1.5L231.9,74.3z"/>
			<path id="Fill-36" fill="#37A14B" d="M237.2,85.2l1.9-11.1l0.2-2.8h3.7l0.1,1.5c1.1-1.2,2.5-1.9,4.3-1.9c2.2,0,3.6,1,3.6,3.4
				c0,0.4-0.1,1-0.1,1.5l-1.7,9.4h-4.5l1.4-8.1c0.1-0.4,0.2-1.1,0.2-1.6c0-0.5-0.2-1.1-1-1.1c-1.2,0-1.8,0.9-2,2l-1.5,8.8H237.2z"/>
			<path id="Fill-38" fill="#37A14B" d="M264.2,82.3l-0.2,2.9h-3.8v-1.3l-0.1,0c-0.9,1.1-2.2,1.7-3.8,1.7c-2.9,0-4.2-2.1-4.2-5.1
				c0-5.6,3.1-9.6,8.7-9.6c1.1,0,3.2,0.3,5.2,1.1L264.2,82.3z M261.2,74.3c-0.3-0.1-0.7-0.2-1.2-0.2c-2.5,0-3.3,3.7-3.3,5.9
				c0,1.3,0.3,2.4,1.6,2.4c0.9,0,1.6-0.6,1.8-1.5L261.2,74.3z"/>
			<path id="Fill-40" fill="#37A14B" d="M163.8,66.8c-1.4,0-3.3,0.6-4.7,2.5c-0.3,0.3-0.5,0.8-0.6,1.2c-0.4,1.5-0.1,3.1,0.8,4.4
				c0.7,1,1.6,1.7,2.4,2.3c0.4,0.3,1.2,1.1,1.5,1.4c0.4,0.5,0.7,0.8,1.1,1.9c0.2,0.7,0.3,1.5,0.1,2c2.5-2.5,5.3-5.8,5.3-9.4
				C169.7,69,166.7,66.8,163.8,66.8"/>
			<path id="Fill-42" fill="#37A14B" d="M158.5,80.6c-1-1.4-2.3-2.3-3.3-3.3c-0.4-0.4-0.9-0.7-1.3-1.1c-1.7-1.7-2.5-3.8-2.1-6.4
				c0.3-2,1.3-3.4,2.5-4.3c-1.4-1.1-3.1-1.6-5.1-1.6c-4.8,0-8.8,3.9-8.6,8.7c0.2,8.7,10.9,16,15.3,17.6c2.4-1.2,3.6-3.5,3.6-5.9
				C159.6,82.5,158.9,81.1,158.5,80.6"/>
		</g>
	</g>
</g>
</svg>
