<?xml version="1.0" encoding="UTF-8" standalone="no"?>
<svg
   width="2660.9382"
   height="1080"
   viewBox="0 0 2660.9382 1079.9999"
   version="1.1"
   id="svg28"
   sodipodi:docname="logo_famsa___bed5ad1a78dd424bb4bc5f27fe974859.svg"
   inkscape:version="1.1 (c68e22c387, 2021-05-23)"
   xmlns:inkscape="http://www.inkscape.org/namespaces/inkscape"
   xmlns:sodipodi="http://sodipodi.sourceforge.net/DTD/sodipodi-0.dtd"
   xmlns="http://www.w3.org/2000/svg"
   xmlns:svg="http://www.w3.org/2000/svg">
  <sodipodi:namedview
     id="namedview30"
     pagecolor="#ffffff"
     bordercolor="#666666"
     borderopacity="1.0"
     inkscape:pageshadow="2"
     inkscape:pageopacity="0.0"
     inkscape:pagecheckerboard="0"
     showgrid="false"
     fit-margin-top="0"
     fit-margin-left="0"
     fit-margin-right="0"
     fit-margin-bottom="0"
     inkscape:zoom="0.07630033"
     inkscape:cx="-1382.6939"
     inkscape:cy="3453.4582"
     inkscape:window-width="1920"
     inkscape:window-height="1017"
     inkscape:window-x="1912"
     inkscape:window-y="-8"
     inkscape:window-maximized="1"
     inkscape:current-layer="svg28" />
  <defs
     id="defs4">
    <style
       id="style2">.a{fill:#fff;}.b{fill:#005299;}.c,.d{fill:#b90b13;}.d{fill-rule:evenodd;}</style>
  </defs>
  <g
     transform="scale(16.20478)"
     id="g26">
    <path
       class="a"
       d="M 4.591,48.585 87.53,69.577 168.747,48.594 V 23.226 L 87.53,2.93 4.54,23.22 Z"
       transform="translate(-4.54,-2.93)"
       id="path6" />
    <g
       transform="translate(1.227,1.242)"
       id="g10">
      <path
         class="b"
         d="M 8.65,27.1 90.413,7.09 170.406,27.1 V 50.56 L 90.413,71.205 8.65,50.554 Z"
         transform="translate(-8.65,-7.09)"
         id="path8" />
    </g>
    <g
       transform="translate(16.215,14.552)"
       id="g14">
      <path
         class="a"
         d="m 58.85,61.155 66.775,-9.485 64.951,9.563 V 78.982 L 125.625,89.169 58.85,78.982 Z"
         transform="translate(-58.85,-51.67)"
         id="path12" />
    </g>
    <g
       transform="translate(33.647,23.762)"
       id="g24">
      <path
         class="c"
         d="m 343.776,101.212 c -5.6,-0.143 -6.4,-4.681 -6.413,-4.729 v -0.066 h 3.663 c 0.185,0 0.2,0.1 0.212,0.2 a 0.666,0.666 0 0 0 0.131,0.361 3,3 0 0 0 2.469,1.054 c 0.075,0.006 0.14,0.006 0.194,0.006 a 3.116,3.116 0 0 0 2.947,-1.782 1.673,1.673 0 0 0 -0.669,-1.8 7.362,7.362 0 0 0 -2.293,-0.621 c -0.508,-0.09 -1.042,-0.191 -1.532,-0.3 a 9.858,9.858 0 0 1 -3.359,-1.5 l -0.054,-0.039 a 4.243,4.243 0 0 1 -1.857,-3.248 5.78,5.78 0 0 1 1.385,-3.968 6.169,6.169 0 0 1 4.983,-2.066 h 0.078 a 6.455,6.455 0 0 1 6.44,5.323 l 0.018,0.075 h -3.544 v -0.063 a 1.962,1.962 0 0 0 -0.564,-1.379 3.349,3.349 0 0 0 -2.335,-0.926 2.824,2.824 0 0 0 -2.075,0.725 2.223,2.223 0 0 0 -0.764,1.481 1.849,1.849 0 0 0 1.006,1.812 3.764,3.764 0 0 0 1.579,0.564 c 0.2,0.036 0.394,0.063 0.624,0.122 4.1,0.517 6.2,2.182 6.4,5.084 a 5.718,5.718 0 0 1 -1.52,3.708 6.407,6.407 0 0 1 -4.968,1.976 h -0.182 z"
         transform="translate(-271.525,-82.653)"
         id="path16" />
      <path
         class="c"
         d="M 261.192,100.9 V 89.36 c 0,-0.027 -0.478,-3.783 -4.174,-3.83 -3.648,0 -4.075,3.753 -4.081,3.789 V 100.9 h -3.374 l -0.045,-11.8 a 4.3,4.3 0 0 0 -4.183,-3.574 c -3.651,0 -4.075,3.753 -4.081,3.789 V 100.9 H 237.83 V 88.918 a 7.168,7.168 0 0 1 7.6,-6.368 7.056,7.056 0 0 1 5.735,2.436 7.286,7.286 0 0 1 5.9,-2.436 c 7.016,0 7.5,6.691 7.5,6.762 V 100.9 h -3.374 z"
         transform="translate(-201.827,-82.541)"
         id="path18" />
      <path
         class="d"
         d="m 146.576,100.935 v -3.469 a 0.944,0.944 0 0 0 -0.937,-0.923 h -0.081 -4.443 c -0.033,0 -0.057,0 -0.093,0 -0.561,0 -0.794,0.478 -0.836,0.932 v 3.457 h -3.374 v -3.565 c -0.182,-0.681 -0.4,-0.875 -1.021,-0.875 h -10.642 a 0.877,0.877 0 0 0 -0.687,0.34 0.826,0.826 0 0 0 -0.191,0.669 v 3.43 H 120.8 v -3.61 a 0.894,0.894 0 0 0 -0.982,-0.929 h -2.578 v -2.685 h 2.577 a 1.04,1.04 0 0 0 0.982,-0.97 v -3.4 c 0,-0.075 0.511,-6.813 6.813,-6.813 a 6.182,6.182 0 0 1 6.515,5.92 v 0.069 h -3.117 c -0.134,0 -0.2,-0.179 -0.313,-0.478 a 3,3 0 0 0 -3.087,-2.23 c -2.914,0 -3.341,3.111 -3.341,3.144 v 3.839 c 0,0.287 0.3,0.728 0.985,0.83 h 10.533 a 1.053,1.053 0 0 0 1.021,-0.985 v -3.297 a 7.617,7.617 0 0 1 1.753,-5.025 6.192,6.192 0 0 1 4.66,-1.788 h 0.078 c 6.664,0 6.744,6.744 6.744,6.813 v 11.6 h -3.466 z m -3.195,-15.08 c -2.917,0 -3.135,3.06 -3.135,3.06 v 3.923 a 1.034,1.034 0 0 0 0.973,0.875 h 4.386 a 1.2,1.2 0 0 0 0.973,-0.931 v -3.744 c -0.014,-0.123 -0.278,-3.183 -3.196,-3.183 z"
         transform="translate(-117.24,-82.52)"
         id="path20" />
      <path
         class="d"
         d="m 401.155,101 v -2.773 c 0,-0.609 -0.328,-0.931 -0.973,-0.973 -0.469,-0.027 -0.982,-0.045 -1.561,-0.045 -0.52,0 -1.039,0.012 -1.541,0.021 -0.502,0.009 -0.988,0.024 -1.478,0.024 -0.818,0.084 -0.875,0.511 -0.914,0.854 l -0.012,0.078 v 2.809 h -3.427 V 89.4 c -0.009,0.209 0.042,-6.715 6.813,-6.715 6.341,0 6.515,6.649 6.515,6.715 v 11.59 h -3.421 z m -3.341,-15.176 a 3.136,3.136 0 0 0 -3.195,3.051 V 93.5 a 0.836,0.836 0 0 0 0.206,0.612 1.022,1.022 0 0 0 0.72,0.361 h 4.634 a 1.091,1.091 0 0 0 0.973,-1.078 v -4.52 a 3.508,3.508 0 0 0 -0.821,-1.979 3.161,3.161 0 0 0 -2.517,-1.074 z"
         transform="translate(-309.441,-82.639)"
         id="path22" />
    </g>
  </g>
</svg>
