<?xml version="1.0" encoding="UTF-8" standalone="no"?>
<svg
   viewBox="0 0 2749.9893 720.00001"
   height="720"
   width="2749.9893"
   xml:space="preserve"
   id="svg2"
   version="1.1"
   sodipodi:docname="Inbursa.svg"
   inkscape:version="1.1 (c68e22c387, 2021-05-23)"
   xmlns:inkscape="http://www.inkscape.org/namespaces/inkscape"
   xmlns:sodipodi="http://sodipodi.sourceforge.net/DTD/sodipodi-0.dtd"
   xmlns="http://www.w3.org/2000/svg"
   xmlns:svg="http://www.w3.org/2000/svg"
   xmlns:rdf="http://www.w3.org/1999/02/22-rdf-syntax-ns#"
   xmlns:cc="http://creativecommons.org/ns#"
   xmlns:dc="http://purl.org/dc/elements/1.1/"><sodipodi:namedview
     id="namedview35"
     pagecolor="#ffffff"
     bordercolor="#666666"
     borderopacity="1.0"
     inkscape:pageshadow="2"
     inkscape:pageopacity="0.0"
     inkscape:pagecheckerboard="0"
     showgrid="false"
     fit-margin-top="0"
     fit-margin-left="0"
     fit-margin-right="0"
     fit-margin-bottom="0"
     inkscape:zoom="0.28430068"
     inkscape:cx="993.6663"
     inkscape:cy="223.35508"
     inkscape:window-width="1920"
     inkscape:window-height="1017"
     inkscape:window-x="1912"
     inkscape:window-y="-8"
     inkscape:window-maximized="1"
     inkscape:current-layer="svg2" /><metadata
     id="metadata8"><rdf:RDF><cc:Work
         rdf:about=""><dc:format>image/svg+xml</dc:format><dc:type
           rdf:resource="http://purl.org/dc/dcmitype/StillImage" /></cc:Work></rdf:RDF></metadata><defs
     id="defs6" /><g
     transform="matrix(15.158246,0,0,-15.158246,-89.877788,1802.9976)"
     id="g10"
     style="fill:#012148;fill-opacity:1"><g
       transform="scale(0.1)"
       id="g12"
       style="fill:#012148;fill-opacity:1"><path
         id="path16"
         style="fill:#012148;fill-opacity:1;fill-rule:evenodd;stroke:none"
         d="m 296.785,1054.38 c -28.101,0 -52.574,-9.97 -72.519,-29.9 -19.934,-19.95 -29.914,-44.425 -29.914,-72.523 0,-29.008 9.98,-52.578 29.914,-72.512 19.945,-20.855 44.418,-30.828 72.519,-30.828 28.102,0 52.574,9.973 72.508,30.828 19.945,19.934 29.918,43.504 29.918,72.512 0,28.098 -9.973,52.573 -29.918,72.523 -19.934,19.93 -44.406,29.9 -72.508,29.9" /><path
         id="path18"
         style="fill:#012148;fill-opacity:1;fill-rule:evenodd;stroke:none"
         d="m 296.785,1072.51 v 116.94 c -41.691,0 -80.676,-10.88 -116.937,-30.82 V 980.961 c 6.355,26.289 20.855,48.039 41.703,64.359 22.66,18.13 47.133,27.19 75.234,27.19" /><path
         id="path20"
         style="fill:#012148;fill-opacity:1;fill-rule:evenodd;stroke:none"
         d="m 271.398,832.305 c -27.187,6.351 -48.937,20.843 -65.261,42.601 -18.129,21.758 -26.289,46.231 -26.289,74.332 H 59.293 c 0,-41.699 10.875,-80.675 31.7304,-116.933 H 271.398" /><path
         id="path22"
         style="fill:#012148;fill-opacity:1;fill-rule:evenodd;stroke:none"
         d="M 414.625,921.137 C 408.281,894.848 394.684,873.09 372.934,855.875 351.176,838.656 325.789,829.586 297.688,829.586 V 714.461 c 41.699,0 80.679,9.973 116.937,30.82 v 175.856" /><path
         id="path24"
         style="fill:#012148;fill-opacity:1;fill-rule:evenodd;stroke:none"
         d="m 534.277,952.859 c 0,41.7 -10.879,80.681 -31.726,116.941 H 326.699 c 27.196,-6.35 48.949,-20.85 65.262,-41.69 18.125,-22.68 26.293,-47.149 26.293,-75.251 h 116.023" /><path
         id="path26"
         style="fill:#012148;fill-opacity:1;fill-rule:evenodd;stroke:none"
         d="M 588.668,1063.45 V 925.668 h 41.695 v 137.782 h -41.695" /><path
         id="path28"
         style="fill:#012148;fill-opacity:1;fill-rule:evenodd;stroke:none"
         d="m 848.82,1063.45 h -42.601 v -99.712 l -80.68,99.712 H 660.277 V 925.668 h 42.602 v 100.612 0 l 79.769,-100.612 h 66.172 v 137.782" /><path
         id="path30"
         style="fill:#012148;fill-opacity:1;fill-rule:evenodd;stroke:none"
         d="m 918.617,1009.06 v 21.76 h 75.231 c 8.162,0 12.692,-3.63 12.692,-10.88 0,-7.25 -4.53,-10.88 -12.692,-10.88 z m 0,-28.099 h 76.137 c 9.976,0 15.416,-4.531 15.416,-11.777 0,-7.254 -5.44,-9.973 -15.416,-9.973 h -76.137 z m 109.683,14.5 v 0.91 c 7.24,1.817 11.77,4.529 14.5,8.159 4.53,4.53 6.34,12.69 6.34,23.58 0,12.68 -4.53,21.74 -12.68,28.09 -8.16,5.44 -20.85,7.25 -38.077,7.25 H 876.012 V 925.668 h 135.968 c 13.6,0 23.56,1.812 29.91,6.34 7.25,6.355 11.79,16.32 11.79,29.922 0,10.871 -1.82,19.031 -5.44,23.562 -4.54,5.438 -10.88,9.067 -19.94,9.969" /><path
         id="path32"
         style="fill:#012148;fill-opacity:1;fill-rule:evenodd;stroke:none"
         d="m 1252.19,1063.45 h -41.7 v -79.766 c 0,-8.164 -2.72,-14.5 -5.43,-18.129 -3.63,-4.532 -10.89,-6.344 -19.04,-6.344 h -41.7 c -9.07,0 -14.5,1.812 -19.03,6.344 -3.64,3.629 -4.54,9.965 -4.54,18.129 v 79.766 h -42.6 v -88.837 c 0,-17.215 4.53,-29.914 13.6,-38.07 9.06,-9.063 23.57,-12.688 42.6,-12.688 h 61.64 c 19.04,0 33.54,3.625 42.6,12.688 9.07,8.156 13.6,20.855 13.6,38.07 v 88.837" /><path
         id="path34"
         style="fill:#012148;fill-opacity:1;fill-rule:evenodd;stroke:none"
         d="m 1321.98,996.371 v 33.539 c 22.36,0 44.72,0 67.08,0 11.35,0 19.03,-1.93 19.03,-14.5 0,-1.52 0,-3.03 0,-4.53 0,-9.98 -5.43,-14.509 -15.4,-14.509 z m 0,-35.348 h 67.08 c 6.35,0 10.89,-0.91 13.6,-3.625 2.72,-2.726 3.63,-8.16 3.63,-15.418 v -16.312 h 42.59 v 23.57 c 0,9.973 -1.8,18.129 -6.33,22.664 -3.64,3.618 -9.07,6.34 -16.32,8.153 9.06,1.816 15.41,6.347 19.04,11.789 2.71,5.441 4.53,12.686 4.53,22.656 v 8.16 c 0,13.59 -2.72,23.57 -8.16,29.91 -7.26,8.16 -18.13,10.88 -33.55,10.88 H 1279.38 V 925.668 h 42.6 v 35.355" /><path
         id="path36"
         style="fill:#012148;fill-opacity:1;fill-rule:evenodd;stroke:none"
         d="m 1567.64,1011.78 -42.61,1.81 c -2.72,0 -5.43,1.82 -6.34,3.63 -0.91,0.91 -1.81,3.63 -1.81,6.34 0,7.26 5.43,10.88 16.31,10.88 h 47.13 c 9.07,0 15.42,-0.9 18.14,-2.72 1.81,-1.81 2.72,-5.44 2.72,-11.78 h 42.59 v 4.54 c 0,14.5 -2.71,24.47 -9.06,29.9 -7.25,8.16 -22.66,11.79 -44.41,11.79 h -59.82 c -24.48,0 -40.8,-4.53 -48.05,-12.69 -5.44,-6.35 -8.16,-17.23 -8.16,-31.73 0,-9.97 0.9,-16.32 2.72,-21.75 0.91,-5.441 4.54,-9.07 9.07,-12.687 9.06,-5.442 28.1,-8.157 59.82,-8.157 l 50.76,-1.816 c 3.63,0 6.34,-1.82 7.25,-3.629 l 1.82,-7.254 c 0,-4.527 -1.82,-8.156 -5.44,-9.973 l -12.69,-1.812 H 1535 l -13.6,2.726 c -2.71,1.813 -4.52,6.34 -4.52,13.59 h -42.61 v -9.965 c 0,-14.511 4.53,-24.48 12.69,-29.914 7.25,-4.539 21.75,-7.254 41.7,-7.254 h 51.66 c 28.11,0 47.14,2.715 55.3,8.153 5.44,2.719 9.07,7.258 10.88,12.691 1.81,5.442 2.71,13.602 2.71,22.668 0,10.875 -0.9,18.125 -3.62,23.563 -1.82,6.355 -6.35,10.89 -11.79,13.6 -9.96,5.44 -31.72,7.25 -66.16,7.25" /><path
         id="path38"
         style="fill:#012148;fill-opacity:1;fill-rule:evenodd;stroke:none"
         d="m 1790.63,1063.45 h -55.31 L 1660.1,925.668 h 48.03 l 11.79,24.473 16.32,29.914 27.19,51.665 27.2,-51.665 h -54.39 l -16.32,-29.914 h 87.03 l 12.68,-24.473 h 47.14 l -76.14,137.782" /><path
         id="path40"
         style="fill:#012148;fill-opacity:1;fill-rule:evenodd;stroke:none"
         d="m 936.234,816.988 v 10.797 l 39.047,0.067 v -34.196 c -5.988,-4.789 -12.172,-8.371 -18.547,-10.797 -6.375,-2.406 -12.921,-3.609 -19.621,-3.609 -9.054,0 -17.3,1.93 -24.683,5.82 -7.407,3.864 -12.989,9.485 -16.766,16.805 -3.781,7.344 -5.668,15.543 -5.668,24.602 0,8.972 1.887,17.343 5.645,25.113 3.734,7.793 9.144,13.57 16.187,17.348 7.039,3.757 15.156,5.644 24.34,5.644 6.656,0 12.687,-1.074 18.074,-3.238 5.391,-2.149 9.621,-5.156 12.668,-9.02 3.07,-3.863 5.387,-8.886 7,-15.09 l -11.015,-3.027 c -1.395,4.703 -3.11,8.395 -5.153,11.078 -2.058,2.684 -5,4.828 -8.82,6.438 -3.801,1.613 -8.051,2.425 -12.688,2.425 -5.582,0 -10.41,-0.855 -14.468,-2.554 -4.078,-1.696 -7.34,-3.926 -9.852,-6.696 -2.492,-2.769 -4.422,-5.796 -5.82,-9.121 -2.34,-5.691 -3.52,-11.875 -3.52,-18.55 0,-8.219 1.418,-15.09 4.25,-20.629 2.836,-5.535 6.957,-9.637 12.367,-12.321 5.407,-2.683 11.141,-4.035 17.215,-4.035 5.305,0 10.453,1.031 15.477,3.067 5.047,2.019 8.844,4.187 11.441,6.504 v 17.175 h -27.09" /><path
         id="path42"
         style="fill:#012148;fill-opacity:1;fill-rule:evenodd;stroke:none"
         d="m 991.703,780.816 v 66.782 h 10.177 v -10.11 c 2.6,4.723 5,7.86 7.21,9.36 2.19,1.504 4.62,2.277 7.26,2.277 3.82,0 7.68,-1.227 11.63,-3.652 l -3.91,-10.52 c -2.74,1.652 -5.51,2.473 -8.28,2.473 -2.49,0 -4.7,-0.754 -6.68,-2.235 -1.97,-1.503 -3.37,-3.562 -4.2,-6.203 -1.27,-4.015 -1.89,-8.414 -1.89,-13.203 v -34.969 h -11.317" /><path
         id="path44"
         style="fill:#012148;fill-opacity:1;fill-rule:evenodd;stroke:none"
         d="m 1078.49,780.816 v 9.813 c -5.22,-7.559 -12.28,-11.316 -21.21,-11.316 -3.93,0 -7.62,0.753 -11.03,2.257 -3.41,1.5 -5.95,3.41 -7.6,5.688 -1.67,2.297 -2.83,5.09 -3.5,8.394 -0.45,2.231 -0.69,5.75 -0.69,10.582 v 41.364 h 11.31 V 810.57 c 0,-5.925 0.24,-9.898 0.69,-11.957 0.73,-2.984 2.24,-5.304 4.53,-7.019 2.32,-1.699 5.18,-2.531 8.57,-2.531 3.39,0 6.57,0.859 9.55,2.593 2.98,1.739 5.09,4.125 6.31,7.106 1.25,3.008 1.87,7.363 1.87,13.051 v 35.785 h 11.31 v -66.782 h -10.11" /><path
         id="path46"
         style="fill:#012148;fill-opacity:1;fill-rule:evenodd;stroke:none"
         d="m 1106.35,755.23 v 92.368 h 10.31 v -8.672 c 2.43,3.39 5.17,5.945 8.24,7.644 3.05,1.696 6.76,2.555 11.12,2.555 5.71,0 10.73,-1.48 15.09,-4.402 4.38,-2.942 7.66,-7.082 9.87,-12.43 2.24,-5.344 3.35,-11.203 3.35,-17.578 0,-6.828 -1.22,-12.988 -3.69,-18.465 -2.44,-5.473 -6.01,-9.66 -10.69,-12.578 -4.68,-2.899 -9.59,-4.359 -14.75,-4.359 -3.77,0 -7.15,0.796 -10.15,2.386 -3,1.586 -5.45,3.606 -7.38,6.031 v -32.5 z m 10.24,58.602 c 0,-8.586 1.74,-14.941 5.22,-19.062 3.48,-4.102 7.71,-6.161 12.64,-6.161 5.03,0 9.34,2.125 12.93,6.399 3.58,4.25 5.38,10.84 5.38,19.769 0,8.524 -1.76,14.875 -5.26,19.125 -3.49,4.231 -7.68,6.356 -12.53,6.356 -4.83,0 -9.1,-2.254 -12.82,-6.762 -3.71,-4.508 -5.56,-11.074 -5.56,-19.664" /><path
         id="path48"
         style="fill:#012148;fill-opacity:1;fill-rule:evenodd;stroke:none"
         d="m 1173.76,814.219 c 0,12.363 3.43,21.531 10.32,27.476 5.74,4.938 12.73,7.43 21,7.43 9.18,0 16.7,-3.008 22.51,-9.039 5.84,-6.012 8.74,-14.316 8.74,-24.922 0,-8.609 -1.29,-15.371 -3.86,-20.285 -2.58,-4.938 -6.33,-8.758 -11.25,-11.488 -4.94,-2.723 -10.31,-4.078 -16.14,-4.078 -9.34,0 -16.9,2.984 -22.67,8.996 -5.78,5.988 -8.65,14.621 -8.65,25.91 z m 11.63,0 c 0,-8.567 1.87,-14.961 5.61,-19.211 3.73,-4.274 8.43,-6.399 14.08,-6.399 5.62,0 10.3,2.145 14.03,6.418 3.72,4.274 5.59,10.797 5.59,19.555 0,8.266 -1.87,14.535 -5.63,18.785 -3.75,4.25 -8.41,6.375 -13.99,6.375 -5.65,0 -10.35,-2.125 -14.08,-6.355 -3.74,-4.227 -5.61,-10.625 -5.61,-19.168" /><path
         id="path50"
         style="fill:#012148;fill-opacity:1;fill-rule:evenodd;stroke:none"
         d="m 1287.46,780.816 v 92.2 h 62.21 v -10.883 h -49.99 v -28.551 h 43.25 v -10.883 h -43.25 v -41.883 h -12.22" /><path
         id="path52"
         style="fill:#012148;fill-opacity:1;fill-rule:evenodd;stroke:none"
         d="m 1364.12,859.988 v 13.028 h 11.33 v -13.028 z m 0,-79.172 v 66.782 h 11.33 v -66.782 h -11.33" /><path
         id="path54"
         style="fill:#012148;fill-opacity:1;fill-rule:evenodd;stroke:none"
         d="m 1392.7,780.816 v 66.782 h 10.17 v -9.489 c 4.92,7.344 12,11.016 21.25,11.016 4.04,0 7.73,-0.734 11.1,-2.172 3.39,-1.457 5.9,-3.348 7.58,-5.711 1.69,-2.336 2.85,-5.129 3.54,-8.347 0.41,-2.102 0.62,-5.774 0.62,-11.012 v -41.067 h -11.33 v 40.637 c 0,4.594 -0.43,8.051 -1.31,10.348 -0.88,2.273 -2.45,4.097 -4.68,5.449 -2.26,1.379 -4.87,2.063 -7.9,2.063 -4.83,0 -8.97,-1.543 -12.5,-4.594 -3.49,-3.071 -5.23,-8.864 -5.23,-17.43 v -36.473 h -11.31" /><path
         id="path56"
         style="fill:#012148;fill-opacity:1;fill-rule:evenodd;stroke:none"
         d="m 1507.9,789.063 c -4.2,-3.567 -8.24,-6.079 -12.1,-7.559 -3.89,-1.461 -8.05,-2.191 -12.5,-2.191 -7.34,0 -12.96,1.785 -16.91,5.367 -3.93,3.586 -5.91,8.179 -5.91,13.742 0,3.285 0.73,6.266 2.24,8.969 1.48,2.707 3.43,4.875 5.84,6.504 2.42,1.632 5.13,2.878 8.15,3.714 2.22,0.582 5.56,1.161 10.05,1.696 9.15,1.097 15.88,2.383 20.2,3.91 0.04,1.543 0.06,2.531 0.06,2.937 0,4.618 -1.07,7.879 -3.22,9.746 -2.87,2.579 -7.19,3.844 -12.87,3.844 -5.33,0 -9.26,-0.926 -11.81,-2.793 -2.54,-1.863 -4.41,-5.168 -5.63,-9.918 l -11.05,1.528 c 1.01,4.722 2.66,8.566 4.95,11.461 2.31,2.921 5.65,5.175 10.01,6.742 4.36,1.566 9.4,2.363 15.15,2.363 5.72,0 10.33,-0.687 13.89,-2.02 3.57,-1.351 6.19,-3.027 7.88,-5.066 1.68,-2.039 2.84,-4.594 3.52,-7.707 0.37,-1.93 0.56,-5.406 0.56,-10.434 v -15.089 c 0,-10.539 0.24,-17.196 0.73,-19.961 0.47,-2.793 1.44,-5.477 2.85,-8.032 h -11.82 c -1.16,2.34 -1.93,5.09 -2.26,8.247 z m -0.94,25.285 c -4.12,-1.696 -10.28,-3.114 -18.48,-4.293 -4.66,-0.668 -7.97,-1.414 -9.88,-2.254 -1.93,-0.84 -3.43,-2.063 -4.46,-3.696 -1.05,-1.605 -1.59,-3.386 -1.59,-5.363 0,-3.027 1.16,-5.539 3.43,-7.558 2.28,-1.996 5.63,-3.004 10.03,-3.004 4.35,0 8.24,0.945 11.63,2.855 3.4,1.91 5.91,4.531 7.5,7.836 1.22,2.555 1.82,6.332 1.82,11.313 v 4.164" /><path
         id="path58"
         style="fill:#012148;fill-opacity:1;fill-rule:evenodd;stroke:none"
         d="m 1535.96,780.816 v 66.782 h 10.18 v -9.489 c 4.91,7.344 11.99,11.016 21.25,11.016 4.03,0 7.73,-0.734 11.09,-2.172 3.4,-1.457 5.91,-3.348 7.58,-5.711 1.7,-2.336 2.86,-5.129 3.55,-8.347 0.4,-2.102 0.62,-5.774 0.62,-11.012 v -41.067 h -11.34 v 40.637 c 0,4.594 -0.43,8.051 -1.31,10.348 -0.88,2.273 -2.44,4.097 -4.68,5.449 -2.25,1.379 -4.87,2.063 -7.9,2.063 -4.83,0 -8.97,-1.543 -12.49,-4.594 -3.5,-3.071 -5.24,-8.864 -5.24,-17.43 v -36.473 h -11.31" /><path
         id="path60"
         style="fill:#012148;fill-opacity:1;fill-rule:evenodd;stroke:none"
         d="m 1651.17,805.289 11.12,-1.461 c -1.2,-7.664 -4.32,-13.672 -9.34,-18.012 -5,-4.332 -11.16,-6.503 -18.46,-6.503 -9.13,0 -16.49,2.984 -22.03,8.953 -5.55,5.968 -8.34,14.535 -8.34,25.695 0,7.211 1.2,13.523 3.58,18.934 2.41,5.41 6.03,9.468 10.93,12.171 4.87,2.707 10.19,4.059 15.92,4.059 7.26,0 13.21,-1.848 17.8,-5.52 4.61,-3.667 7.58,-8.867 8.89,-15.625 l -11.02,-1.695 c -1.04,4.485 -2.89,7.856 -5.56,10.133 -2.66,2.25 -5.88,3.387 -9.66,3.387 -5.71,0 -10.34,-2.035 -13.91,-6.137 -3.56,-4.078 -5.34,-10.539 -5.34,-19.383 0,-8.976 1.72,-15.5 5.17,-19.578 3.44,-4.059 7.92,-6.098 13.46,-6.098 4.45,0 8.14,1.375 11.12,4.102 2.98,2.727 4.88,6.91 5.67,12.578" /><path
         id="path62"
         style="fill:#012148;fill-opacity:1;fill-rule:evenodd;stroke:none"
         d="m 1672.04,859.988 v 13.028 h 11.33 v -13.028 z m 0,-79.172 v 66.782 h 11.33 v -66.782 h -11.33" /><path
         id="path64"
         style="fill:#012148;fill-opacity:1;fill-rule:evenodd;stroke:none"
         d="m 1746.31,802.324 11.7,-1.437 c -1.85,-6.848 -5.26,-12.149 -10.24,-15.926 -5,-3.758 -11.38,-5.648 -19.13,-5.648 -9.76,0 -17.51,3.007 -23.22,9.015 -5.73,6.012 -8.59,14.449 -8.59,25.313 0,11.246 2.9,19.961 8.67,26.164 5.8,6.207 13.29,9.32 22.52,9.32 8.93,0 16.23,-3.051 21.87,-9.125 5.67,-6.074 8.51,-14.641 8.51,-25.652 0,-0.688 -0.03,-1.696 -0.07,-3.028 h -49.8 c 0.41,-7.34 2.49,-12.965 6.22,-16.851 3.74,-3.906 8.38,-5.86 13.96,-5.86 4.14,0 7.68,1.098 10.63,3.286 2.93,2.168 5.25,5.644 6.97,10.429 z m -37.16,18.313 h 37.29 c -0.49,5.601 -1.93,9.832 -4.27,12.621 -3.61,4.359 -8.29,6.547 -14.02,6.547 -5.2,0 -9.58,-1.735 -13.11,-5.215 -3.55,-3.477 -5.5,-8.137 -5.89,-13.953" /><path
         id="path66"
         style="fill:#012148;fill-opacity:1;fill-rule:evenodd;stroke:none"
         d="m 1772.11,780.816 v 66.782 h 10.18 v -10.11 c 2.6,4.723 5,7.86 7.21,9.36 2.19,1.504 4.62,2.277 7.26,2.277 3.81,0 7.68,-1.227 11.63,-3.652 l -3.91,-10.52 c -2.75,1.652 -5.51,2.473 -8.28,2.473 -2.49,0 -4.7,-0.754 -6.68,-2.235 -1.97,-1.503 -3.37,-3.562 -4.2,-6.203 -1.27,-4.015 -1.89,-8.414 -1.89,-13.203 v -34.969 h -11.32" /><path
         id="path68"
         style="fill:#012148;fill-opacity:1;fill-rule:evenodd;stroke:none"
         d="m 1810.9,814.219 c 0,12.363 3.44,21.531 10.33,27.476 5.73,4.938 12.73,7.43 20.99,7.43 9.19,0 16.7,-3.008 22.52,-9.039 5.84,-6.012 8.74,-14.316 8.74,-24.922 0,-8.609 -1.29,-15.371 -3.87,-20.285 -2.57,-4.938 -6.33,-8.758 -11.25,-11.488 -4.93,-2.723 -10.3,-4.078 -16.14,-4.078 -9.34,0 -16.89,2.984 -22.67,8.996 -5.77,5.988 -8.65,14.621 -8.65,25.91 z m 11.64,0 c 0,-8.567 1.86,-14.961 5.6,-19.211 3.74,-4.274 8.43,-6.399 14.08,-6.399 5.62,0 10.31,2.145 14.04,6.418 3.71,4.274 5.58,10.797 5.58,19.555 0,8.266 -1.87,14.535 -5.63,18.785 -3.75,4.25 -8.41,6.375 -13.99,6.375 -5.65,0 -10.34,-2.125 -14.08,-6.355 -3.74,-4.227 -5.6,-10.625 -5.6,-19.168" /></g></g></svg>
