<?xml version="1.0" encoding="UTF-8" standalone="no"?>
<!-- Generator: Adobe Illustrator 22.0.1, SVG Export Plug-In . SVG Version: 6.00 Build 0)  -->

<svg
   version="1.1"
   id="Capa_1"
   x="0px"
   y="0px"
   viewBox="0 0 2320.9705 720"
   xml:space="preserve"
   sodipodi:docname="invex-logo-calado.svg"
   width="2320.9705"
   height="720"
   inkscape:version="1.1 (c68e22c387, 2021-05-23)"
   xmlns:inkscape="http://www.inkscape.org/namespaces/inkscape"
   xmlns:sodipodi="http://sodipodi.sourceforge.net/DTD/sodipodi-0.dtd"
   xmlns="http://www.w3.org/2000/svg"
   xmlns:svg="http://www.w3.org/2000/svg"><defs
   id="defs11" /><sodipodi:namedview
   id="namedview9"
   pagecolor="#ffffff"
   bordercolor="#666666"
   borderopacity="1.0"
   inkscape:pageshadow="2"
   inkscape:pageopacity="0.0"
   inkscape:pagecheckerboard="0"
   showgrid="false"
   fit-margin-top="0"
   fit-margin-left="0"
   fit-margin-right="0"
   fit-margin-bottom="0"
   inkscape:zoom="0.25058097"
   inkscape:cx="844.03857"
   inkscape:cy="257.40183"
   inkscape:window-width="1920"
   inkscape:window-height="1017"
   inkscape:window-x="1912"
   inkscape:window-y="-8"
   inkscape:window-maximized="1"
   inkscape:current-layer="Capa_1" />
<style
   type="text/css"
   id="style2">
	.st0{fill:#FFFFFF;}
</style>
<path
   class="st0"
   d="M 0,144.7487 H 159.7227 V 0 H 0 Z M 0,713.76083 H 159.7227 V 234.59272 H 0 Z M 1464.9567,418.02426 c 2.4956,-32.44367 17.4696,-92.33968 87.3483,-92.33968 74.87,0 88.5962,54.90467 89.844,92.33968 z m 701.2825,51.16118 c 0,0 139.7573,-219.61872 148.4922,-234.59272 h -172.2011 c -2.4956,4.99134 -81.1092,152.2357 -81.1092,152.2357 0,0 -71.1265,-145.99653 -74.87,-152.2357 h -188.4229 c 8.7349,13.72617 149.7401,234.59272 149.7401,234.59272 l -88.5962,134.76603 c -141.0052,4.99134 -187.175,4.99134 -230.8492,4.99134 h -13.7262 c -91.0918,0 -145.9965,-22.46101 -155.9792,-88.59619 l -1.2478,-4.99133 h 338.1629 v -26.20451 c 0,-81.10919 -23.7089,-269.53206 -242.0797,-269.53206 -154.7314,0 -257.0538,97.33102 -257.0538,249.56672 0,148.4922 112.3051,250.81456 279.5148,250.81456 l 157.227,-2.49567 149.74,-3.7435 h 91.0919 c 2.4957,-4.99133 83.6048,-158.47487 83.6048,-158.47487 0,0 69.8787,153.48354 72.3744,158.47487 h 190.9185 C 2317.227,700.03466 2166.2392,469.18544 2166.2392,469.18544 M 1162.9809,234.59272 1060.6586,578.9948 l -6.2392,16.22184 c 0,0 -102.32235,-353.13692 -104.81801,-360.62392 H 779.89601 c 4.99134,12.47834 174.69671,472.92894 177.19238,479.16811 h 185.92721 c 2.4957,-6.23917 170.9532,-466.68977 175.9445,-479.16811 z M 607.69497,235.84055 411.7851,234.59272 H 262.04506 V 713.76083 H 423.0156 V 346.89775 h 112.30502 c 77.36569,0 77.36569,69.87868 78.61352,134.76603 V 713.76083 H 772.40901 V 481.66378 c 0,-204.64472 -64.88735,-245.82323 -164.71404,-245.82323"
   id="path4"
   style="fill:#a30931;fill-opacity:1;stroke-width:12.4783" />

</svg>
