<?xml version="1.0" encoding="utf-8"?>
<!-- Generator: Adobe Illustrator 22.1.0, SVG Export Plug-In . SVG Version: 6.00 Build 0)  -->
<svg version="1.1"
	 id="svg8" inkscape:version="0.92.3 (2405546, 2018-03-11)" sodipodi:docname="liverpool.svg" xmlns:cc="http://creativecommons.org/ns#" xmlns:dc="http://purl.org/dc/elements/1.1/" xmlns:inkscape="http://www.inkscape.org/namespaces/inkscape" xmlns:rdf="http://www.w3.org/1999/02/22-rdf-syntax-ns#" xmlns:sodipodi="http://sodipodi.sourceforge.net/DTD/sodipodi-0.dtd" xmlns:svg="http://www.w3.org/2000/svg"
	 xmlns="http://www.w3.org/2000/svg" xmlns:xlink="http://www.w3.org/1999/xlink" x="0px" y="0px" width="189.07px"
	 height="44.89px" viewBox="0 0 189.07 44.89" style="enable-background:new 0 0 189.07 44.89;" xml:space="preserve">
<style type="text/css">
	.st0{fill:#A34585;}
	.st1{fill:#F57F1E;}
</style>
<path class="st0" d="M0.51,0.55h3.03v30.98c0,0,0,2.23,2,2.23h16.28v3.36H4.11c0,0-3.61-0.01-3.61-4.01
	C0.5,29.17,0.51,0.55,0.51,0.55 M4.69,0.55h3.02v26.57c0,0-0.21,2.06,1.76,2.06c9.72-0.02,12.33,0,12.33,0v3.32H6.46
	c0,0-1.79-0.14-1.77-1.97C4.7,29.23,4.69,0.55,4.69,0.55 M8.85,0.55h3.04l0.01,22.47c0,0-0.18,1.53,1.27,1.53h8.66L21.8,27.9H10.15
	c0,0-1.29-0.26-1.29-1.81L8.85,0.55z M13.03,0.55h3.04v18.14c0,0-0.19,1.29,1.14,1.29h4.61v3.32h-7.03c-1.26,0-1.77-0.38-1.77-1.66
	V0.55z"/>
<path class="st1" d="M38.48,37.08h-3.03L35.46,6.1c0,0,0-2.23-1.99-2.23c-1.88,0-16.29-0.01-16.29-0.01l0.01-3.36L34.9,0.51
	c0,0,3.61,0.01,3.61,4.01C38.5,8.47,38.48,37.08,38.48,37.08 M34.3,37.08h-3.03V10.51c0,0,0.21-2.07-1.76-2.06
	c-9.72,0-12.33,0-12.33,0V5.14h15.34c0,0,1.79,0.14,1.77,1.97C34.29,8.41,34.29,37.09,34.3,37.08 M30.14,37.08H27.1V14.61
	c0,0,0.18-1.53-1.27-1.53c-2.58,0-8.65,0-8.65,0V9.74h11.66c0,0,1.3,0.26,1.29,1.81c0,1.42,0,25.54,0,25.54 M25.96,37.08h-3.04
	V18.94c0,0,0.19-1.29-1.14-1.29c-3.42,0-4.61,0-4.61,0v-3.31h7.02c1.26,0,1.77,0.38,1.77,1.66C25.96,17.39,25.96,37.08,25.96,37.08"
	/>
<path class="st0" d="M69.26,8.09h3.1v3.49h-3.1V8.09z M69.26,15.7h3.1v21.42h-3.1V15.7z M179.16,8.06h3.1v29.06h-3.1V8.06z
	 M89.67,15.7l-6.25,17.24L77.17,15.7h-3.54l7.77,21.42h4.05l7.77-21.42H89.67z M60.5,33.72c-1.05,0-1.84-0.93-1.84-2.07V8.1h-3.1
	v24.1c0,2.7,1.96,4.9,4.43,4.9h8.14v-3.38L60.5,33.72z M119.35,19.15c-1.05,0-1.84,0.93-1.84,2.07v15.99h-3.1V20.66
	c0-2.7,1.95-4.9,4.43-4.9h3.26v3.38L119.35,19.15z M95.52,23.5c1.04-3.39,3.89-5.56,7.01-5.56c3.12,0,5.96,2.17,7,5.56H95.52z
	 M112.77,26.65v-0.66c0-6.17-4.6-11.2-10.24-11.2c-5.65,0-10.24,5.03-10.24,11.2c0,6.18,4.59,11.2,10.24,11.2
	c4.77,0,8.83-3.5,9.95-8.55h-3c-1.04,3.23-3.81,5.4-6.95,5.4c-3.81,0-6.97-3.14-7.35-7.4H112.77z M167.28,33.93
	c-4,0-7.26-3.56-7.26-7.93c0-4.38,3.26-7.94,7.26-7.94s7.26,3.56,7.26,7.94S171.28,33.93,167.28,33.93 M149.65,33.93
	c-4.01,0-7.26-3.56-7.26-7.93c0-4.38,3.25-7.94,7.26-7.94c4,0,7.26,3.56,7.26,7.94S153.65,33.93,149.65,33.93 M132.02,33.93
	c-4,0-7.26-3.56-7.26-7.93c0-4.38,3.26-7.94,7.26-7.94c4.01,0,7.26,3.56,7.26,7.94S136.03,33.93,132.02,33.93 M167.28,14.67
	c-3.72,0-6.99,2.15-8.81,5.38c-1.82-3.23-5.09-5.38-8.81-5.38c-3.73,0-6.99,2.15-8.81,5.38c-1.83-3.23-5.09-5.38-8.82-5.38
	c-5.72,0-10.35,5.07-10.35,11.32v18.39h3.13V34.1c1.87,1.99,4.42,3.21,7.22,3.21c3.72,0,6.99-2.15,8.82-5.38
	c1.82,3.23,5.08,5.38,8.81,5.38c3.72,0,6.99-2.15,8.81-5.38c1.82,3.23,5.09,5.38,8.81,5.38c5.72,0,10.35-5.07,10.35-11.32
	C177.63,19.74,173,14.67,167.28,14.67 M186.06,10.3c0.33,0,0.55-0.14,0.55-0.44c0-0.27-0.19-0.43-0.47-0.43h-0.69v0.87H186.06z
	 M185.01,9.03h1.18c0.66,0,0.88,0.45,0.88,0.77c0,0.47-0.31,0.81-0.76,0.84v0.02c0.23,0.09,0.4,0.34,0.62,0.73l0.32,0.56h-0.53
	l-0.23-0.45c-0.33-0.66-0.46-0.78-0.79-0.78h-0.26v1.23h-0.43V9.03z M186.09,8.18c-1.14,0-2.06,1.01-2.06,2.26s0.92,2.27,2.06,2.27
	s2.07-1.02,2.07-2.27S187.23,8.18,186.09,8.18 M186.09,13.15c-1.37,0-2.47-1.21-2.47-2.71s1.1-2.7,2.47-2.7
	c1.37,0,2.48,1.2,2.48,2.7S187.46,13.15,186.09,13.15"/>
</svg>
