<?xml version="1.0" encoding="UTF-8" standalone="no"?>
<!-- Generator: Adobe Illustrator 16.0.3, SVG Export Plug-In . SVG Version: 6.00 Build 0)  -->

<svg
   version="1.1"
   id="Capa_1"
   x="0px"
   y="0px"
   width="4426.124"
   height="720"
   viewBox="0 0 4426.124 720"
   enable-background="new 0 0 512 115.055"
   xml:space="preserve"
   sodipodi:docname="logo_mifel.svg"
   inkscape:version="1.1 (c68e22c387, 2021-05-23)"
   xmlns:inkscape="http://www.inkscape.org/namespaces/inkscape"
   xmlns:sodipodi="http://sodipodi.sourceforge.net/DTD/sodipodi-0.dtd"
   xmlns="http://www.w3.org/2000/svg"
   xmlns:svg="http://www.w3.org/2000/svg"><defs
   id="defs30" /><sodipodi:namedview
   id="namedview28"
   pagecolor="#ffffff"
   bordercolor="#666666"
   borderopacity="1.0"
   inkscape:pageshadow="2"
   inkscape:pageopacity="0.0"
   inkscape:pagecheckerboard="0"
   showgrid="false"
   fit-margin-top="0"
   fit-margin-left="0"
   fit-margin-right="0"
   fit-margin-bottom="0"
   inkscape:zoom="0.13842773"
   inkscape:cx="1311.1534"
   inkscape:cy="242.00353"
   inkscape:window-width="1920"
   inkscape:window-height="1017"
   inkscape:window-x="1912"
   inkscape:window-y="-8"
   inkscape:window-maximized="1"
   inkscape:current-layer="Capa_1" />
<g
   id="Logo_Mifel_1_"
   transform="matrix(9.5701376,0,0,9.5701376,-157.31135,-205.29859)">
	<path
   fill="#072a5e"
   d="m 96.633,48.669 c 26.613,2.886 23.693,30.489 13.283,47.276 H 91.229 C 109.457,62.053 90.543,48.71 77.484,48.669 h 19.149 m -22.333,0 c 26.601,2.886 23.68,30.489 13.199,47.276 H 68.801 C 87.107,62.053 68.76,49.073 55.438,48.669 H 74.3 M 51.909,48.594 c 26.613,2.893 23.7,30.484 13.274,47.368 H 46.478 C 64.715,61.988 46.092,50.164 34.991,48.594 H 51.909 M 37.205,69.106 C 10.585,66.207 13.568,38.339 24.01,21.452 H 42.705 C 25.93,51.366 39.272,67.048 53.897,68.855 Z"
   id="path2" />
	<g
   id="g24">
		<path
   fill="#072a5e"
   d="m 176.112,52.589 c 0.8,2.021 0.805,4.438 0.016,7.249 -0.838,2.896 -2.204,5.227 -4.097,6.983 -1.041,0.986 -2.424,1.887 -4.156,2.698 2.03,0.888 3.354,2.283 3.972,4.196 0.614,1.914 0.531,4.233 -0.252,6.96 -0.811,2.813 -2.204,5.332 -4.178,7.563 -1.284,1.479 -2.71,2.724 -4.276,3.728 -1.761,1.157 -3.678,1.948 -5.752,2.375 -2.074,0.427 -4.254,0.635 -6.547,0.631 l -20.305,-0.039 13.608,-47.465 21.766,0.043 c 5.464,0.097 8.864,1.789 10.201,5.078 z m -30.671,21.463 -3.615,12.654 11.004,0.024 c 1.964,0.004 3.57,-0.272 4.813,-0.83 2.298,-1.027 3.866,-3.001 4.708,-5.919 0.698,-2.468 0.215,-4.167 -1.446,-5.095 -0.928,-0.516 -2.366,-0.788 -4.309,-0.812 z m 5.259,-18.322 -2.999,10.464 11.003,0.024 c 1.965,0.004 3.676,-0.386 5.131,-1.167 1.455,-0.78 2.473,-2.169 3.049,-4.165 0.615,-2.214 0.226,-3.675 -1.173,-4.385 -1.272,-0.498 -2.995,-0.748 -5.165,-0.754 z"
   id="path4" />
		<path
   fill="#072a5e"
   d="m 193.566,73.696 c 1.679,-0.213 2.907,-0.478 3.686,-0.799 1.384,-0.556 2.25,-1.426 2.595,-2.605 0.41,-1.438 0.22,-2.433 -0.563,-2.981 -0.785,-0.549 -2.086,-0.825 -3.912,-0.83 -2.046,-0.004 -3.655,0.529 -4.82,1.603 -0.817,0.793 -1.53,1.864 -2.132,3.217 l -8.358,-0.015 c 1.075,-3.069 2.61,-5.592 4.604,-7.563 3.185,-3.086 7.563,-4.623 13.136,-4.613 3.628,0.007 6.632,0.775 9.013,2.303 2.383,1.532 2.965,4.411 1.75,8.641 l -4.642,16.101 c -0.32,1.115 -0.681,2.469 -1.082,4.057 -0.285,1.203 -0.349,2.019 -0.194,2.449 0.155,0.429 0.474,0.783 0.955,1.064 l -0.358,1.354 -9.422,-0.019 c -0.062,-0.708 -0.055,-1.375 0.019,-1.998 0.074,-0.622 0.196,-1.33 0.367,-2.125 -1.599,1.371 -3.311,2.539 -5.138,3.5 -2.205,1.137 -4.484,1.699 -6.834,1.696 -2.999,-0.007 -5.215,-0.918 -6.649,-2.736 -1.434,-1.818 -1.673,-4.391 -0.718,-7.717 1.244,-4.314 3.712,-7.438 7.407,-9.361 2.014,-1.049 4.762,-1.798 8.248,-2.24 z m 4.038,4.294 c -0.64,0.363 -1.274,0.656 -1.901,0.88 -0.627,0.226 -1.455,0.434 -2.486,0.624 l -2.041,0.381 c -1.932,0.343 -3.367,0.759 -4.301,1.25 -1.573,0.834 -2.607,2.133 -3.103,3.893 -0.461,1.567 -0.38,2.7 0.239,3.4 0.62,0.698 1.517,1.05 2.692,1.052 1.864,0.005 3.749,-0.573 5.653,-1.729 1.901,-1.155 3.331,-3.27 4.285,-6.339 z"
   id="path6" />
		<path
   fill="#072a5e"
   d="m 245.708,71.509 -6.78,23.636 -8.878,-0.018 6.098,-21.35 c 0.544,-1.848 0.718,-3.264 0.519,-4.254 -0.331,-1.805 -1.69,-2.708 -4.083,-2.712 -2.937,-0.007 -5.33,1.312 -7.179,3.947 -0.974,1.396 -1.764,3.178 -2.378,5.346 l -5.438,18.998 -8.632,-0.018 10.043,-35.035 8.362,0.018 -1.476,5.119 c 1.632,-1.802 3.062,-3.097 4.287,-3.891 2.19,-1.413 4.653,-2.117 7.388,-2.111 3.425,0.007 5.953,0.961 7.582,2.864 1.626,1.907 1.816,5.061 0.565,9.461 z"
   id="path8" />
		<path
   fill="#072a5e"
   d="m 272.962,72.689 c 0.215,-1.31 0.135,-2.491 -0.238,-3.546 -0.569,-1.419 -1.875,-2.13 -3.922,-2.134 -2.918,-0.005 -5.353,1.525 -7.299,4.594 -1.032,1.632 -1.939,3.799 -2.717,6.504 -0.732,2.576 -1.042,4.646 -0.935,6.216 0.196,2.923 1.721,4.384 4.58,4.391 2.026,0.004 3.631,-0.572 4.814,-1.73 1.183,-1.157 2.129,-2.66 2.835,-4.506 l 8.844,0.018 c -0.987,2.791 -2.695,5.429 -5.119,7.918 -3.874,4.009 -8.474,6.007 -13.805,5.997 -5.329,-0.01 -8.766,-1.692 -10.311,-5.047 -1.545,-3.353 -1.552,-7.701 -0.015,-13.047 1.716,-6.036 4.445,-10.722 8.19,-14.065 3.745,-3.344 8.058,-5.011 12.943,-5.002 4.152,0.011 7.268,1.003 9.349,2.983 2.078,1.979 2.639,5.471 1.679,10.476 z"
   id="path10" />
		<path
   fill="#072a5e"
   d="m 300.278,73.902 c 1.679,-0.213 2.906,-0.479 3.686,-0.797 1.383,-0.557 2.25,-1.425 2.594,-2.607 0.409,-1.438 0.22,-2.432 -0.563,-2.981 -0.783,-0.549 -2.087,-0.824 -3.911,-0.829 -2.047,-0.005 -3.656,0.53 -4.82,1.602 -0.818,0.796 -1.528,1.867 -2.133,3.217 l -8.358,-0.015 c 1.075,-3.069 2.608,-5.591 4.604,-7.562 3.185,-3.087 7.563,-4.625 13.136,-4.613 3.629,0.008 6.632,0.775 9.015,2.304 2.381,1.529 2.963,4.409 1.748,8.638 l -4.641,16.102 c -0.322,1.116 -0.68,2.467 -1.081,4.058 -0.285,1.203 -0.35,2.019 -0.195,2.448 0.153,0.431 0.475,0.785 0.956,1.064 l -0.36,1.354 -9.421,-0.02 c -0.062,-0.707 -0.055,-1.375 0.019,-1.997 0.073,-0.622 0.197,-1.332 0.366,-2.125 -1.6,1.369 -3.311,2.539 -5.136,3.502 -2.206,1.133 -4.486,1.698 -6.835,1.695 -3.001,-0.007 -5.216,-0.92 -6.65,-2.736 -1.437,-1.817 -1.673,-4.391 -0.717,-7.72 1.242,-4.313 3.71,-7.435 7.405,-9.359 2.012,-1.049 4.764,-1.797 8.247,-2.24 z m 4.039,4.294 c -0.641,0.363 -1.276,0.656 -1.902,0.88 -0.626,0.226 -1.457,0.434 -2.485,0.624 l -2.042,0.383 c -1.934,0.341 -3.369,0.758 -4.302,1.248 -1.571,0.836 -2.606,2.133 -3.103,3.893 -0.461,1.567 -0.38,2.7 0.239,3.401 0.619,0.7 1.518,1.051 2.691,1.051 1.864,0.005 3.749,-0.573 5.653,-1.729 1.902,-1.155 3.331,-3.269 4.286,-6.339 z"
   id="path12" />
		<path
   fill="#072a5e"
   d="m 376.722,47.918 13.463,0.028 -13.605,47.465 -8.728,-0.016 9.185,-32.104 c 0.282,-0.924 0.672,-2.217 1.172,-3.882 0.498,-1.663 0.867,-2.947 1.107,-3.848 l -19.883,39.818 -9.085,-0.019 2.978,-39.851 c -0.24,0.903 -0.588,2.186 -1.047,3.85 -0.458,1.662 -0.829,2.957 -1.108,3.88 l -9.184,32.105 -8.724,-0.018 13.606,-47.467 13.619,0.027 -2.579,37.339 z"
   id="path14" />
		<path
   fill="#072a5e"
   d="m 394.559,60.327 8.785,0.018 -10.051,35.101 -8.783,-0.017 z m 9.996,-4.169 -8.785,-0.017 2.435,-8.47 8.784,0.018 z"
   id="path16" />
		<path
   fill="#072a5e"
   d="m 430.724,47.735 -2.165,7.471 c -0.46,-0.064 -1.257,-0.113 -2.387,-0.149 -1.132,-0.034 -2.001,0.233 -2.607,0.802 -0.607,0.567 -1,1.193 -1.182,1.881 -0.203,0.688 -0.489,1.673 -0.863,2.963 l 5.685,0.012 -1.868,6.47 -5.684,-0.01 -8.094,28.306 -8.636,-0.018 8.096,-28.305 -4.833,-0.011 1.868,-6.471 4.742,0.01 0.648,-2.254 c 1.075,-3.757 2.412,-6.344 4.014,-7.76 1.864,-2.1 5.195,-3.145 9.998,-3.136 0.548,10e-4 1.036,0.019 1.471,0.051 0.434,0.032 1.035,0.083 1.797,0.148 z"
   id="path18" />
		<path
   fill="#072a5e"
   d="m 456.385,66.344 c 0.712,2.084 0.858,4.5 0.44,7.25 -0.22,1.609 -0.786,3.928 -1.697,6.956 l -22.677,-0.045 c -0.888,3.521 -0.556,5.991 1.005,7.413 0.937,0.884 2.245,1.324 3.927,1.326 1.786,0.005 3.393,-0.527 4.822,-1.599 0.759,-0.58 1.528,-1.384 2.306,-2.412 l 8.846,0.016 c -0.827,2.083 -2.461,4.196 -4.896,6.338 -3.821,3.408 -8.285,5.107 -13.39,5.099 -4.217,-0.01 -7.521,-1.455 -9.919,-4.338 -2.395,-2.885 -2.666,-7.564 -0.81,-14.05 1.742,-6.072 4.529,-10.73 8.367,-13.967 3.834,-3.235 8.072,-4.851 12.715,-4.841 2.754,0.005 5.081,0.558 6.986,1.657 1.9,1.1 3.227,2.833 3.975,5.197 z m -21.98,8.106 13.467,0.027 c 0.553,-2.426 0.382,-4.268 -0.512,-5.526 -0.897,-1.258 -2.267,-1.889 -4.111,-1.893 -2.005,-0.004 -3.749,0.659 -5.231,1.988 -1.484,1.33 -2.687,3.132 -3.613,5.404 z"
   id="path20" />
		<path
   fill="#072a5e"
   d="m 465.323,95.584 -8.664,-0.018 13.609,-47.464 8.663,0.014 z"
   id="path22" />
	</g>
</g>
</svg>
