<?xml version="1.0" encoding="UTF-8" standalone="no"?>
<svg
   xmlns:dc="http://purl.org/dc/elements/1.1/"
   xmlns:cc="http://creativecommons.org/ns#"
   xmlns:rdf="http://www.w3.org/1999/02/22-rdf-syntax-ns#"
   xmlns:svg="http://www.w3.org/2000/svg"
   xmlns="http://www.w3.org/2000/svg"
   width="272.63544"
   height="39.695038"
   viewBox="0 0 72.134799 10.502645"
   version="1.1"
   id="svg8">
  <g
     id="g122">
    <path
       id="path10364"
       d="M 6.7303354,8.3680587 C 6.8929438,7.9725617 6.9714922,7.5467479 6.9604679,7.1195562 6.9756268,6.4911708 6.7592741,5.8779435 6.3527528,5.3970082 5.8993782,4.8981582 5.1235426,4.4833687 4.0486727,4.1677981 3.8405892,4.1140545 3.6380175,4.0410185 3.4423359,3.9514461 3.2728371,3.8687638 3.1212531,3.7557645 2.9930956,3.6179607 2.859426,3.4663767 2.7891459,3.2693171 2.7987919,3.0667454 c 0.00413,-0.2949 0.1694988,-0.5649955 0.4313263,-0.7014214 0.5360568,-0.2356446 1.1465278,-0.2356446 1.6812067,0 0.2384005,0.086816 0.4671547,0.1943033 0.6862629,0.3210828 L 6.5002029,0.88806696 C 6.0964378,0.63864212 5.6623557,0.44709471 5.2062249,0.31618098 4.7363139,0.19491361 4.2540004,0.13290198 3.7689309,0.13290198 3.3072883,0.12463375 2.8484017,0.20042577 2.4143195,0.35614401 2.0284688,0.50635044 1.677069,0.73648292 1.3835469,1.0286267 1.0886465,1.3235271 0.85438019,1.6749269 0.69728365,2.0607776 0.54156541,2.4576526 0.46439527,2.8820884 0.46715152,3.3079022 0.49195603,3.9886533 0.77996594,4.6321969 1.2677917,5.106242 1.7335684,5.5141414 2.2792716,5.8200661 2.8704503,6.0019671 3.1515697,6.1094539 3.4630066,6.2059168 3.6614441,6.281709 c 0.2039496,0.07717 0.3996313,0.1750106 0.581532,0.2949 0.1309137,0.093707 0.2370229,0.2163519 0.3100588,0.3596679 0.06339,0.1364259 0.086816,0.2866319 0.067524,0.4354601 C 4.5998895,7.5977353 4.4910233,7.8071971 4.3187683,7.9546473 4.0362705,8.1599749 3.6890048,8.2550598 3.3417392,8.2233648 2.9310836,8.2123405 2.5273185,8.1158777 2.1552483,7.9394888 1.8300313,7.7837705 1.5144606,7.6087596 1.2099139,7.4144563 L 0.13228813,9.2665397 c 0.85024953,0.6986655 1.91271717,1.0858943 3.01101357,1.0969183 0.5443252,0 1.0858941,-0.08544 1.6026586,-0.254937 C 5.1910664,9.9596931 5.6030999,9.7295606 5.9613899,9.429148 6.2893632,9.1328701 6.5511903,8.7718239 6.7303354,8.3680587 Z m 0,0"
       style="fill:#eb0f19;fill-opacity:1;fill-rule:nonzero;stroke:none;stroke-width:0.352778" />
    <path
       id="path10370"
       d="M 12.548413,7.7892827 C 12.006844,8.4645216 11.021546,8.5733864 10.346308,8.0331954 9.6710689,7.4916264 9.5608259,6.504951 10.101017,5.8297124 c 0.541569,-0.6766169 1.526866,-0.785482 2.202105,-0.245291 0.08957,0.071658 0.172255,0.1529624 0.245291,0.2411568 L 13.952634,4.415845 C 13.281529,3.6744602 12.326549,3.2527806 11.326093,3.2541586 9.3679005,3.2472685 7.6784258,4.6459774 7.6784258,6.8039852 c 0,2.1566302 1.7073895,3.5594728 3.6655822,3.5594728 1.001833,0 1.956814,-0.4230577 2.630675,-1.1644421 z m 0,0"
       style="fill:#eb0f19;fill-opacity:1;fill-rule:nonzero;stroke:none;stroke-width:0.352778" />
    <path
       id="path10352"
       d="m 17.596167,3.2472685 c -1.965083,-0.00276 -3.559473,1.5902563 -3.560851,3.5567167 -0.0014,1.9678387 1.591635,3.5622288 3.556717,3.5636068 1.965083,0 3.558095,-1.5943898 3.558095,-3.5608505 0,-1.9650828 -1.590256,-3.5580951 -3.553961,-3.559473 z m 0,5.1276804 c -0.865408,-0.00551 -1.562695,-0.7124458 -1.558561,-1.5792317 0.0041,-0.8654081 0.708312,-1.5654515 1.57372,-1.5640736 0.865408,0.00275 1.566829,0.7055556 1.566829,1.5723416 0,0.4175457 -0.166742,0.8199329 -0.464399,1.1148329 -0.296278,0.2949004 -0.698665,0.458887 -1.117589,0.4561308 z m 0,0"
       style="fill:#eb0f19;fill-opacity:1;fill-rule:nonzero;stroke:none;stroke-width:0.352778" />
    <path
       id="path10354"
       d="M 25.682496,3.4153893 H 24.712357 V 1.316637 h -2.127691 v 2.0987523 h -0.970139 v 1.9278753 h 0.970139 v 4.8506944 h 2.127691 V 5.3432646 h 0.970139 z m 0,0"
       style="fill:#eb0f19;fill-opacity:1;fill-rule:nonzero;stroke:none;stroke-width:0.352778" />
    <path
       id="path10358"
       d="m 27.719237,0.13290198 c -0.479558,-0.001378 -0.91364,0.28663196 -1.098297,0.73036011 -0.184657,0.44235051 -0.08406,0.95360281 0.254937,1.29397801 0.338997,0.3403756 0.85025,0.4423506 1.2926,0.2590712 0.443728,-0.183279 0.733116,-0.6159832 0.733116,-1.0969184 0,-0.65319002 -0.527789,-1.18511288 -1.182356,-1.18649092 z m 0,0"
       style="fill:#eb0f19;fill-opacity:1;fill-rule:nonzero;stroke:none;stroke-width:0.352778" />
    <path
       id="path10356"
       d="m 26.655391,3.4153893 h 2.124935 v 6.7758137 h -2.124935 z m 0,0"
       style="fill:#eb0f19;fill-opacity:1;fill-rule:nonzero;stroke:none;stroke-width:0.352778" />
    <path
       id="path10372"
       d="M 37.091273,10.202228 V 3.4153893 h -2.06981 V 4.1347251 L 34.827158,3.9666047 C 34.344845,3.5035838 33.699922,3.2445122 33.031574,3.2472685 c -1.830035,0 -3.374816,1.6288411 -3.374816,3.5567167 0,1.9264977 1.548915,3.5594728 3.374816,3.5594728 0.668348,0.0014 1.313271,-0.256315 1.795584,-0.7193356 L 35.021463,9.4746236 V 10.193959 Z M 33.376084,8.4038876 c -0.884701,-0.00551 -1.597147,-0.7276042 -1.591635,-1.6123046 0.0041,-0.8847004 0.72347,-1.5985245 1.608171,-1.5957686 0.8847,0.00413 1.598525,0.7234704 1.597145,1.6081708 -0.0014,0.4258141 -0.172254,0.8350914 -0.475422,1.1355036 -0.30179,0.3004125 -0.712446,0.467155 -1.138259,0.4643988 z m 0,0"
       style="fill:#eb0f19;fill-opacity:1;fill-rule:nonzero;stroke:none;stroke-width:0.352778" />
    <path
       id="path10376"
       d="M 40.264898,10.202228 V 9.4828916 l 0.190168,0.1681209 c 0.48369,0.4630205 1.127235,0.7207145 1.796962,0.7193355 1.828656,0 3.373438,-1.6288408 3.373438,-3.5594723 0,-1.9306319 -1.544782,-3.5567171 -3.373438,-3.5567171 -0.669727,-0.00138 -1.313272,0.2563153 -1.796962,0.7193362 L 40.264898,4.1429936 V 0.30240078 H 38.190949 V 10.202228 Z m 0.04272,-3.3913523 c -0.0041,-0.6504341 0.383095,-1.2374786 0.982542,-1.4896597 0.598068,-0.2521807 1.288465,-0.1171331 1.75011,0.3403756 0.460262,0.4575087 0.599443,1.1492841 0.351398,1.7501084 -0.246669,0.5994467 -0.832337,0.9921876 -1.481391,0.9921876 -0.883324,0 -1.599904,-0.7165799 -1.602659,-1.5999024 z m 0,0"
       style="fill:#eb0f19;fill-opacity:1;fill-rule:nonzero;stroke:none;stroke-width:0.352778" />
    <path
       id="path10374"
       d="M 53.783452,10.202228 V 3.4153893 H 51.713638 V 4.1347251 L 51.519335,3.9666047 c -0.48369,-0.4630209 -1.127234,-0.7207142 -1.796962,-0.7193362 -1.828655,0 -3.373438,1.6288411 -3.373438,3.5567167 0,1.9264977 1.548917,3.5594728 3.373438,3.5594728 0.669728,0.0014 1.313272,-0.256315 1.796962,-0.7193356 L 51.713638,9.4746236 V 10.193959 Z M 50.082041,8.4038876 c -0.886079,0.00138 -1.605414,-0.7152016 -1.606794,-1.6012803 -0.0014,-0.8860787 0.71658,-1.6054145 1.602659,-1.6067929 0.884703,0 1.602659,0.7179583 1.602659,1.604037 0,0.8847004 -0.7152,1.6012803 -1.598524,1.6040362 z m 0,0"
       style="fill:#eb0f19;fill-opacity:1;fill-rule:nonzero;stroke:none;stroke-width:0.352778" />
    <path
       id="path10360"
       d="m 58.193175,5.2426679 c 0.697286,0.00275 1.262281,0.5677518 1.263661,1.2664173 v 3.6931428 h 2.124936 V 6.2458798 c 0,-1.7983399 -1.03904,-2.9696726 -2.681662,-2.9696726 -0.675241,0 -1.386307,0.2949004 -1.971975,1.2443687 V 3.4415718 h -2.127691 v 6.7606562 h 2.109777 V 6.5090852 c 0,-0.3389976 0.136426,-0.6628367 0.377581,-0.9012372 0.241159,-0.2370226 0.566375,-0.3693143 0.905373,-0.3651801 z m 0,0"
       style="fill:#eb0f19;fill-opacity:1;fill-rule:nonzero;stroke:none;stroke-width:0.352778" />
    <path
       id="path10362"
       d="M 69.324969,10.193959 66.716343,6.8067415 69.14169,3.4153893 H 66.658463 L 64.707161,6.1604416 V 0.30240078 H 62.583604 V 10.193959 h 2.123557 V 7.4006757 l 2.141474,2.7932833 z m 0,0"
       style="fill:#eb0f19;fill-opacity:1;fill-rule:nonzero;stroke:none;stroke-width:0.352778" />
    <path
       id="path10366"
       d="m 70.824275,7.8251118 c -0.480935,-0.00275 -0.915018,0.2838758 -1.101055,0.726226 -0.186034,0.4423505 -0.08682,0.9536024 0.250804,1.2953559 0.337619,0.3417533 0.847492,0.4451063 1.292599,0.2632053 0.443731,-0.1832789 0.734494,-0.6146051 0.735873,-1.0955404 0.0014,-0.65319 -0.525032,-1.1851129 -1.178221,-1.1892468 z m 0,2.131825 C 70.4398,9.9583126 70.092536,9.7281826 69.945085,9.3740265 69.796256,9.0184928 69.87756,8.6105935 70.147657,8.3377417 70.419131,8.0648903 70.82703,7.983586 71.182563,8.1310362 c 0.354157,0.1460722 0.585667,0.4919595 0.585667,0.8764323 0.0014,0.2521811 -0.09784,0.4933379 -0.275607,0.6711047 -0.176389,0.1777669 -0.417548,0.2783636 -0.668348,0.2783636 z m 0,0"
       style="fill:#eb0f19;fill-opacity:1;fill-rule:nonzero;stroke:none;stroke-width:0.352778" />
    <path
       id="path10368"
       d="M 70.82014,9.205906 H 70.629972 V 9.6551467 H 70.399837 V 8.3611686 h 0.491959 c 0.238401,0 0.431328,0.1929254 0.431328,0.4313259 -0.0041,0.1626084 -0.100598,0.3086806 -0.248049,0.3775827 l 0.272852,0.4850695 H 71.068185 Z M 70.629972,8.9895541 h 0.272849 c 0.108867,0 0.197061,-0.088194 0.197061,-0.1970596 0,-0.110243 -0.08819,-0.1984375 -0.197061,-0.1984375 h -0.272849 z m 0,0"
       style="fill:#eb0f19;fill-opacity:1;fill-rule:nonzero;stroke:none;stroke-width:0.352778" />
  </g>
 </svg>
