<?xml version="1.0" encoding="utf-8"?>
<!-- Generator: Adobe Illustrator 27.2.0, SVG Export Plug-In . SVG Version: 6.00 Build 0)  -->
<svg version="1.1" id="Capa_1" xmlns="http://www.w3.org/2000/svg" xmlns:xlink="http://www.w3.org/1999/xlink" x="0px" y="0px"
	 viewBox="0 0 1080 1080" style="enable-background:new 0 0 1080 1080;" xml:space="preserve">
<path d="M971.6,653.1c-287.8,0.1-575.5,0.1-863.2,0c-7.8,0-13.5,2.4-17.4,9.1c0,2.9,0,5.9,0.1,8.8c4.4,6.8,10.6,8.7,18.6,8.7
	c286.9-0.2,573.8-0.2,860.7,0c7.9,0,14.2-2,18.6-8.7c0-3,0-5.9,0-8.8C985.1,655.5,979.5,653.1,971.6,653.1z"/>
<path d="M979.5,598c-7-0.6-8.2-4.7-9.7-10c-10.1-35.6-27-67.7-51.3-95.7c-10.2-11.8-19.5-10.5-26.5,3.2
	c-5.7,11.1-11.3,22.3-17.3,34.2c-28.5-30.4-61.3-53.4-97-73.1c-0.4-0.2-0.8-0.5-1.2-0.8h-0.1c-0.2-0.1-0.4-0.2-0.6-0.3
	c-0.2-0.1-0.3-0.2-0.4-0.3c-7.2-3.8-14.2-8.8-22.1-10.5c-1.7,5-3.6,9.8-5.6,14.6c-0.1,2.3-0.2,4.5-0.5,6.7c1.6,16.9-2.9,35.2-3,51.9
	c0,0.9-0.1,1.6-0.3,2.4c0,0,0,0,0,0.1c0,0.9-0.1,1.8-0.2,2.7h0.1c-0.2,2.5-0.3,5-0.5,7.5c0,0,0,0.1,0.1,0.1
	c-0.4,4.2-0.7,8.4-1.1,12.6c0,0.2,0,0.5,0.1,0.7c-0.5,7.2-1,14.7-1.5,22.9c-6.3-8.2-11.2-14.6-16.4-21.4c-1.1-0.9-2.1-1.9-3-3.1
	c-1.3-1.7-2.9-3.4-4.2-5.1c-0.3-0.3-0.5-0.7-0.7-1.1c-2.5-2.6-4.6-5.6-6.4-8.8c-0.3-0.3-0.6-0.6-0.9-0.9c-0.5-0.6-1-1.2-1.6-1.7
	c-0.8-0.8-1.4-1.7-2-2.6c-1.5-1.4-3-2.8-4.3-4.3c-1-0.7-1.8-1.6-2.5-2.6c-21.1-16.9-41.8-33.4-62.7-50.1c-5.1-3.3-10.3-6.6-15.4-9.8
	c-6.3-2.9-12.3-6.3-18.2-10c-1.9-0.8-3.7-1.6-5.4-2.6c-0.1,0-0.1-0.1-0.2-0.1c0,0,0,0-0.1,0.1c-7.1-3-13.7-6.1-20.5-8.5
	c-10.8-3.7-19.5,3.5-18.1,14.8c0.6,4.9,1.4,9.9,2.3,15.5l6.9,44.7c1.6,10.1,3.1,20.5,4.7,31.7c-17.6-18.7-34.1-36.1-51.4-54.4
	l-45-37.2c-0.6-0.1-1.1-0.4-1.7-0.7c-6.6-1.7-14.4-1.8-20.6,0.7c-2.9,1.1-5.4,3-7.7,5c-0.8,0.6-1.5,1.4-2.3,2.1
	c-0.4,0.6-0.8,1.1-1.3,1.6c0,0,0,0.1-0.1,0.1c0,0.1-0.1,0.1-0.1,0.2c-9.3,10.8-19,21.1-29.5,32.6c-1-5-1.7-8.4-2.3-11.8
	c-3.9-22.1-7.6-44.3-11.9-66.4c-2.1-11-10.1-14.7-20.2-10.1c-2.9,1.3-5.8,2.9-8.5,4.5c-38.4,22-68,53-91.5,90.1
	c-1.6,2.4-3.3,4.8-6.2,9c0-21.7-0.1-40.6,0-59.6c0-6.3-0.2-12.5-6.5-16c-6.6-3.7-12.5-1.2-17.9,2.7c-12.2,8.5-24.9,16.5-36.2,26.1
	c-42.9,35.8-74.5,80.3-98.5,130.5c-1.4,3-4.5,7.2-7,7.3c-7.1,0.4-11.3,3.9-14.7,9.4v8.8c4.5,6.7,10.8,8.6,18.7,8.6
	C354.4,624,599,624,843.6,624c2.9,0,5.9,0.1,8.7-0.6c6.8-1.8,10.6-6.6,10-13.5c-0.5-6.8-4.6-11.5-11.8-11.9
	c-8.4-0.4-16.8-0.1-26.6-0.1c1.8-24.7,3.5-48.4,5.3-72.2c0.7-0.5,1.3-1,2-1.5c9.8,10.1,20.9,19.2,29.1,30.4
	c12.7,17.4,25,18.3,34.3-4.5c3.7-9.1,8.7-17.6,13.9-27.8c17.1,23.2,28.9,47.5,36.7,75.3c-12.5,0-24-0.1-35.5,0
	c-11,0.1-17,4.8-16.9,13.2s6.1,13,17.3,13c20.2,0.1,40.3-0.3,60.5,0.1c8,0.2,14.2-1.9,18.7-8.6v-8.8
	C985.8,603.2,982.9,598.3,979.5,598z M235.9,591.2c-1,2.5-4.5,5.5-6.9,5.6c-29.5,0.4-59,0.2-90.6,0.2
	c26.2-52.2,59.2-96.5,106.5-131.2c0.3,3.8,0.6,6.2,0.6,8.7c0,19.3-0.8,38.6,0.2,57.8C246.9,552.9,243.4,572.3,235.9,591.2z
	 M503.1,596.5h-68.7c11.1-14.5,21.4-28,33.1-43.4c12.8,14.3,25,27.9,37.2,41.4C504.2,595.2,503.7,595.9,503.1,596.5z M539.9,596.7
	c-2.6-0.2-5.6-3.6-7.3-6.2c-15.4-23.7-33.8-44.7-55.8-62.4c-11.1-8.9-16.9-8.2-25.5,3.1c-15.5,20.2-30.7,40.5-46.4,60.5
	c-2,2.6-5.9,5.1-9,5.2c-43.2,0.3-86.5,0.2-129.7,0.2c-0.9,0-1.7-0.3-4.2-0.8c21-65.7,53.6-122.5,113.5-162.7
	c3,16.8,5.7,32.2,8.5,47.6c2.3,12.9,3.9,26,7.2,38.7c1.2,4.6,5.6,10.2,9.8,11.5c3.7,1.2,10.5-1.4,13.6-4.6
	c15.9-16.3,31.1-33.3,46.8-50.4C506,503.4,563.6,565,573.9,597C562.4,597,551.1,597.4,539.9,596.7z M720.6,597
	c-35,0-70.1-0.1-105.1,0.2c-6.3,0.1-8.3-1.8-9.2-8.1c-5.3-36.7-11.2-73.3-16.8-109.9c-0.5-3.1-0.6-6.2-0.9-10.8
	c57.9,31,104.4,72.1,139.4,127.8C724.8,596.5,722.7,597,720.6,597z M797.4,596.5H765c2.6-37.4,5.2-74.1,7.9-112.5
	c10.3,6.5,19.2,11.9,27.8,17.7c1.6,1.1,3.2,3.7,3.1,5.5C801.9,536.8,799.7,566.4,797.4,596.5z"/>
</svg>
