<?xml version="1.0" encoding="utf-8"?>
<!-- Generator: Adobe Illustrator 27.2.0, SVG Export Plug-In . SVG Version: 6.00 Build 0)  -->
<svg version="1.1" id="Capa_1" xmlns="http://www.w3.org/2000/svg" xmlns:xlink="http://www.w3.org/1999/xlink" x="0px" y="0px"
	 viewBox="0 0 1080 1080" style="enable-background:new 0 0 1080 1080;" xml:space="preserve">
<style type="text/css">
	.st0{display:none;}
	.st1{clip-path:url(#SVGID_00000156566227409718151030000016457727851283501479_);stroke:#000000;stroke-miterlimit:10;}
	.st2{fill:none;stroke:#000000;stroke-width:21;stroke-miterlimit:10;}
</style>
<g>
	<path d="M91,747c3.4-5.4,7.6-9,14.7-9.4c2.5-0.1,5.6-4.3,7-7.3c23.9-50.2,55.6-94.7,98.5-130.5c11.4-9.5,24.1-17.5,36.2-26.1
		c5.4-3.8,11.3-6.4,17.9-2.7c6.4,3.6,6.6,9.7,6.5,16c-0.1,19,0,38,0,59.6c2.9-4.2,4.6-6.6,6.2-9c23.6-37.1,53.1-68.1,91.5-90.1
		c2.8-1.6,5.6-3.1,8.5-4.5c10.1-4.6,18.1-1,20.2,10.1c4.2,22.1,7.9,44.2,11.9,66.4c0.6,3.4,1.3,6.8,2.3,11.8
		c10.5-11.5,20.2-21.8,29.5-32.6c1.4-1.6,1.2-5.5,0.4-8c-9-29.3-18.1-58.5-27.5-87.7c-0.9-2.8-3.8-6.2-6.4-6.8
		c-28.7-6.8-57.5-13-86.3-19.4c-1.4-0.3-2.8-0.2-6.5-0.5c-0.4,17-0.9,33.5-1.1,50c-0.1,5.2,1.1,10.5,1.2,15.7
		c0.3,8.2-3.9,13.4-11.1,14.3c-7.3,1-13.8-3.4-14.7-11.7c-1.4-13.9-2.7-28-2.1-42c4.7-119.6,90.5-218,208.5-239.5
		c137.7-25.1,273.2,72.7,292.8,211.1c5.6,39.5,2.5,78-9.8,115.9c-0.7,2.2-1.2,4.4-1.9,7c35.7,19.7,68.5,42.8,97,73.1
		c6-11.9,11.6-23,17.3-34.2c7-13.7,16.2-15,26.5-3.2c24.3,28,41.2,60.1,51.3,95.7c1.5,5.3,2.7,9.3,9.7,10c3.4,0.3,6.4,5.3,9.5,8.1
		c0,2.9,0,5.8,0,8.8c-4.5,6.6-10.8,8.7-18.7,8.6c-20.2-0.4-40.3-0.1-60.5-0.2c-11.1,0-17.1-4.6-17.3-13c-0.1-8.4,5.9-13.2,16.9-13.2
		c11.5-0.1,23.1,0,35.5,0c-7.8-27.9-19.6-52.1-36.7-75.3c-5.1,10.2-10.2,18.7-13.9,27.8c-9.2,22.8-21.5,21.9-34.3,4.5
		c-8.2-11.2-19.3-20.4-29.1-30.4c-0.7,0.5-1.3,1-2,1.5c-1.7,23.7-3.5,47.4-5.3,72.2c9.8,0,18.2-0.3,26.6,0.1
		c7.2,0.4,11.3,5.1,11.8,11.9c0.5,6.9-3.2,11.7-10,13.5c-2.8,0.7-5.8,0.6-8.7,0.6c-244.6,0-489.2,0-733.8,0.1
		c-8,0-14.2-1.9-18.7-8.6C91,752.8,91,749.9,91,747z M596.9,583.5c14.1-15.3,28.2-30.5,42-46c1.6-1.8,1.8-5.9,1-8.5
		c-9-29.3-18.1-58.5-27.7-87.6c-1-3.1-4.7-6.8-7.8-7.5c-29.5-7-59.2-13.3-88.8-20c-5.2-1.2-8.5,0.1-12.1,4
		c-20.1,22.4-40.7,44.4-60.8,66.8c-2.1,2.4-3.4,7.4-2.5,10.4c8.8,29.3,18,58.5,27.6,87.6c1,3,4.8,6.5,7.9,7.3
		c13.8,3.7,27.8,6.5,41.8,9.5c14.1,3.1,28.2,6.2,43.5,9.5c-1.1-7.3-2.1-13.3-2.9-19.3c-1.4-11.3,7.4-18.6,18.1-14.8
		C583.3,577.4,589.8,580.5,596.9,583.5z M461.4,617.1c-15.8,17.1-30.9,34.1-46.8,50.4c-3.1,3.2-9.9,5.9-13.6,4.6
		c-4.2-1.4-8.6-7-9.8-11.5c-3.3-12.7-4.9-25.8-7.2-38.7c-2.7-15.4-5.5-30.8-8.5-47.6c-59.9,40.2-92.5,97-113.5,162.7
		c2.5,0.5,3.4,0.8,4.2,0.8c43.2,0,86.5,0.2,129.7-0.2c3,0,7-2.6,9-5.2c15.7-20,30.9-40.3,46.4-60.5c8.7-11.3,14.4-12,25.5-3.1
		c22.1,17.7,40.4,38.7,55.8,62.4c1.7,2.6,4.7,6.1,7.3,6.2c11.2,0.7,22.5,0.3,34,0.3C563.6,705.9,506,644.3,461.4,617.1z
		 M322.6,450.1c30.8,6.8,60.1,13.2,89.4,20c5.5,1.3,8.5-0.2,12-4c20.2-22.3,40.5-44.5,61.1-66.5c3.5-3.8,3.9-6.9,2.4-11.6
		c-7.9-24.4-15.5-48.9-23.2-73.4c-1.4-4.4-2.9-8.7-4.7-13.9C390.4,329.5,344.9,378.4,322.6,450.1z M485.1,293.6
		c9,28.6,18.1,56.6,26.5,84.8c2,6.6,5.2,9.3,11.6,10.6c23.1,4.7,46.6,8.6,69.1,15.5c17.8,5.5,29.3,1.9,40.8-12.7
		c15-19.2,32.6-36.3,49.1-54.3C628.6,290.4,544.8,275.5,485.1,293.6z M762.1,547.8c15.5-58.1-17.3-160.8-60.9-192.1
		c-20.9,22.7-41.9,45.4-62.5,68.5c-1.7,1.9-1.7,6.5-0.8,9.4c6.8,22.6,15.6,44.8,20.6,67.8c4.3,19.8,13.9,28.9,34,31.5
		C715.8,535.9,738.7,542.6,762.1,547.8z M588.5,609.3c0.4,4.6,0.5,7.7,0.9,10.8c5.6,36.6,11.5,73.2,16.8,109.9
		c0.9,6.3,2.9,8.2,9.2,8.1c35-0.3,70.1-0.1,105.1-0.2c2.1,0,4.2-0.4,7.3-0.8C692.9,681.4,646.4,640.3,588.5,609.3z M707.7,663.1
		c22.7-24.9,39.6-54.8,49.3-89.5c-31.4-7-61.8-13.8-92.3-20.4c-1.6-0.4-4.3,0.2-5.3,1.4c-12.9,13.8-25.7,27.8-37.1,40.2
		C650.8,617.7,678.8,640,707.7,663.1z M138.4,737.9c31.7,0,61.2,0.1,90.6-0.2c2.4,0,5.9-3.1,6.9-5.6c7.5-18.9,11-38.3,9.8-58.9
		c-1-19.2-0.2-38.5-0.2-57.8c0-2.4-0.3-4.9-0.6-8.7C197.6,641.4,164.7,685.8,138.4,737.9z M797.4,737.4c2.2-30.1,4.5-59.7,6.5-89.3
		c0.1-1.8-1.5-4.5-3.1-5.5c-8.7-5.8-17.6-11.2-27.8-17.7c-2.7,38.4-5.3,75.1-7.9,112.5C776,737.4,786.1,737.4,797.4,737.4z
		 M503.1,737.4c0.5-0.6,1.1-1.3,1.6-1.9c-12.2-13.6-24.4-27.2-37.2-41.4c-11.7,15.3-22,28.8-33.1,43.4
		C458.7,737.4,480.9,737.4,503.1,737.4z M572.2,681.7c-2.2-14.6-4-27.8-6.3-40.9c-0.3-1.7-2.6-3.9-4.4-4.3
		c-13.2-3.2-26.5-6-40.7-9.2C538.1,645.6,554.6,663,572.2,681.7z M743.7,663.8c-0.6-0.2-1.2-0.4-1.8-0.5c-6,7.3-12.1,14.6-18.3,22.1
		c5.5,7.1,10.6,13.7,17.1,22.3C741.9,691.3,742.8,677.6,743.7,663.8z"/>
	<path d="M91,803.1c3.9-6.7,9.6-9.1,17.4-9.1c287.7,0.1,575.4,0.1,863.2,0c7.9,0,13.5,2.4,17.4,9.1c0,2.9,0,5.8,0,8.8
		c-4.4,6.7-10.7,8.7-18.6,8.7c-286.9-0.2-573.8-0.2-860.7,0c-8,0-14.2-1.9-18.6-8.7C91,809,91,806,91,803.1z"/>
</g>
</svg>
