<?xml version="1.0" encoding="utf-8"?>
<!-- Generator: Adobe Illustrator 27.2.0, SVG Export Plug-In . SVG Version: 6.00 Build 0)  -->
<svg version="1.1" id="Capa_1" xmlns="http://www.w3.org/2000/svg" xmlns:xlink="http://www.w3.org/1999/xlink" x="0px" y="0px"
	 viewBox="0 0 1080 1080" style="enable-background:new 0 0 1080 1080;" xml:space="preserve">
<style type="text/css">
	.st0{fill:#8FB336;}
</style>
<g>
	<path class="st0" d="M145.4,807.9c-35.7-35.7-53.6-80.6-53.6-134.8c0-101.7,29.7-192.1,89.3-271.2c59.5-79,128.3-139.1,206.2-180.2
		l13-3.2c4.3,0,8.1,2.2,11.4,6.5c3.2,4.4,4.9,8.7,4.9,13c0,6.5-2.2,11.9-6.5,16.2C330,325.7,289.9,391.7,289.9,452.3
		c0,34.7,15.1,58.5,45.5,71.4c34.6,17.4,62.2,37.9,82.8,61.7c20.6,23.8,30.9,56.3,30.9,97.4c0,49.8-16.8,92-50.3,126.7
		c-33.6,34.7-75.3,52-125,52C223.9,861.5,181.2,843.6,145.4,807.9z M684.5,807.9c-35.7-35.7-53.6-80.6-53.6-134.8
		c0-101.7,29.7-192.1,89.3-271.2c59.5-79,128.3-139.1,206.2-180.2l13-3.2c4.3,0,8.1,2.2,11.4,6.5c3.2,4.4,4.9,8.7,4.9,13
		c0,6.5-2.2,11.9-6.5,16.2C869.1,325.7,829,391.7,829,452.3c0,34.7,15.1,58.5,45.5,71.4c34.6,17.4,62.2,37.9,82.8,61.7
		c20.6,23.8,30.9,56.3,30.9,97.4c0,49.8-16.8,92-50.3,126.7c-33.6,34.7-75.3,52-125,52C763,861.5,720.2,843.6,684.5,807.9z"/>
</g>
</svg>
