<?xml version="1.0" encoding="utf-8"?>
<!-- Generator: Adobe Illustrator 27.2.0, SVG Export Plug-In . SVG Version: 6.00 Build 0)  -->
<svg version="1.1" id="Capa_1" xmlns="http://www.w3.org/2000/svg" xmlns:xlink="http://www.w3.org/1999/xlink" x="0px" y="0px"
	 viewBox="0 0 160 57.7" style="enable-background:new 0 0 160 57.7;" xml:space="preserve">
<style type="text/css">
	.st0{fill:#201D1E;}
	.st1{fill:#A6CD45;}
	.st2{fill:#FFFFFF;}
</style>
<path class="st1" d="M0,30.5c0-4.9,0-9.7,0-14.6c0-0.2,0-0.4,0-0.6c0-0.2,0.1-0.3,0.2-0.3c0.3-0.2,0.5-0.4,0.8-0.5
	c1.6-1,3.2-2,4.8-2.9c5-2.9,10-5.8,15.1-8.6c1.5-0.8,3-1.6,4.4-2.3c0.4-0.2,0.8-0.4,1.2-0.5C26.7,0,26.8,0,27,0.1
	c0.3,0.1,0.5,0.3,0.8,0.4c1.4,0.8,2.9,1.6,4.3,2.4c4.3,2.4,8.5,4.8,12.8,7.3c2.5,1.4,5,2.9,7.4,4.4c0.3,0.2,0.5,0.3,0.8,0.5
	c0.1,0.1,0.2,0.2,0.2,0.3c0,0.2,0,0.4,0,0.5c0,9.8,0,19.5,0,29.3c0,0.8,0.1,0.6-0.6,1c-2.1,1.4-4.3,2.7-6.5,4
	c-0.8,0.5-1.7,0.9-2.6,1.3c-0.2,0.1-0.3,0.1-0.5,0.2c0,0-0.1-0.1-0.1-0.1c0-0.4,0-0.9,0-1.3c0.1-1.3,0.4-2.6,0.7-3.9
	c0.4-1.7,0.8-3.3,1.3-4.9c0.8-2.7,1.6-5.3,2.4-7.9c0.4-1.3,0.8-2.7,1.1-4c0.1-0.3,0.1-0.5,0.2-0.8c0,0,0-0.1-0.1-0.1
	c0,0-0.1,0-0.1,0c-0.3,0.2-0.6,0.4-0.8,0.6c-0.8,0.7-1.5,1.5-2.2,2.3c-1.1,1.3-2,2.6-2.9,4c-1.7,2.7-3.1,5.5-4.4,8.5
	c-0.7,1.6-1.3,3.3-1.9,5c-0.4,1.3-0.7,2.6-0.9,3.9c-0.1,0.7-0.2,1.4-0.4,2c-0.1,0.4-0.2,0.8-0.4,1.2c-0.2,0.3-0.3,0.6-0.6,0.9
	c-0.4,0.4-1,0.7-1.6,0.7c-0.2,0-0.3-0.1-0.3-0.3c-0.1-0.7-0.1-1.3-0.2-2c-0.1-1.4-0.3-2.7-0.5-4.1c-0.4-2.6-0.9-5.1-1.6-7.7
	c-1.2-4.5-3-8.8-5.1-12.9c-0.9-1.7-1.9-3.2-2.9-4.8c-1.5-2.2-3.1-4.4-4.9-6.5c-1.3-1.5-2.6-3-4.1-4.3c-0.6-0.5-1.2-1-1.8-1.4
	c-0.1-0.1-0.2-0.1-0.3-0.2c0,0-0.1,0-0.1,0c0,0-0.1,0.1-0.1,0.1c0.1,0.3,0.1,0.6,0.2,0.9c0.4,1.4,0.9,2.8,1.3,4.2
	c0.4,1,0.8,2.1,1.1,3.1c0.7,1.9,1.3,3.9,1.9,5.8c0.8,2.6,1.5,5.1,2.2,7.7c0.7,2.8,1.4,5.7,2,8.6c0.2,1,0.4,1.9,0.5,2.9
	c0.2,1.5,0.5,3.1,0.6,4.6c0.2,1.6,0.3,3.2,0.4,4.8c0,0.4,0,0.8,0,1.2c0,0.1,0,0.1-0.1,0.1c-0.7-0.2-1.3-0.4-1.8-1
	c-0.2-0.2-0.2-0.4-0.3-0.6c-0.1-0.4-0.2-0.8-0.3-1.2c-0.2-2-0.6-4-1.1-5.9c-0.8-3-1.8-5.9-3.2-8.7c-1.6-3.3-3.5-6.5-5.8-9.4
	c-0.7-1-1.5-1.9-2.3-2.7c-0.3-0.3-0.7-0.6-1.1-0.8c0,0-0.2,0-0.2,0.1c0,0,0,0.1,0,0.1c0,0.2,0,0.3,0.1,0.5c0.2,0.6,0.3,1.3,0.5,1.9
	c0.5,1.8,1,3.6,1.6,5.3c1.1,3.4,2,6.8,2.8,10.2c0.3,1.5,0.6,3,0.8,4.5c0.1,0.5,0.1,1,0.2,1.5c0,0.1,0,0.2,0,0.3
	c0,0.1-0.1,0.1-0.2,0.1c-0.2-0.1-0.4-0.1-0.6-0.2c-0.7-0.3-1.3-0.6-1.9-0.9c-1.3-0.7-2.5-1.4-3.7-2.2c-1.3-0.8-2.6-1.5-3.8-2.3
	c-0.1,0-0.1-0.1-0.2-0.1C0.1,46,0,45.9,0,45.8c0-0.2,0-0.5,0-0.7C0,40.2,0,35.4,0,30.5C0,30.5,0,30.5,0,30.5z"/>
<g>
	<path class="st1" d="M61,35.3V22.5h4.6c2,0,3.5,0.6,4.5,1.9c1,1.3,1.5,2.7,1.5,4.4c0,1.9-0.5,3.5-1.6,4.7c-1.1,1.2-2.4,1.8-4.2,1.8
		H61z M64.7,32.3h0.9c0.6,0,1.1-0.3,1.5-0.9c0.4-0.6,0.6-1.5,0.6-2.6c0-0.9-0.2-1.7-0.6-2.4c-0.4-0.7-0.9-1-1.6-1h-0.9V32.3z"/>
	<path class="st1" d="M82.1,32.2v3.1h-8.9V22.5h8.9v3h-5.4v1.9h4.3v2.8h-4.3v2.1H82.1z"/>
	<path class="st1" d="M90.1,30.4l3.3,0.2c-0.2,1.6-0.7,2.8-1.6,3.6c-0.9,0.8-2.1,1.3-3.4,1.3c-1.6,0-2.9-0.6-3.9-1.7
		C83.5,32.6,83,31,83,29c0-2,0.5-3.6,1.4-4.9s2.3-1.8,3.9-1.8c1.6,0,2.8,0.5,3.6,1.4c0.8,0.9,1.3,2.2,1.4,3.7L90,27.6
		c0-0.9-0.2-1.5-0.5-1.9c-0.3-0.4-0.7-0.6-1.1-0.6c-1.1,0-1.7,1.2-1.7,3.7c0,1.4,0.1,2.3,0.4,2.8c0.3,0.5,0.7,0.7,1.3,0.7
		C89.4,32.5,90,31.8,90.1,30.4z"/>
	<path class="st1" d="M99.9,35.4c-1.7,0-3-0.6-4.1-1.8c-1.1-1.2-1.6-2.8-1.6-4.8c0-1.9,0.5-3.5,1.5-4.7c1-1.2,2.4-1.9,4.2-1.9
		c1.7,0,3,0.6,4,1.8c1,1.2,1.6,2.7,1.6,4.7c0,2-0.5,3.7-1.6,4.9C102.9,34.8,101.5,35.4,99.9,35.4z M99.9,32.5c0.6,0,1.1-0.3,1.3-0.9
		c0.3-0.6,0.4-1.6,0.4-3.2c0-2.2-0.6-3.3-1.7-3.3c-1.2,0-1.8,1.3-1.8,3.8C98.1,31.4,98.7,32.5,99.9,32.5z"/>
	<path class="st2" d="M105.8,31.6l3.4-0.7c0.3,1,1,1.5,2.2,1.5c0.9,0,1.4-0.3,1.4-0.8c0-0.3-0.1-0.5-0.3-0.6
		c-0.2-0.2-0.6-0.3-1.1-0.4c-2.1-0.4-3.4-1-4-1.7c-0.6-0.7-0.9-1.5-0.9-2.4c0-1.2,0.4-2.2,1.3-3c0.9-0.8,2.1-1.2,3.7-1.2
		c2.4,0,4,1,4.8,3.1l-3,1c-0.3-0.9-0.9-1.3-1.9-1.3c-0.8,0-1.2,0.3-1.2,0.8c0,0.2,0.1,0.4,0.3,0.6c0.2,0.1,0.5,0.3,1,0.4
		c1.4,0.3,2.4,0.6,3,0.9s1.1,0.7,1.5,1.3c0.4,0.6,0.6,1.3,0.6,2.1c0,1.3-0.5,2.3-1.5,3.1c-1,0.8-2.3,1.2-3.8,1.2
		C108.3,35.4,106.5,34.1,105.8,31.6z"/>
	<path class="st2" d="M122.9,25.5v9.7h-3.5v-9.7H117v-3.1h8.4v3.1H122.9z"/>
	<path class="st2" d="M131.6,35.4c-1.7,0-3-0.6-4.1-1.8c-1.1-1.2-1.6-2.8-1.6-4.8c0-1.9,0.5-3.5,1.5-4.7c1-1.2,2.4-1.9,4.2-1.9
		c1.7,0,3,0.6,4,1.8c1,1.2,1.6,2.7,1.6,4.7c0,2-0.5,3.7-1.6,4.9C134.6,34.8,133.2,35.4,131.6,35.4z M131.5,32.5
		c0.6,0,1.1-0.3,1.3-0.9c0.3-0.6,0.4-1.6,0.4-3.2c0-2.2-0.6-3.3-1.7-3.3c-1.2,0-1.8,1.3-1.8,3.8C129.8,31.4,130.4,32.5,131.5,32.5z"
		/>
	<path class="st2" d="M149.3,35.3h-4l-1.7-4.9h-1.2v4.9h-3.6V22.5h6.2c1.4,0,2.4,0.3,3.2,1c0.8,0.7,1.1,1.6,1.1,2.7
		c0,0.7-0.1,1.4-0.4,2c-0.3,0.6-0.8,1.1-1.7,1.5L149.3,35.3z M142.4,27.6h1.6c0.5,0,0.8-0.1,1.1-0.3c0.3-0.2,0.4-0.5,0.4-0.9
		c0-0.8-0.5-1.2-1.4-1.2h-1.7V27.6z"/>
	<path class="st2" d="M160,32.2v3.1h-8.9V22.5h8.9v3h-5.4v1.9h4.3v2.8h-4.3v2.1H160z"/>
</g>
</svg>
