<?xml version="1.0" encoding="utf-8"?>
<!-- Generator: Adobe Illustrator 27.2.0, SVG Export Plug-In . SVG Version: 6.00 Build 0)  -->
<svg version="1.1" id="Capa_1" xmlns="http://www.w3.org/2000/svg" xmlns:xlink="http://www.w3.org/1999/xlink" x="0px" y="0px"
	 viewBox="0 0 1080 1080" style="enable-background:new 0 0 1080 1080;" xml:space="preserve">
<style type="text/css">
	.st0{display:none;}
	.st1{clip-path:url(#SVGID_00000007419053621179070550000006079027677378649731_);stroke:#000000;stroke-miterlimit:10;}
</style>
<path d="M709.5,266.4h-28.8h-48.8h-28.8h-48.8h-28.8h-48.8h-28.8h-48.8h-28.8H293v573.6h77.5h28.8h48.8h28.8h48.8h28.8h48.8h28.8
	h48.8h28.8H787V266.4H709.5z M370.5,811.2h-48.8v-516h48.8V811.2z M448.1,811.2h-48.8v-516h48.8V811.2z M525.6,811.2h-48.8v-516
	h48.8V811.2z M603.2,811.2h-48.8v-516h48.8V811.2z M680.7,811.2h-48.8v-516h48.8V811.2z M758.2,811.2h-48.8v-516h48.8V811.2z"/>
</svg>
