<?xml version="1.0" encoding="utf-8"?>
<!-- Generator: Adobe Illustrator 27.2.0, SVG Export Plug-In . SVG Version: 6.00 Build 0)  -->
<svg version="1.1" id="Capa_1" xmlns="http://www.w3.org/2000/svg" xmlns:xlink="http://www.w3.org/1999/xlink" x="0px" y="0px"
	 viewBox="0 0 1080 1080" style="enable-background:new 0 0 1080 1080;" xml:space="preserve">
<style type="text/css">
	.st0{display:none;}
	.st1{clip-path:url(#SVGID_00000011742001034171592650000013554874751357012358_);stroke:#000000;stroke-miterlimit:10;}
</style>
<g>
	<path d="M275,240.1c176.7,0,353.3,0,530,0c0,200,0,399.9,0,599.9c-177,0-353.3,0-530,0C275,639.7,275,439.9,275,240.1z
		 M699.2,627.4c-106.4,0-212.4,0-318.2,0c0,36,0,71.7,0,107.1c106.3,0,212.1,0,318.2,0C699.2,698.7,699.2,663.2,699.2,627.4z
		 M345.2,769.8c0-47.8,0-95.2,0-142.5c-11.9,0-23.1,0-34.6,0c0,59.3,0,118.4,0,177.6c153.2,0,306,0,458.9,0c0-59.4,0-118.5,0-177.4
		c-11.8,0-23.2,0-35,0c0,47.7,0,94.9,0,142.3C604.7,769.8,475.5,769.8,345.2,769.8z M310.5,310c153.3,0,306.1,0,458.9,0
		c0-11.8,0-23.2,0-34.5c-153.2,0-305.9,0-458.9,0C310.5,287,310.5,298.3,310.5,310z M310.5,380.3c153.3,0,306.2,0,459.1,0
		c0-11.7,0-22.9,0-34.5c-153.1,0-306,0-459.1,0C310.5,357.4,310.5,368.7,310.5,380.3z M769.4,450.8c0-11.9,0-23.2,0-34.5
		c-153.3,0-306.1,0-458.9,0c0,11.7,0,23,0,34.5C463.5,450.8,616.2,450.8,769.4,450.8z M769.3,521.3c0-11.6,0-23.1,0-34.7
		c-153.1,0-305.9,0-458.7,0c0,11.8,0,23.2,0,34.7C463.7,521.3,616.3,521.3,769.3,521.3z M769.5,557c-153.3,0-306.2,0-458.9,0
		c0,11.8,0,23.2,0,34.5c153.2,0,305.9,0,458.9,0C769.5,579.9,769.5,568.7,769.5,557z"/>
</g>
</svg>
