<?xml version="1.0" encoding="utf-8"?>
<!-- Generator: Adobe Illustrator 27.2.0, SVG Export Plug-In . SVG Version: 6.00 Build 0)  -->
<svg version="1.1" id="Capa_1" xmlns="http://www.w3.org/2000/svg" xmlns:xlink="http://www.w3.org/1999/xlink" x="0px" y="0px"
	 viewBox="0 0 1080 1080" style="enable-background:new 0 0 1080 1080;" xml:space="preserve">
<style type="text/css">
	.st0{display:none;}
	.st1{clip-path:url(#SVGID_00000168116736821391422940000012934184399804267154_);stroke:#000000;stroke-miterlimit:10;}
	.st2{fill:none;stroke:#000000;stroke-width:21;stroke-miterlimit:10;}
</style>
<g>
	<path d="M370.8,352.2c22.5,22.5,44.1,44.1,65.2,65.2c44.1-44.2,88.8-88.9,133.4-133.5c-1-0.1-3-0.3-5-0.3c-24.7,0-49.4,0-74.2,0
		c-7.8,0-12-3.9-11.8-10.6c0.2-5.5,3.1-8.9,8.5-9.9c2.1-0.4,4.3-0.2,6.5-0.2c113.2,0,226.4,0,339.6,0c12.5,0,15.4,2.9,15.4,15.2
		c0,77-0.1,154,0.1,231c0,6.6-2,11.5-6.6,16.1c-48.1,47.9-96.1,96-144.1,143.9c-1.8,1.8-4.1,3.2-5.9,4.5
		c22.6,22.6,44.2,44.2,66.2,66.1c1.2-1.1,2.8-2.5,4.3-4c20.3-20.2,40.4-40.5,60.8-60.6c3.2-3.1,4.6-6.2,4.5-10.7
		c-0.2-24.9-0.1-49.9-0.1-74.8c0-7.8,4-12,10.7-11.8c5.5,0.2,8.9,3.1,9.9,8.5c0.4,2.1,0.2,4.3,0.2,6.5c0,79.2,0,158.3,0,237.5
		c0,12.8-2.8,15.6-15.6,15.6c-183.9,0-367.8,0-551.7,0c-12.8,0-15.6-2.8-15.6-15.6c0-183.9,0-367.9,0-551.8
		c0-12.8,2.8-15.6,15.6-15.6c50.5,0,101.1,0,151.6-0.1c5.5,0,10.6,0.5,13,6.3c2.6,6-0.4,10.2-4.5,14.3c-21.6,21.4-43,42.9-64.5,64.3
		C374.7,349.5,372.5,350.9,370.8,352.2z M715.9,327.8c-1.1,1.7-2.1,4-3.8,5.6c-49.2,49.3-98.4,98.5-147.6,147.7
		c-1.8,1.8-3.6,3.8-5.8,5.2c-4.4,2.7-8.8,2-12.5-1.6c-3.6-3.7-4-8.1-1.5-12.5c1-1.8,2.7-3.3,4.3-4.9c16.2-16.3,32.5-32.5,48.7-48.8
		c1.5-1.5,2.8-3.1,3.6-4c-22-22.1-43.5-43.7-64.7-65c-61.5,61.5-123.2,123.2-184,184c21.4,21.4,43.1,43.1,65.4,65.4
		c0.9-1.1,2.3-3.1,4-4.8c27.9-27.9,55.8-55.8,83.7-83.7c8.7-8.7,13.1-8.8,21.7-0.1c21.5,21.5,42.9,43,64.4,64.4
		c1.6,1.6,3.4,3.1,4.4,4c62.2-62.2,123.9-123.9,185.4-185.4C760.4,372.3,738.8,350.7,715.9,327.8z M395.8,779
		c61.7-61.7,123.4-123.4,184.6-184.6c-21.1-21-42.6-42.6-64-64C455.1,591.8,393.4,653.6,332,715.2
		C353.1,736.4,374.7,757.9,395.8,779z M576.6,758.6c61.3-61.3,123.2-123.2,184.2-184.2c-21-21.1-42.6-42.6-63.5-63.6
		c-61.2,61.2-122.9,122.9-184.2,184.3C534.2,716.3,555.8,737.8,576.6,758.6z M286.2,567.9c45.1-45.2,89.8-89.8,133.9-133.9
		c-21.2-21.2-42.9-43-64.9-65c-22.1,22.1-44.6,44.7-67,67.3c-1.2,1.2-1.9,3.4-1.9,5.1C286.1,483.5,286.2,525.5,286.2,567.9z
		 M543.1,824.6c1.1,0.2,1.7,0.5,2.2,0.5c41.4,0,82.7,0.1,124.1-0.1c2.4,0,5.3-1.7,7.1-3.5c15.5-15.2,30.7-30.6,46-45.9
		c6.7-6.7,13.6-13.1,19.9-19.1c-22.5-22.5-44.2-44.2-65.7-65.6C632.6,735,588,779.6,543.1,824.6z M616.4,397.4
		c37.9-37.9,75.8-75.8,113.4-113.5c0.2,0.1-0.3-0.2-0.9-0.2c-41.4,0-82.7-0.1-124.1,0.1c-2.4,0-5.2,1.8-7,3.5
		c-13.3,13-26.4,26.3-39.6,39.4c-2.2,2.2-5,3.8-7.1,5.3C574.1,355.1,595.5,376.5,616.4,397.4z M778.6,558.9
		c14.7-14.8,30-29.8,44.9-45.2c2.2-2.3,3.9-6.3,3.9-9.5c0.3-39.4,0.2-78.9,0.2-118.3c0-1.8-0.2-3.7-0.2-5.2
		c-38.1,38.1-75.9,76-113.4,113.5C734.8,515.3,756.4,536.8,778.6,558.9z M335.1,549.7c-15.4,15.5-31.5,31.5-47.4,47.8
		c-1.4,1.4-1.5,4.4-1.5,6.6c-0.1,39.6-0.1,79.3,0,118.9c0,1.8,0.2,3.6,0.3,4.6c37.9-37.9,75.8-75.8,113.5-113.6
		C378.9,593.2,357.2,571.7,335.1,549.7z M382.4,825.1c3.1,0,5.4,0,7.7,0c36.4,0,72.8-0.3,109.2,0.2c9.4,0.1,16.1-2.4,22.5-9.4
		c12.9-14,26.8-27.1,39.1-39.3c-22.1-22.1-43.7-43.8-65-65C458.7,748.7,420.9,786.6,382.4,825.1z M286.3,406.2
		c40.8-40.8,81.7-81.7,122-122c-39.8,0-80.8,0-122,0C286.3,325.4,286.3,366.2,286.3,406.2z M827.2,702.1
		c-41,41-81.9,81.8-122.6,122.5c40.4,0,81.4,0,122.6,0C827.2,783.4,827.2,742.6,827.2,702.1z M827.5,283.7c-21.6,0-42.3,0-63.1,0.1
		c-1.4,0-3.1,0.6-4,1.5c-9.4,9.1-18.7,18.4-27.3,26.9c22.2,22.3,43.8,44,65.8,66.1c8.6-8.7,17.6-17.7,26.5-26.9c1.2-1.2,2-3.4,2-5.1
		C827.5,325.7,827.5,305.2,827.5,283.7z M286.2,825.1c21.5,0,42.3,0,63-0.1c1.4,0,3.1-0.6,4-1.5c9.4-9.1,18.8-18.4,27.4-26.9
		c-22.3-22.3-43.9-43.9-65.9-66c-8.4,8.5-17.5,17.6-26.3,26.8c-1.2,1.2-2.1,3.3-2.1,5.1C286.1,783,286.2,803.6,286.2,825.1z"/>
</g>
</svg>
